<svg xmlns="http://www.w3.org/2000/svg" xmlns:xlink="http://www.w3.org/1999/xlink" width="350" zoomAndPan="magnify" viewBox="0 0 262.5 209.999996" height="280" preserveAspectRatio="xMidYMid meet" version="1.0"><defs><clipPath id="d350a5e1fd"><path d="M 5.300781 12.609375 L 257 12.609375 L 257 197.507812 L 5.300781 197.507812 Z M 5.300781 12.609375 " clip-rule="nonzero"/></clipPath></defs><path fill="#e4e7c5" d="M 222.015625 42.738281 L 222.015625 161.316406 C 222.015625 167.234375 217.222656 172.015625 211.3125 172.015625 L 29.945312 172.015625 C 24.023438 172.015625 19.242188 167.234375 19.242188 161.316406 L 19.242188 42.738281 L 222.015625 42.738281 " fill-opacity="1" fill-rule="nonzero"/><path fill="#f8abeb" d="M 222.015625 42.738281 L 19.242188 42.738281 L 19.242188 31.46875 C 19.242188 22.9375 26.160156 16.019531 34.691406 16.019531 L 206.5625 16.019531 C 215.09375 16.019531 222.015625 22.9375 222.015625 31.46875 L 222.015625 42.738281 " fill-opacity="1" fill-rule="nonzero"/><path fill="#9aedb6" d="M 97.84375 124.664062 L 16.5 124.664062 C 12.453125 124.664062 9.171875 121.386719 9.171875 117.34375 L 9.171875 65.304688 C 9.171875 61.253906 12.453125 57.976562 16.5 57.976562 L 97.84375 57.976562 C 101.890625 57.976562 105.171875 61.253906 105.171875 65.304688 L 105.171875 117.34375 C 105.171875 121.386719 101.890625 124.664062 97.84375 124.664062 " fill-opacity="1" fill-rule="nonzero"/><path fill="#f8abeb" d="M 250.71875 144.144531 L 240.519531 143.722656 C 239.757812 143.6875 239.085938 144.199219 238.875 144.933594 C 237.398438 150.191406 235.082031 155.078125 232.109375 159.476562 C 231.683594 160.117188 231.738281 160.953125 232.253906 161.519531 L 239.1875 169.042969 C 239.804688 169.71875 239.765625 170.773438 239.085938 171.398438 L 226.144531 183.316406 C 225.464844 183.945312 224.410156 183.894531 223.789062 183.222656 L 216.855469 175.699219 C 216.339844 175.132812 215.511719 175.019531 214.835938 175.390625 C 210.210938 177.992188 205.148438 179.894531 199.785156 180.9375 C 199.03125 181.085938 198.472656 181.710938 198.441406 182.480469 L 198.023438 192.671875 C 197.984375 193.597656 197.207031 194.3125 196.289062 194.273438 L 178.710938 193.550781 C 177.792969 193.507812 177.078125 192.734375 177.109375 191.816406 L 177.53125 181.625 C 177.558594 180.855469 177.054688 180.179688 176.316406 179.96875 C 171.0625 178.496094 166.171875 176.179688 161.777344 173.214844 C 161.136719 172.777344 160.300781 172.832031 159.726562 173.351562 L 152.210938 180.285156 C 151.53125 180.902344 150.476562 180.863281 149.855469 180.179688 L 137.929688 167.242188 C 137.308594 166.566406 137.351562 165.511719 138.03125 164.886719 L 145.550781 157.960938 C 146.121094 157.4375 146.238281 156.605469 145.863281 155.933594 C 143.257812 151.308594 141.359375 146.246094 140.316406 140.882812 C 140.167969 140.128906 139.542969 139.570312 138.773438 139.539062 L 128.574219 139.121094 C 127.65625 139.082031 126.941406 138.304688 126.980469 137.386719 L 127.703125 119.808594 C 127.738281 118.886719 128.511719 118.175781 129.4375 118.207031 L 139.628906 118.628906 C 140.398438 118.65625 141.074219 118.152344 141.277344 117.410156 C 142.761719 112.160156 145.066406 107.269531 148.039062 102.871094 C 148.46875 102.234375 148.421875 101.398438 147.894531 100.832031 L 140.96875 93.308594 C 140.34375 92.625 140.390625 91.570312 141.066406 90.953125 L 154.011719 79.035156 C 154.6875 78.40625 155.742188 78.449219 156.367188 79.128906 L 163.292969 86.644531 C 163.816406 87.21875 164.648438 87.332031 165.3125 86.960938 C 169.945312 84.359375 175.007812 82.457031 180.363281 81.414062 C 181.117188 81.265625 181.683594 80.640625 181.710938 79.871094 L 182.132812 69.671875 C 182.164062 68.753906 182.941406 68.039062 183.867188 68.078125 L 201.445312 68.800781 C 202.367188 68.835938 203.078125 69.609375 203.039062 70.535156 L 202.625 80.726562 C 202.589844 81.496094 203.101562 82.167969 203.835938 82.375 C 209.09375 83.855469 213.980469 86.164062 218.382812 89.136719 C 219.019531 89.566406 219.859375 89.515625 220.421875 88.992188 L 227.945312 82.066406 C 228.621094 81.441406 229.675781 81.488281 230.300781 82.164062 L 242.222656 95.109375 C 242.839844 95.785156 242.800781 96.839844 242.125 97.464844 L 234.601562 104.390625 C 234.035156 104.914062 233.914062 105.742188 234.292969 106.417969 C 236.894531 111.042969 238.796875 116.105469 239.839844 121.46875 C 239.988281 122.214844 240.613281 122.78125 241.382812 122.808594 L 251.574219 123.230469 C 252.492188 123.261719 253.207031 124.039062 253.175781 124.964844 L 252.453125 142.542969 C 252.414062 143.460938 251.636719 144.175781 250.71875 144.144531 " fill-opacity="1" fill-rule="nonzero"/><path fill="#ffffff" d="M 216.355469 131.175781 C 216.355469 145.6875 204.589844 157.449219 190.078125 157.449219 C 175.566406 157.449219 163.804688 145.6875 163.804688 131.175781 C 163.804688 116.664062 175.566406 104.898438 190.078125 104.898438 C 204.589844 104.898438 216.355469 116.664062 216.355469 131.175781 " fill-opacity="1" fill-rule="nonzero"/><g clip-path="url(#d350a5e1fd)"><path fill="#11100e" d="M 72.648438 85.109375 C 72.648438 87.898438 70.382812 90.171875 67.59375 90.171875 L 62.539062 90.171875 L 62.539062 80.054688 L 67.59375 80.054688 C 70.382812 80.054688 72.648438 82.320312 72.648438 85.109375 Z M 59.136719 109.390625 C 61.015625 109.390625 62.539062 107.875 62.539062 105.988281 L 62.539062 96.972656 L 67.59375 96.972656 C 74.132812 96.972656 79.460938 91.652344 79.460938 85.109375 C 79.460938 78.570312 74.132812 73.25 67.59375 73.25 L 59.136719 73.25 C 57.257812 73.25 55.734375 74.773438 55.734375 76.652344 L 55.734375 105.988281 C 55.734375 107.875 57.257812 109.390625 59.136719 109.390625 Z M 83.433594 105.988281 L 83.433594 76.652344 C 83.433594 74.773438 84.957031 73.25 86.835938 73.25 C 88.710938 73.25 90.238281 74.773438 90.238281 76.652344 L 90.238281 105.988281 C 90.238281 107.875 88.710938 109.390625 86.835938 109.390625 C 84.957031 109.390625 83.433594 107.875 83.433594 105.988281 Z M 37.964844 86.714844 L 40.515625 93.878906 L 35.421875 93.878906 Z M 26.371094 109.199219 C 28.132812 109.8125 30.085938 108.902344 30.71875 107.132812 L 33.003906 100.6875 L 42.929688 100.6875 L 45.21875 107.132812 C 45.714844 108.519531 47.027344 109.390625 48.429688 109.390625 C 48.804688 109.390625 49.191406 109.328125 49.566406 109.199219 C 51.332031 108.566406 52.257812 106.621094 51.632812 104.851562 L 41.210938 75.507812 C 40.726562 74.15625 39.375 73.25 37.929688 73.25 C 36.496094 73.25 35.210938 74.15625 34.726562 75.507812 L 24.304688 104.851562 C 23.675781 106.621094 24.601562 108.566406 26.371094 109.199219 Z M 36.773438 30.460938 C 36.773438 32.457031 35.15625 34.074219 33.15625 34.074219 C 31.160156 34.074219 29.542969 32.457031 29.542969 30.460938 C 29.542969 28.460938 31.160156 26.84375 33.15625 26.84375 C 35.15625 26.84375 36.773438 28.460938 36.773438 30.460938 Z M 47.613281 30.460938 C 47.613281 32.457031 45.992188 34.074219 43.992188 34.074219 C 42 34.074219 40.378906 32.457031 40.378906 30.460938 C 40.378906 28.460938 42 26.84375 43.992188 26.84375 C 45.992188 26.84375 47.613281 28.460938 47.613281 30.460938 Z M 58.449219 30.460938 C 58.449219 32.457031 56.832031 34.074219 54.832031 34.074219 C 52.835938 34.074219 51.21875 32.457031 51.21875 30.460938 C 51.21875 28.460938 52.835938 26.84375 54.832031 26.84375 C 56.832031 26.84375 58.449219 28.460938 58.449219 30.460938 Z M 190.070312 154.054688 C 177.464844 154.054688 167.203125 143.777344 167.203125 131.167969 C 167.203125 118.554688 177.464844 108.300781 190.070312 108.300781 C 202.679688 108.300781 212.9375 118.554688 212.9375 131.167969 C 212.9375 143.777344 202.679688 154.054688 190.070312 154.054688 Z M 190.070312 101.492188 C 173.714844 101.492188 160.40625 114.8125 160.40625 131.167969 C 160.40625 147.539062 173.714844 160.847656 190.070312 160.847656 C 203.636719 160.847656 215.101562 151.703125 218.621094 139.25 C 219.367188 136.671875 219.75 133.972656 219.75 131.167969 C 219.75 128.367188 219.367188 125.664062 218.621094 123.085938 C 215.101562 110.648438 203.636719 101.492188 190.070312 101.492188 Z M 249.113281 140.660156 L 240.667969 140.328125 C 238.347656 140.246094 236.242188 141.742188 235.601562 144.019531 C 234.261719 148.808594 232.132812 153.375 229.292969 157.574219 C 227.96875 159.527344 228.164062 162.085938 229.75 163.824219 L 235.492188 170.078125 L 225.117188 179.636719 L 219.367188 173.386719 C 219.257812 173.28125 219.175781 173.179688 219.066406 173.09375 C 217.46875 171.628906 215.101562 171.351562 213.164062 172.433594 C 211.09375 173.597656 208.953125 174.609375 206.742188 175.425781 C 204.265625 176.363281 201.738281 177.097656 199.148438 177.601562 C 196.828125 178.050781 195.140625 179.992188 195.039062 182.339844 L 194.683594 190.800781 L 180.582031 190.210938 L 180.925781 181.746094 C 181.03125 179.414062 179.5 177.335938 177.234375 176.699219 C 175.949219 176.332031 174.675781 175.914062 173.421875 175.425781 C 170.007812 174.152344 166.734375 172.464844 163.667969 170.390625 C 161.714844 169.066406 159.136719 169.261719 157.433594 170.847656 L 152.46875 175.425781 L 151.175781 176.609375 L 150.082031 175.425781 L 143.828125 168.617188 L 141.617188 166.214844 L 147.855469 160.464844 C 149.578125 158.859375 149.976562 156.320312 148.828125 154.261719 C 146.351562 149.859375 144.609375 145.136719 143.65625 140.246094 C 143.203125 137.925781 141.25 136.238281 138.914062 136.136719 L 130.453125 135.78125 L 131.03125 121.679688 L 139.492188 122.023438 C 141.792969 122.125 143.894531 120.617188 144.5625 118.332031 C 145.902344 113.539062 148.027344 108.976562 150.863281 104.785156 C 152.191406 102.832031 152 100.253906 150.394531 98.527344 L 144.644531 92.273438 L 155.046875 82.714844 L 160.796875 88.945312 C 162.382812 90.675781 164.917969 91.074219 166.972656 89.925781 C 171.402344 87.449219 176.117188 85.707031 181.015625 84.75 C 183.328125 84.300781 185.003906 82.347656 185.105469 80.011719 L 185.457031 71.550781 L 199.5625 72.121094 L 199.214844 80.589844 C 199.128906 82.9375 200.65625 85.011719 202.910156 85.660156 C 207.714844 87 212.277344 89.121094 216.476562 91.960938 C 217.136719 92.394531 217.871094 92.675781 218.621094 92.785156 C 220.082031 92.988281 221.597656 92.550781 222.730469 91.492188 L 225.410156 89.019531 L 228.980469 85.742188 L 238.539062 96.144531 L 232.308594 101.894531 C 230.578125 103.472656 230.164062 106.015625 231.335938 108.089844 C 233.804688 112.480469 235.546875 117.199219 236.503906 122.113281 C 236.941406 124.425781 238.90625 126.121094 241.242188 126.203125 L 249.703125 126.554688 Z M 29.9375 168.617188 C 25.914062 168.617188 22.644531 165.34375 22.644531 161.316406 L 22.644531 128.066406 L 97.851562 128.066406 C 103.753906 128.066406 108.578125 123.261719 108.578125 117.335938 L 108.578125 65.296875 C 108.578125 59.390625 103.753906 54.566406 97.851562 54.566406 L 22.644531 54.566406 L 22.644531 46.136719 L 218.621094 46.136719 L 218.621094 85.238281 C 214.699219 82.800781 210.480469 80.871094 206.082031 79.488281 L 206.441406 70.679688 C 206.496094 69.316406 206.027344 68.03125 205.121094 67.039062 C 204.195312 66.046875 202.945312 65.453125 201.582031 65.398438 L 183.988281 64.671875 C 181.207031 64.5625 178.839844 66.738281 178.730469 69.527344 L 178.371094 78.359375 C 173.683594 79.386719 169.152344 81.0625 164.871094 83.328125 L 158.878906 76.828125 C 157.953125 75.835938 156.699219 75.242188 155.359375 75.1875 C 153.953125 75.136719 152.691406 75.605469 151.699219 76.53125 L 138.757812 88.464844 C 136.703125 90.339844 136.582031 93.546875 138.464844 95.621094 L 144.453125 102.117188 C 141.839844 106.207031 139.808594 110.582031 138.390625 115.179688 L 129.566406 114.8125 C 126.832031 114.691406 124.425781 116.867188 124.300781 119.671875 L 123.574219 137.246094 C 123.472656 140.054688 125.648438 142.402344 128.429688 142.523438 L 137.261719 142.890625 C 138.289062 147.570312 139.964844 152.101562 142.230469 156.390625 L 135.710938 162.398438 C 133.96875 164.015625 133.601562 166.59375 134.753906 168.617188 Z M 12.574219 117.335938 L 12.574219 65.296875 C 12.574219 63.363281 13.980469 61.746094 15.832031 61.445312 C 16.035156 61.398438 16.269531 61.378906 16.492188 61.378906 L 97.851562 61.378906 C 100.007812 61.378906 101.769531 63.140625 101.769531 65.296875 L 101.769531 117.335938 C 101.769531 119.5 100.007812 121.257812 97.851562 121.257812 L 16.492188 121.257812 C 16.269531 121.257812 16.035156 121.242188 15.832031 121.1875 C 13.980469 120.894531 12.574219 119.269531 12.574219 117.335938 Z M 22.644531 31.46875 C 22.644531 24.824219 28.058594 19.421875 34.691406 19.421875 L 206.5625 19.421875 C 213.203125 19.421875 218.621094 24.824219 218.621094 31.46875 L 218.621094 39.347656 L 22.644531 39.347656 Z M 251.710938 119.828125 L 242.894531 119.464844 C 241.851562 114.757812 240.179688 110.234375 237.914062 105.96875 L 244.433594 99.953125 C 246.488281 98.078125 246.609375 94.871094 244.722656 92.796875 L 232.796875 79.855469 C 230.898438 77.800781 227.695312 77.679688 225.632812 79.5625 L 225.410156 79.769531 L 225.410156 31.46875 C 225.410156 21.074219 216.964844 12.609375 206.5625 12.609375 L 34.691406 12.609375 C 24.296875 12.609375 15.832031 21.074219 15.832031 31.46875 L 15.832031 54.601562 C 10.242188 54.933594 5.765625 59.617188 5.765625 65.296875 L 5.765625 117.335938 C 5.765625 123.03125 10.242188 127.699219 15.832031 128.03125 L 15.832031 161.316406 C 15.832031 169.085938 22.171875 175.425781 29.9375 175.425781 L 140.835938 175.425781 L 147.34375 182.496094 C 148.269531 183.488281 149.523438 184.066406 150.882812 184.113281 C 152.210938 184.1875 153.53125 183.699219 154.503906 182.773438 L 161.019531 176.785156 C 165.109375 179.398438 169.484375 181.433594 174.082031 182.863281 L 173.714844 191.671875 C 173.59375 194.460938 175.769531 196.828125 178.574219 196.953125 L 196.148438 197.667969 C 196.222656 197.667969 196.289062 197.6875 196.359375 197.6875 C 197.628906 197.667969 198.847656 197.195312 199.785156 196.339844 C 200.800781 195.421875 201.371094 194.164062 201.425781 192.808594 L 201.792969 183.992188 C 206.460938 182.964844 211.007812 181.296875 215.292969 179.011719 L 221.28125 185.527344 C 222.203125 186.523438 223.441406 187.113281 224.804688 187.160156 C 226.210938 187.195312 227.464844 186.726562 228.445312 185.820312 L 241.382812 173.910156 C 243.4375 172.011719 243.574219 168.804688 241.695312 166.730469 L 235.6875 160.242188 C 238.316406 156.144531 240.335938 151.757812 241.765625 147.175781 L 250.574219 147.539062 C 251.96875 147.613281 253.222656 147.125 254.214844 146.199219 C 255.207031 145.28125 255.800781 144.042969 255.855469 142.679688 L 256.570312 125.085938 C 256.691406 122.316406 254.515625 119.949219 251.710938 119.828125 " fill-opacity="1" fill-rule="nonzero"/></g></svg>