<svg xmlns="http://www.w3.org/2000/svg" xmlns:xlink="http://www.w3.org/1999/xlink" width="350" zoomAndPan="magnify" viewBox="0 0 262.5 209.999996" height="280" preserveAspectRatio="xMidYMid meet" version="1.0"><defs><clipPath id="8ecf92b152"><path d="M 12.261719 17.726562 L 254 17.726562 L 254 195.886719 L 12.261719 195.886719 Z M 12.261719 17.726562 " clip-rule="nonzero"/></clipPath></defs><path fill="#e4e7c5" d="M 220.675781 46.699219 L 220.675781 160.738281 C 220.675781 166.433594 216.070312 171.03125 210.382812 171.03125 L 35.960938 171.03125 C 30.265625 171.03125 25.667969 166.433594 25.667969 160.738281 L 25.667969 46.699219 L 220.675781 46.699219 " fill-opacity="1" fill-rule="nonzero"/><path fill="#d2b0dd" d="M 220.675781 46.699219 L 25.667969 46.699219 L 25.667969 35.863281 C 25.667969 27.660156 32.320312 21.003906 40.527344 21.003906 L 205.816406 21.003906 C 214.023438 21.003906 220.675781 27.660156 220.675781 35.863281 L 220.675781 46.699219 " fill-opacity="1" fill-rule="nonzero"/><path fill="#9aedb6" d="M 101.257812 125.492188 L 23.03125 125.492188 C 19.136719 125.492188 15.984375 122.339844 15.984375 118.453125 L 15.984375 68.402344 C 15.984375 64.511719 19.136719 61.355469 23.03125 61.355469 L 101.257812 61.355469 C 105.152344 61.355469 108.304688 64.511719 108.304688 68.402344 L 108.304688 118.453125 C 108.304688 122.339844 105.152344 125.492188 101.257812 125.492188 " fill-opacity="1" fill-rule="nonzero"/><path fill="#d2b0dd" d="M 248.28125 144.226562 L 238.472656 143.820312 C 237.742188 143.785156 237.09375 144.277344 236.890625 144.984375 C 235.472656 150.042969 233.246094 154.738281 230.386719 158.972656 C 229.976562 159.589844 230.027344 160.394531 230.523438 160.9375 L 237.191406 168.171875 C 237.789062 168.820312 237.746094 169.835938 237.09375 170.4375 L 224.648438 181.898438 C 223.996094 182.5 222.980469 182.457031 222.382812 181.808594 L 215.71875 174.570312 C 215.21875 174.027344 214.421875 173.917969 213.773438 174.277344 C 209.324219 176.777344 204.457031 178.609375 199.300781 179.609375 C 198.574219 179.753906 198.039062 180.355469 198.003906 181.09375 L 197.605469 190.898438 C 197.566406 191.785156 196.820312 192.472656 195.9375 192.433594 L 179.03125 191.742188 C 178.148438 191.703125 177.460938 190.957031 177.492188 190.070312 L 177.898438 180.269531 C 177.925781 179.53125 177.441406 178.882812 176.726562 178.679688 C 171.675781 177.261719 166.972656 175.035156 162.746094 172.183594 C 162.128906 171.765625 161.324219 171.816406 160.773438 172.3125 L 153.546875 178.980469 C 152.890625 179.578125 151.875 179.539062 151.28125 178.882812 L 139.8125 166.4375 C 139.214844 165.789062 139.253906 164.777344 139.910156 164.175781 L 147.140625 157.515625 C 147.6875 157.011719 147.800781 156.210938 147.441406 155.5625 C 144.933594 151.113281 143.109375 146.246094 142.109375 141.089844 C 141.964844 140.363281 141.363281 139.828125 140.621094 139.796875 L 130.8125 139.394531 C 129.929688 139.355469 129.242188 138.609375 129.285156 137.726562 L 129.976562 120.820312 C 130.007812 119.9375 130.753906 119.25 131.644531 119.28125 L 141.445312 119.6875 C 142.1875 119.714844 142.835938 119.230469 143.03125 118.515625 C 144.457031 113.464844 146.675781 108.761719 149.535156 104.535156 C 149.945312 103.917969 149.902344 103.113281 149.398438 102.570312 L 142.734375 95.335938 C 142.132812 94.679688 142.179688 93.667969 142.828125 93.070312 L 155.277344 81.609375 C 155.925781 81.003906 156.941406 81.042969 157.542969 81.699219 L 164.203125 88.929688 C 164.707031 89.480469 165.503906 89.589844 166.148438 89.230469 C 170.601562 86.730469 175.472656 84.898438 180.621094 83.898438 C 181.347656 83.753906 181.890625 83.152344 181.914062 82.414062 L 182.320312 72.605469 C 182.355469 71.722656 183.101562 71.035156 183.988281 71.074219 L 200.898438 71.765625 C 201.78125 71.800781 202.46875 72.546875 202.429688 73.433594 L 202.027344 83.238281 C 201.996094 83.976562 202.488281 84.625 203.195312 84.820312 C 208.25 86.246094 212.949219 88.464844 217.183594 91.324219 C 217.796875 91.734375 218.601562 91.691406 219.144531 91.1875 L 226.382812 84.527344 C 227.03125 83.921875 228.042969 83.96875 228.644531 84.617188 L 240.109375 97.070312 C 240.707031 97.714844 240.667969 98.730469 240.019531 99.332031 L 232.78125 105.992188 C 232.238281 106.496094 232.121094 107.296875 232.488281 107.945312 C 234.988281 112.394531 236.820312 117.261719 237.820312 122.417969 C 237.964844 123.136719 238.566406 123.679688 239.304688 123.707031 L 249.105469 124.113281 C 249.988281 124.144531 250.675781 124.890625 250.644531 125.78125 L 249.949219 142.6875 C 249.910156 143.570312 249.164062 144.257812 248.28125 144.226562 " fill-opacity="1" fill-rule="nonzero"/><path fill="#ffffff" d="M 215.234375 131.753906 C 215.234375 145.710938 203.921875 157.023438 189.964844 157.023438 C 176.007812 157.023438 164.695312 145.710938 164.695312 131.753906 C 164.695312 117.796875 176.007812 106.484375 189.964844 106.484375 C 203.921875 106.484375 215.234375 117.796875 215.234375 131.753906 " fill-opacity="1" fill-rule="nonzero"/><g clip-path="url(#8ecf92b152)"><path fill="#11100e" d="M 77.03125 87.449219 C 77.03125 90.132812 74.851562 92.320312 72.167969 92.320312 L 67.308594 92.320312 L 67.308594 82.589844 L 72.167969 82.589844 C 74.851562 82.589844 77.03125 84.769531 77.03125 87.449219 Z M 64.035156 110.804688 C 65.839844 110.804688 67.308594 109.34375 67.308594 107.53125 L 67.308594 98.863281 L 72.167969 98.863281 C 78.457031 98.863281 83.578125 93.746094 83.578125 87.449219 C 83.578125 81.164062 78.457031 76.046875 72.167969 76.046875 L 64.035156 76.046875 C 62.230469 76.046875 60.765625 77.511719 60.765625 79.316406 L 60.765625 107.53125 C 60.765625 109.34375 62.230469 110.804688 64.035156 110.804688 Z M 87.402344 107.53125 L 87.402344 79.316406 C 87.402344 77.511719 88.867188 76.046875 90.671875 76.046875 C 92.480469 76.046875 93.945312 77.511719 93.945312 79.316406 L 93.945312 107.53125 C 93.945312 109.34375 92.480469 110.804688 90.671875 110.804688 C 88.867188 110.804688 87.402344 109.34375 87.402344 107.53125 Z M 43.671875 88.996094 L 46.128906 95.882812 L 41.226562 95.882812 Z M 32.523438 110.621094 C 34.21875 111.207031 36.097656 110.332031 36.707031 108.628906 L 38.902344 102.433594 L 48.449219 102.433594 L 50.648438 108.628906 C 51.125 109.964844 52.390625 110.804688 53.738281 110.804688 C 54.097656 110.804688 54.46875 110.742188 54.828125 110.621094 C 56.53125 110.011719 57.421875 108.140625 56.820312 106.4375 L 46.792969 78.21875 C 46.332031 76.917969 45.027344 76.046875 43.640625 76.046875 C 42.261719 76.046875 41.023438 76.917969 40.558594 78.21875 L 30.535156 106.4375 C 29.933594 108.140625 30.824219 110.011719 32.523438 110.621094 Z M 42.527344 34.898438 C 42.527344 36.8125 40.972656 38.371094 39.046875 38.371094 C 37.128906 38.371094 35.574219 36.8125 35.574219 34.898438 C 35.574219 32.972656 37.128906 31.414062 39.046875 31.414062 C 40.972656 31.414062 42.527344 32.972656 42.527344 34.898438 Z M 52.953125 34.898438 C 52.953125 36.8125 51.394531 38.371094 49.472656 38.371094 C 47.554688 38.371094 45.996094 36.8125 45.996094 34.898438 C 45.996094 32.972656 47.554688 31.414062 49.472656 31.414062 C 51.394531 31.414062 52.953125 32.972656 52.953125 34.898438 Z M 63.375 34.898438 C 63.375 36.8125 61.816406 38.371094 59.894531 38.371094 C 57.976562 38.371094 56.417969 36.8125 56.417969 34.898438 C 56.417969 32.972656 57.976562 31.414062 59.894531 31.414062 C 61.816406 31.414062 63.375 32.972656 63.375 34.898438 Z M 189.957031 153.757812 C 177.832031 153.757812 167.964844 143.871094 167.964844 131.746094 C 167.964844 119.617188 177.832031 109.757812 189.957031 109.757812 C 202.082031 109.757812 211.949219 119.617188 211.949219 131.746094 C 211.949219 143.871094 202.082031 153.757812 189.957031 153.757812 Z M 189.957031 103.207031 C 174.226562 103.207031 161.429688 116.019531 161.429688 131.746094 C 161.429688 147.488281 174.226562 160.289062 189.957031 160.289062 C 203.003906 160.289062 214.027344 151.492188 217.410156 139.519531 C 218.132812 137.039062 218.5 134.441406 218.5 131.746094 C 218.5 129.050781 218.132812 126.453125 217.410156 123.972656 C 214.027344 112.011719 203.003906 103.207031 189.957031 103.207031 Z M 246.738281 140.875 L 238.617188 140.554688 C 236.386719 140.476562 234.359375 141.914062 233.742188 144.105469 C 232.453125 148.714844 230.40625 153.105469 227.679688 157.140625 C 226.402344 159.019531 226.59375 161.480469 228.117188 163.152344 L 233.640625 169.167969 L 223.660156 178.359375 L 218.132812 172.347656 C 218.027344 172.25 217.949219 172.152344 217.84375 172.066406 C 216.304688 170.660156 214.027344 170.390625 212.164062 171.429688 C 210.175781 172.550781 208.113281 173.523438 205.988281 174.308594 C 203.605469 175.210938 201.179688 175.917969 198.6875 176.402344 C 196.453125 176.835938 194.832031 178.699219 194.734375 180.957031 L 194.394531 189.097656 L 180.828125 188.527344 L 181.164062 180.386719 C 181.261719 178.144531 179.789062 176.148438 177.609375 175.535156 C 176.375 175.179688 175.148438 174.78125 173.945312 174.308594 C 170.660156 173.085938 167.515625 171.464844 164.5625 169.46875 C 162.6875 168.191406 160.207031 168.382812 158.570312 169.90625 L 153.792969 174.308594 L 152.550781 175.449219 L 151.496094 174.308594 L 145.484375 167.761719 L 143.359375 165.449219 L 149.359375 159.921875 C 151.011719 158.378906 151.398438 155.9375 150.292969 153.953125 C 147.910156 149.722656 146.238281 145.179688 145.320312 140.476562 C 144.882812 138.246094 143.003906 136.621094 140.761719 136.523438 L 132.621094 136.183594 L 133.175781 122.621094 L 141.316406 122.953125 C 143.527344 123.050781 145.550781 121.597656 146.191406 119.398438 C 147.480469 114.792969 149.519531 110.402344 152.25 106.375 C 153.527344 104.496094 153.34375 102.015625 151.796875 100.351562 L 146.269531 94.339844 L 156.273438 85.148438 L 161.800781 91.140625 C 163.328125 92.804688 165.765625 93.1875 167.742188 92.082031 C 172.003906 89.703125 176.539062 88.027344 181.25 87.105469 C 183.472656 86.671875 185.082031 84.792969 185.179688 82.550781 L 185.519531 74.410156 L 199.085938 74.960938 L 198.75 83.105469 C 198.667969 85.363281 200.136719 87.359375 202.304688 87.980469 C 206.921875 89.269531 211.3125 91.3125 215.351562 94.039062 C 215.984375 94.457031 216.691406 94.726562 217.410156 94.832031 C 218.820312 95.027344 220.277344 94.609375 221.363281 93.589844 L 223.941406 91.210938 L 227.378906 88.058594 L 236.570312 98.0625 L 230.578125 103.59375 C 228.914062 105.109375 228.515625 107.558594 229.640625 109.554688 C 232.015625 113.773438 233.691406 118.3125 234.613281 123.039062 C 235.03125 125.261719 236.921875 126.890625 239.167969 126.96875 L 247.308594 127.3125 Z M 35.953125 167.761719 C 32.085938 167.761719 28.9375 164.613281 28.9375 160.738281 L 28.9375 128.761719 L 101.265625 128.761719 C 106.945312 128.761719 111.585938 124.144531 111.585938 118.445312 L 111.585938 68.398438 C 111.585938 62.71875 106.945312 58.078125 101.265625 58.078125 L 28.9375 58.078125 L 28.9375 49.972656 L 217.410156 49.972656 L 217.410156 87.574219 C 213.644531 85.234375 209.585938 83.375 205.351562 82.046875 L 205.699219 73.574219 C 205.753906 72.265625 205.300781 71.027344 204.429688 70.070312 C 203.539062 69.117188 202.335938 68.546875 201.027344 68.496094 L 184.109375 67.796875 C 181.429688 67.691406 179.15625 69.785156 179.050781 72.46875 L 178.703125 80.960938 C 174.195312 81.949219 169.835938 83.558594 165.722656 85.734375 L 159.957031 79.488281 C 159.066406 78.53125 157.863281 77.964844 156.574219 77.910156 C 155.21875 77.859375 154.007812 78.308594 153.054688 79.199219 L 140.609375 90.675781 C 138.632812 92.480469 138.515625 95.5625 140.328125 97.558594 L 146.085938 103.808594 C 143.574219 107.742188 141.617188 111.949219 140.257812 116.371094 L 131.769531 116.019531 C 129.140625 115.898438 126.824219 117.992188 126.707031 120.6875 L 126.003906 137.589844 C 125.90625 140.292969 128 142.550781 130.675781 142.667969 L 139.167969 143.019531 C 140.15625 147.523438 141.765625 151.878906 143.945312 156.003906 L 137.679688 161.78125 C 136.003906 163.335938 135.648438 165.816406 136.753906 167.761719 Z M 19.253906 118.445312 L 19.253906 68.398438 C 19.253906 66.539062 20.609375 64.980469 22.390625 64.695312 C 22.585938 64.648438 22.808594 64.628906 23.023438 64.628906 L 101.265625 64.628906 C 103.339844 64.628906 105.035156 66.324219 105.035156 68.398438 L 105.035156 118.445312 C 105.035156 120.527344 103.339844 122.214844 101.265625 122.214844 L 23.023438 122.214844 C 22.808594 122.214844 22.585938 122.199219 22.390625 122.148438 C 20.609375 121.867188 19.253906 120.304688 19.253906 118.445312 Z M 28.9375 35.863281 C 28.9375 29.472656 34.148438 24.277344 40.527344 24.277344 L 205.816406 24.277344 C 212.203125 24.277344 217.410156 29.472656 217.410156 35.863281 L 217.410156 43.441406 L 28.9375 43.441406 Z M 249.238281 120.839844 L 240.757812 120.492188 C 239.757812 115.964844 238.148438 111.613281 235.96875 107.511719 L 242.238281 101.726562 C 244.210938 99.921875 244.332031 96.839844 242.519531 94.84375 L 231.046875 82.398438 C 229.222656 80.421875 226.140625 80.304688 224.15625 82.117188 L 223.941406 82.3125 L 223.941406 35.863281 C 223.941406 25.867188 215.820312 17.726562 205.816406 17.726562 L 40.527344 17.726562 C 30.527344 17.726562 22.390625 25.867188 22.390625 35.863281 L 22.390625 58.113281 C 17.011719 58.433594 12.707031 62.933594 12.707031 68.398438 L 12.707031 118.445312 C 12.707031 123.921875 17.011719 128.410156 22.390625 128.730469 L 22.390625 160.738281 C 22.390625 168.210938 28.488281 174.308594 35.953125 174.308594 L 142.605469 174.308594 L 148.867188 181.109375 C 149.757812 182.0625 150.960938 182.621094 152.269531 182.664062 C 153.546875 182.738281 154.8125 182.265625 155.75 181.375 L 162.019531 175.617188 C 165.949219 178.132812 170.15625 180.085938 174.582031 181.460938 L 174.226562 189.933594 C 174.109375 192.617188 176.203125 194.894531 178.898438 195.011719 L 195.800781 195.699219 C 195.871094 195.699219 195.9375 195.71875 196.003906 195.71875 C 197.226562 195.699219 198.398438 195.246094 199.300781 194.421875 C 200.277344 193.539062 200.824219 192.328125 200.878906 191.027344 L 201.230469 182.546875 C 205.71875 181.558594 210.089844 179.957031 214.210938 177.757812 L 219.96875 184.027344 C 220.859375 184.980469 222.050781 185.550781 223.359375 185.597656 C 224.714844 185.628906 225.917969 185.179688 226.859375 184.308594 L 239.304688 172.851562 C 241.28125 171.023438 241.410156 167.945312 239.605469 165.949219 L 233.828125 159.707031 C 236.355469 155.765625 238.296875 151.546875 239.671875 147.144531 L 248.144531 147.488281 C 249.484375 147.5625 250.691406 147.089844 251.644531 146.199219 C 252.601562 145.316406 253.167969 144.125 253.222656 142.816406 L 253.910156 125.898438 C 254.027344 123.234375 251.933594 120.957031 249.238281 120.839844 " fill-opacity="1" fill-rule="nonzero"/></g></svg>