<svg xmlns="http://www.w3.org/2000/svg" xmlns:xlink="http://www.w3.org/1999/xlink" width="153" zoomAndPan="magnify" viewBox="0 0 114.75 95.999999" height="128" preserveAspectRatio="xMidYMid meet" version="1.0"><defs><clipPath id="64577acf80"><path d="M 49.441406 13.757812 L 65.15625 13.757812 L 65.15625 24.984375 L 49.441406 24.984375 Z M 49.441406 13.757812 " clip-rule="nonzero"/></clipPath><clipPath id="8a3b167fd2"><path d="M 15 14 L 104.707031 14 L 104.707031 82 L 15 82 Z M 15 14 " clip-rule="nonzero"/></clipPath><clipPath id="5a23e39743"><path d="M 15 70 L 104.707031 70 L 104.707031 74 L 15 74 Z M 15 70 " clip-rule="nonzero"/></clipPath><clipPath id="c2fcac44aa"><path d="M 41 88 L 79 88 L 79 92.796875 L 41 92.796875 Z M 41 88 " clip-rule="nonzero"/></clipPath><clipPath id="214eeb9e16"><path d="M 44 77 L 53 77 L 53 92.796875 L 44 92.796875 Z M 44 77 " clip-rule="nonzero"/></clipPath><clipPath id="3a87afe16d"><path d="M 67 77 L 75 77 L 75 92.796875 L 67 92.796875 Z M 67 77 " clip-rule="nonzero"/></clipPath></defs><path fill="#ffffff" d="M 59.390625 17.265625 L 56.929688 15.5625 C 56.785156 15.464844 56.664062 15.414062 56.542969 15.414062 C 56.320312 15.414062 56.054688 15.585938 56.054688 16.046875 L 56.054688 19.628906 C 56.054688 20.089844 56.320312 20.261719 56.542969 20.261719 C 56.664062 20.261719 56.808594 20.210938 56.929688 20.113281 L 59.414062 18.410156 C 59.632812 18.265625 59.753906 18.042969 59.753906 17.824219 C 59.730469 17.632812 59.609375 17.410156 59.390625 17.265625 Z M 56.515625 20.015625 L 56.515625 19.773438 Z M 59.121094 18.019531 L 56.636719 19.726562 L 56.542969 19.773438 C 56.542969 19.75 56.515625 19.699219 56.515625 19.628906 L 56.515625 16.046875 C 56.515625 15.976562 56.542969 15.925781 56.542969 15.902344 C 56.566406 15.902344 56.589844 15.925781 56.636719 15.949219 L 59.097656 17.65625 C 59.171875 17.703125 59.21875 17.777344 59.21875 17.851562 C 59.242188 17.921875 59.171875 17.996094 59.121094 18.019531 Z M 59.121094 18.019531 " fill-opacity="1" fill-rule="nonzero"/><g clip-path="url(#64577acf80)"><path fill="#ffffff" d="M 63.601562 13.757812 L 50.890625 13.757812 C 50.113281 13.757812 49.457031 14.417969 49.457031 15.195312 L 49.457031 23.28125 C 49.457031 24.058594 50.113281 24.714844 50.890625 24.714844 L 63.601562 24.714844 C 64.40625 24.714844 65.039062 24.058594 65.039062 23.28125 L 65.039062 15.195312 C 65.039062 14.417969 64.382812 13.757812 63.601562 13.757812 Z M 64.550781 23.28125 C 64.550781 23.816406 64.113281 24.230469 63.601562 24.230469 L 50.890625 24.230469 C 50.382812 24.230469 49.941406 23.789062 49.941406 23.28125 L 49.941406 21.792969 L 61.144531 21.792969 C 61.289062 21.792969 61.386719 21.695312 61.386719 21.550781 C 61.386719 21.40625 61.289062 21.308594 61.144531 21.308594 L 49.941406 21.308594 L 49.941406 15.195312 C 49.941406 14.683594 50.382812 14.246094 50.890625 14.246094 L 63.601562 14.246094 C 64.136719 14.246094 64.550781 14.683594 64.550781 15.195312 L 64.550781 21.308594 L 63.089844 21.308594 C 62.945312 21.308594 62.847656 21.40625 62.847656 21.550781 C 62.847656 21.695312 62.945312 21.792969 63.089844 21.792969 L 64.550781 21.792969 Z M 64.550781 23.28125 " fill-opacity="1" fill-rule="nonzero"/></g><path fill="#ffffff" d="M 52.621094 21.964844 C 52.132812 21.964844 51.746094 22.304688 51.671875 22.769531 L 50.917969 22.769531 C 50.769531 22.769531 50.671875 22.867188 50.671875 23.011719 C 50.671875 23.15625 50.769531 23.253906 50.917969 23.253906 L 51.695312 23.253906 C 51.816406 23.644531 52.183594 23.914062 52.597656 23.914062 C 53.035156 23.914062 53.425781 23.597656 53.523438 23.183594 L 63.308594 23.183594 C 63.457031 23.183594 63.554688 23.085938 63.554688 22.9375 C 63.554688 22.792969 63.457031 22.695312 63.308594 22.695312 L 53.523438 22.695312 C 53.449219 22.28125 53.058594 21.964844 52.621094 21.964844 Z M 52.621094 23.425781 C 52.351562 23.425781 52.132812 23.207031 52.132812 22.9375 C 52.132812 22.671875 52.351562 22.453125 52.621094 22.453125 C 52.890625 22.453125 53.109375 22.671875 53.109375 22.9375 C 53.082031 23.207031 52.890625 23.425781 52.621094 23.425781 Z M 52.621094 23.425781 " fill-opacity="1" fill-rule="nonzero"/><g clip-path="url(#8a3b167fd2)"><path fill="#000000" d="M 100.851562 77.621094 L 18.757812 77.621094 L 18.757812 17.917969 L 66.636719 17.917969 C 67.667969 17.917969 68.503906 17.082031 68.503906 16.050781 C 68.503906 15.019531 67.667969 14.183594 66.636719 14.183594 L 16.894531 14.183594 C 15.863281 14.183594 15.027344 15.019531 15.027344 16.050781 L 15.027344 79.484375 C 15.027344 80.515625 15.863281 81.351562 16.894531 81.351562 L 102.71875 81.351562 C 103.746094 81.351562 104.582031 80.515625 104.582031 79.484375 L 104.582031 16.050781 C 104.582031 15.019531 103.746094 14.183594 102.71875 14.183594 C 101.6875 14.183594 100.851562 15.019531 100.851562 16.050781 Z M 100.851562 77.621094 " fill-opacity="1" fill-rule="nonzero"/></g><g clip-path="url(#5a23e39743)"><path fill="#000000" d="M 16.894531 73.890625 L 102.71875 73.890625 C 103.746094 73.890625 104.582031 73.054688 104.582031 72.023438 C 104.582031 70.992188 103.746094 70.15625 102.71875 70.15625 L 16.894531 70.15625 C 15.863281 70.15625 15.027344 70.992188 15.027344 72.023438 C 15.027344 73.054688 15.863281 73.890625 16.894531 73.890625 Z M 16.894531 73.890625 " fill-opacity="1" fill-rule="nonzero"/></g><g clip-path="url(#c2fcac44aa)"><path fill="#000000" d="M 43.011719 92.546875 L 76.597656 92.546875 C 77.625 92.546875 78.460938 91.710938 78.460938 90.679688 C 78.460938 89.652344 77.625 88.816406 76.597656 88.816406 L 43.011719 88.816406 C 41.984375 88.816406 41.148438 89.652344 41.148438 90.679688 C 41.148438 91.710938 41.984375 92.546875 43.011719 92.546875 Z M 43.011719 92.546875 " fill-opacity="1" fill-rule="nonzero"/></g><g clip-path="url(#214eeb9e16)"><path fill="#000000" d="M 48.511719 91.273438 L 52.246094 80.078125 C 52.574219 79.097656 52.039062 78.039062 51.070312 77.71875 C 50.085938 77.386719 49.027344 77.921875 48.707031 78.894531 L 44.976562 90.085938 C 44.644531 91.070312 45.179688 92.128906 46.152344 92.449219 C 47.132812 92.78125 48.191406 92.246094 48.511719 91.273438 Z M 48.511719 91.273438 " fill-opacity="1" fill-rule="nonzero"/></g><g clip-path="url(#3a87afe16d)"><path fill="#000000" d="M 71.097656 91.273438 L 67.363281 80.078125 C 67.035156 79.097656 67.570312 78.039062 68.539062 77.71875 C 69.523438 77.386719 70.582031 77.921875 70.902344 78.894531 L 74.632812 90.085938 C 74.964844 91.070312 74.429688 92.128906 73.457031 92.449219 C 72.476562 92.78125 71.417969 92.246094 71.097656 91.273438 Z M 71.097656 91.273438 " fill-opacity="1" fill-rule="nonzero"/></g><path fill="#000000" d="M 94.808594 19.734375 L 56.628906 53.257812 C 56.269531 53.570312 54.566406 51.167969 52.671875 49.304688 C 50.613281 47.273438 48.378906 45.738281 48.71875 45.347656 L 82.242188 7.167969 C 85.703125 3.273438 91.523438 3.097656 95.195312 6.78125 C 98.886719 10.464844 98.703125 16.273438 94.808594 19.734375 Z M 92.5625 9.414062 C 90.394531 7.257812 87.070312 7.355469 85.042969 9.636719 L 52.671875 46.496094 L 55.480469 49.304688 L 92.328125 16.945312 C 94.621094 14.902344 94.730469 11.582031 92.5625 9.414062 Z M 92.5625 9.414062 " fill-opacity="1" fill-rule="nonzero"/><path fill="#000000" d="M 32.703125 62.335938 C 31.585938 61.429688 31.867188 59.652344 33.207031 59.136719 C 35.609375 58.222656 36.863281 56.523438 38.554688 52.617188 C 40.070312 49.121094 40.488281 48.304688 41.671875 47.109375 C 45.316406 43.464844 51.222656 43.464844 54.867188 47.109375 C 58.511719 50.75 58.511719 56.660156 54.867188 60.304688 C 49.960938 65.203125 39.097656 67.464844 32.703125 62.335938 Z M 52.226562 57.660156 C 54.410156 55.472656 54.410156 51.9375 52.226562 49.75 C 50.039062 47.5625 46.5 47.5625 44.316406 49.75 C 43.617188 50.449219 43.246094 51.160156 41.984375 54.09375 C 40.613281 57.261719 39.378906 59.371094 37.640625 60.839844 C 42.480469 62.539062 49.144531 60.75 52.226562 57.660156 Z M 52.226562 57.660156 " fill-opacity="1" fill-rule="nonzero"/><path fill="#000000" d="M 56.480469 40.101562 L 61.863281 45.457031 C 62.59375 46.183594 63.769531 46.183594 64.5 45.457031 C 65.226562 44.726562 65.226562 43.542969 64.5 42.8125 L 59.113281 37.457031 C 58.386719 36.730469 57.199219 36.738281 56.472656 37.46875 C 55.742188 38.195312 55.753906 39.371094 56.480469 40.101562 Z M 56.480469 40.101562 " fill-opacity="1" fill-rule="nonzero"/></svg>