<svg xmlns="http://www.w3.org/2000/svg" xmlns:xlink="http://www.w3.org/1999/xlink" width="153" zoomAndPan="magnify" viewBox="0 0 114.75 95.999999" height="128" preserveAspectRatio="xMidYMid meet" version="1.0"><defs><clipPath id="37f3e4e138"><path d="M 49.441406 13.757812 L 65.15625 13.757812 L 65.15625 24.984375 L 49.441406 24.984375 Z M 49.441406 13.757812 " clip-rule="nonzero"/></clipPath><clipPath id="6fab8f6750"><path d="M 54 66 L 83 66 L 83 94.851562 L 54 94.851562 Z M 54 66 " clip-rule="nonzero"/></clipPath><clipPath id="774d02e06f"><path d="M 54 80 L 69 80 L 69 94.851562 L 54 94.851562 Z M 54 80 " clip-rule="nonzero"/></clipPath><clipPath id="e5298a34cf"><path d="M 85 37 L 111.910156 37 L 111.910156 64 L 85 64 Z M 85 37 " clip-rule="nonzero"/></clipPath><clipPath id="5c8628fe01"><path d="M 18.363281 54 L 52 54 L 52 94 L 18.363281 94 Z M 18.363281 54 " clip-rule="nonzero"/></clipPath><clipPath id="baad75dbe1"><path d="M 44 1.304688 L 49 1.304688 L 49 8 L 44 8 Z M 44 1.304688 " clip-rule="nonzero"/></clipPath></defs><path fill="#ffffff" d="M 59.390625 17.265625 L 56.929688 15.5625 C 56.785156 15.464844 56.664062 15.414062 56.542969 15.414062 C 56.320312 15.414062 56.054688 15.585938 56.054688 16.046875 L 56.054688 19.628906 C 56.054688 20.089844 56.320312 20.261719 56.542969 20.261719 C 56.664062 20.261719 56.808594 20.210938 56.929688 20.113281 L 59.414062 18.410156 C 59.632812 18.265625 59.753906 18.042969 59.753906 17.824219 C 59.730469 17.632812 59.609375 17.410156 59.390625 17.265625 Z M 56.515625 20.015625 L 56.515625 19.773438 Z M 59.121094 18.019531 L 56.636719 19.726562 L 56.542969 19.773438 C 56.542969 19.75 56.515625 19.699219 56.515625 19.628906 L 56.515625 16.046875 C 56.515625 15.976562 56.542969 15.925781 56.542969 15.902344 C 56.566406 15.902344 56.589844 15.925781 56.636719 15.949219 L 59.097656 17.65625 C 59.171875 17.703125 59.21875 17.777344 59.21875 17.851562 C 59.242188 17.921875 59.171875 17.996094 59.121094 18.019531 Z M 59.121094 18.019531 " fill-opacity="1" fill-rule="nonzero"/><g clip-path="url(#37f3e4e138)"><path fill="#ffffff" d="M 63.601562 13.757812 L 50.890625 13.757812 C 50.113281 13.757812 49.457031 14.417969 49.457031 15.195312 L 49.457031 23.28125 C 49.457031 24.058594 50.113281 24.714844 50.890625 24.714844 L 63.601562 24.714844 C 64.40625 24.714844 65.039062 24.058594 65.039062 23.28125 L 65.039062 15.195312 C 65.039062 14.417969 64.382812 13.757812 63.601562 13.757812 Z M 64.550781 23.28125 C 64.550781 23.816406 64.113281 24.230469 63.601562 24.230469 L 50.890625 24.230469 C 50.382812 24.230469 49.941406 23.789062 49.941406 23.28125 L 49.941406 21.792969 L 61.144531 21.792969 C 61.289062 21.792969 61.386719 21.695312 61.386719 21.550781 C 61.386719 21.40625 61.289062 21.308594 61.144531 21.308594 L 49.941406 21.308594 L 49.941406 15.195312 C 49.941406 14.683594 50.382812 14.246094 50.890625 14.246094 L 63.601562 14.246094 C 64.136719 14.246094 64.550781 14.683594 64.550781 15.195312 L 64.550781 21.308594 L 63.089844 21.308594 C 62.945312 21.308594 62.847656 21.40625 62.847656 21.550781 C 62.847656 21.695312 62.945312 21.792969 63.089844 21.792969 L 64.550781 21.792969 Z M 64.550781 23.28125 " fill-opacity="1" fill-rule="nonzero"/></g><path fill="#ffffff" d="M 52.621094 21.964844 C 52.132812 21.964844 51.746094 22.304688 51.671875 22.769531 L 50.917969 22.769531 C 50.769531 22.769531 50.671875 22.867188 50.671875 23.011719 C 50.671875 23.15625 50.769531 23.253906 50.917969 23.253906 L 51.695312 23.253906 C 51.816406 23.644531 52.183594 23.914062 52.597656 23.914062 C 53.035156 23.914062 53.425781 23.597656 53.523438 23.183594 L 63.308594 23.183594 C 63.457031 23.183594 63.554688 23.085938 63.554688 22.9375 C 63.554688 22.792969 63.457031 22.695312 63.308594 22.695312 L 53.523438 22.695312 C 53.449219 22.28125 53.058594 21.964844 52.621094 21.964844 Z M 52.621094 23.425781 C 52.351562 23.425781 52.132812 23.207031 52.132812 22.9375 C 52.132812 22.671875 52.351562 22.453125 52.621094 22.453125 C 52.890625 22.453125 53.109375 22.671875 53.109375 22.9375 C 53.082031 23.207031 52.890625 23.425781 52.621094 23.425781 Z M 52.621094 23.425781 " fill-opacity="1" fill-rule="nonzero"/><path fill="#231f20" d="M 80.820312 86.257812 C 80.359375 86.253906 79.96875 86.089844 79.648438 85.761719 L 63.300781 69.398438 C 63.148438 69.242188 63.03125 69.066406 62.945312 68.863281 C 62.863281 68.660156 62.820312 68.453125 62.820312 68.234375 C 62.820312 68.015625 62.863281 67.804688 62.945312 67.601562 C 63.03125 67.402344 63.148438 67.222656 63.300781 67.066406 L 86.671875 43.699219 C 86.828125 43.542969 87.003906 43.425781 87.207031 43.34375 C 87.410156 43.257812 87.617188 43.21875 87.835938 43.21875 C 88.054688 43.21875 88.265625 43.257812 88.46875 43.34375 C 88.667969 43.425781 88.847656 43.542969 89.003906 43.699219 L 105.363281 60.058594 C 105.683594 60.378906 105.84375 60.765625 105.84375 61.21875 C 105.847656 61.675781 105.6875 62.066406 105.363281 62.390625 L 81.996094 85.761719 C 81.671875 86.089844 81.28125 86.253906 80.820312 86.257812 Z M 66.804688 68.242188 L 80.820312 82.257812 L 101.859375 61.21875 L 87.777344 47.203125 Z M 66.804688 68.242188 " fill-opacity="1" fill-rule="nonzero"/><g clip-path="url(#6fab8f6750)"><path fill="#231f20" d="M 55.996094 94.71875 C 55.863281 94.71875 55.734375 94.703125 55.605469 94.671875 C 55.480469 94.640625 55.355469 94.59375 55.242188 94.53125 C 55.125 94.472656 55.015625 94.398438 54.917969 94.3125 C 54.816406 94.222656 54.730469 94.128906 54.652344 94.019531 C 54.578125 93.914062 54.515625 93.796875 54.464844 93.675781 C 54.417969 93.550781 54.386719 93.425781 54.367188 93.296875 C 54.347656 93.164062 54.34375 93.035156 54.359375 92.902344 C 54.371094 92.773438 54.398438 92.644531 54.441406 92.519531 L 62.90625 67.730469 C 62.949219 67.597656 63.011719 67.472656 63.089844 67.355469 C 63.167969 67.242188 63.257812 67.136719 63.363281 67.042969 C 63.464844 66.949219 63.582031 66.871094 63.703125 66.804688 C 63.828125 66.742188 63.957031 66.691406 64.09375 66.660156 C 64.230469 66.628906 64.371094 66.617188 64.507812 66.621094 C 64.648438 66.625 64.785156 66.644531 64.921875 66.683594 C 65.054688 66.722656 65.183594 66.777344 65.304688 66.847656 C 65.421875 66.917969 65.53125 67.003906 65.632812 67.101562 L 81.996094 83.464844 C 82.425781 83.894531 82.574219 84.40625 82.441406 85 C 82.300781 85.597656 81.945312 85.992188 81.367188 86.191406 L 56.574219 94.652344 C 56.386719 94.710938 56.195312 94.730469 55.996094 94.71875 Z M 65.167969 71.28125 L 58.65625 90.40625 L 77.863281 83.894531 Z M 65.167969 71.28125 " fill-opacity="1" fill-rule="nonzero"/></g><g clip-path="url(#774d02e06f)"><path fill="#231f20" d="M 55.996094 94.71875 C 55.863281 94.71875 55.734375 94.703125 55.605469 94.671875 C 55.480469 94.640625 55.355469 94.59375 55.242188 94.53125 C 55.125 94.472656 55.015625 94.398438 54.917969 94.3125 C 54.816406 94.222656 54.730469 94.128906 54.652344 94.019531 C 54.578125 93.914062 54.515625 93.796875 54.464844 93.675781 C 54.417969 93.550781 54.386719 93.425781 54.367188 93.296875 C 54.347656 93.164062 54.34375 93.035156 54.359375 92.902344 C 54.371094 92.773438 54.398438 92.644531 54.441406 92.519531 L 58.113281 81.710938 C 58.238281 81.335938 58.46875 81.046875 58.804688 80.835938 C 59.140625 80.628906 59.503906 80.550781 59.898438 80.605469 C 60.984375 80.742188 62.019531 81.054688 63 81.539062 C 63.984375 82.023438 64.859375 82.652344 65.632812 83.429688 C 67.21875 85.023438 68.160156 86.9375 68.457031 89.164062 C 68.511719 89.558594 68.433594 89.921875 68.226562 90.257812 C 68.015625 90.59375 67.726562 90.824219 67.351562 90.949219 L 56.542969 94.621094 C 56.367188 94.683594 56.183594 94.714844 55.996094 94.71875 Z M 60.773438 84.191406 L 58.65625 90.40625 L 64.871094 88.289062 C 64.539062 87.328125 64.015625 86.488281 63.296875 85.765625 C 62.574219 85.046875 61.734375 84.523438 60.773438 84.191406 Z M 60.773438 84.191406 " fill-opacity="1" fill-rule="nonzero"/></g><g clip-path="url(#e5298a34cf)"><path fill="#231f20" d="M 104.191406 63.5625 L 85.5 44.855469 L 91.347656 39.019531 C 91.582031 38.796875 91.835938 38.601562 92.109375 38.425781 C 92.378906 38.25 92.667969 38.105469 92.96875 37.984375 C 93.265625 37.867188 93.574219 37.773438 93.894531 37.714844 C 94.210938 37.652344 94.53125 37.621094 94.851562 37.621094 C 95.175781 37.621094 95.496094 37.652344 95.8125 37.714844 C 96.128906 37.773438 96.4375 37.867188 96.738281 37.984375 C 97.039062 38.105469 97.324219 38.25 97.597656 38.425781 C 97.871094 38.601562 98.121094 38.796875 98.355469 39.019531 L 110.042969 50.707031 C 110.273438 50.9375 110.476562 51.1875 110.65625 51.457031 C 110.839844 51.726562 110.992188 52.011719 111.113281 52.3125 C 111.238281 52.613281 111.332031 52.925781 111.398438 53.242188 C 111.460938 53.5625 111.492188 53.882812 111.492188 54.210938 C 111.492188 54.535156 111.460938 54.855469 111.398438 55.175781 C 111.332031 55.496094 111.238281 55.804688 111.113281 56.105469 C 110.992188 56.40625 110.839844 56.691406 110.65625 56.960938 C 110.476562 57.234375 110.273438 57.484375 110.042969 57.714844 Z M 90.175781 44.855469 L 104.191406 58.886719 L 107.710938 55.382812 C 107.867188 55.226562 107.988281 55.046875 108.074219 54.84375 C 108.15625 54.640625 108.199219 54.429688 108.199219 54.210938 C 108.199219 53.988281 108.15625 53.777344 108.074219 53.574219 C 107.988281 53.371094 107.867188 53.191406 107.710938 53.035156 L 96.042969 41.351562 C 95.886719 41.199219 95.710938 41.078125 95.507812 40.996094 C 95.304688 40.914062 95.097656 40.871094 94.878906 40.871094 C 94.660156 40.871094 94.449219 40.914062 94.246094 40.996094 C 94.046875 41.078125 93.867188 41.199219 93.710938 41.351562 Z M 90.175781 44.855469 " fill-opacity="1" fill-rule="nonzero"/></g><path fill="#231f20" d="M 80.820312 86.257812 C 80.359375 86.253906 79.96875 86.089844 79.648438 85.761719 L 74.988281 81.101562 C 74.832031 80.945312 74.710938 80.765625 74.625 80.5625 C 74.539062 80.359375 74.496094 80.148438 74.496094 79.925781 C 74.496094 79.707031 74.539062 79.496094 74.625 79.289062 C 74.710938 79.085938 74.832031 78.910156 74.988281 78.753906 L 98.355469 55.382812 C 98.511719 55.230469 98.691406 55.109375 98.890625 55.027344 C 99.09375 54.945312 99.304688 54.902344 99.523438 54.902344 C 99.742188 54.902344 99.949219 54.945312 100.152344 55.027344 C 100.355469 55.109375 100.53125 55.230469 100.6875 55.382812 L 105.363281 60.058594 C 105.683594 60.378906 105.84375 60.765625 105.84375 61.21875 C 105.847656 61.675781 105.6875 62.066406 105.363281 62.390625 L 81.996094 85.761719 C 81.671875 86.089844 81.28125 86.253906 80.820312 86.257812 Z M 78.492188 79.925781 L 80.820312 82.257812 L 101.859375 61.21875 L 99.53125 58.886719 Z M 78.492188 79.925781 " fill-opacity="1" fill-rule="nonzero"/><path fill="#231f20" d="M 69.136719 74.570312 C 68.675781 74.582031 68.277344 74.429688 67.945312 74.109375 L 63.285156 69.429688 C 63.132812 69.277344 63.011719 69.097656 62.929688 68.898438 C 62.847656 68.695312 62.804688 68.484375 62.804688 68.265625 C 62.804688 68.046875 62.847656 67.839844 62.929688 67.636719 C 63.011719 67.433594 63.132812 67.257812 63.285156 67.101562 L 86.671875 43.699219 C 86.828125 43.542969 87.003906 43.425781 87.207031 43.34375 C 87.410156 43.257812 87.617188 43.21875 87.835938 43.21875 C 88.054688 43.21875 88.265625 43.257812 88.46875 43.34375 C 88.667969 43.425781 88.847656 43.542969 89.003906 43.699219 L 93.679688 48.375 C 93.996094 48.695312 94.15625 49.082031 94.160156 49.53125 C 94.160156 49.988281 94 50.382812 93.679688 50.707031 L 70.308594 74.109375 C 69.980469 74.425781 69.589844 74.578125 69.136719 74.570312 Z M 66.804688 68.242188 L 69.136719 70.570312 L 90.175781 49.53125 L 87.777344 47.203125 Z M 66.804688 68.242188 " fill-opacity="1" fill-rule="nonzero"/><g clip-path="url(#5c8628fe01)"><path fill="#231f20" d="M 49.765625 93.941406 L 20.015625 93.941406 C 19.796875 93.941406 19.585938 93.898438 19.382812 93.816406 C 19.179688 93.730469 19.003906 93.613281 18.847656 93.457031 C 18.691406 93.304688 18.574219 93.125 18.488281 92.921875 C 18.40625 92.71875 18.363281 92.507812 18.363281 92.289062 L 18.363281 82.371094 C 18.363281 82.152344 18.40625 81.941406 18.488281 81.738281 C 18.574219 81.539062 18.691406 81.359375 18.847656 81.203125 C 19.003906 81.050781 19.179688 80.929688 19.382812 80.847656 C 19.585938 80.761719 19.796875 80.71875 20.015625 80.71875 L 34.890625 80.71875 L 34.890625 74.109375 L 20.015625 74.109375 C 19.796875 74.109375 19.585938 74.066406 19.382812 73.984375 C 19.179688 73.898438 19.003906 73.78125 18.847656 73.625 C 18.691406 73.46875 18.574219 73.292969 18.488281 73.089844 C 18.40625 72.886719 18.363281 72.675781 18.363281 72.457031 L 18.363281 62.539062 C 18.363281 62.320312 18.40625 62.109375 18.488281 61.90625 C 18.574219 61.703125 18.691406 61.527344 18.847656 61.371094 C 19.003906 61.214844 19.179688 61.097656 19.382812 61.011719 C 19.585938 60.929688 19.796875 60.886719 20.015625 60.886719 L 44.808594 60.886719 L 44.808594 55.929688 C 44.808594 55.710938 44.847656 55.5 44.933594 55.296875 C 45.015625 55.09375 45.136719 54.914062 45.292969 54.761719 C 45.445312 54.605469 45.625 54.484375 45.828125 54.402344 C 46.03125 54.316406 46.242188 54.277344 46.460938 54.277344 C 46.679688 54.277344 46.890625 54.316406 47.09375 54.402344 C 47.296875 54.484375 47.472656 54.605469 47.628906 54.761719 C 47.785156 54.914062 47.902344 55.09375 47.988281 55.296875 C 48.070312 55.5 48.113281 55.710938 48.113281 55.929688 L 48.113281 62.539062 C 48.113281 62.757812 48.070312 62.96875 47.988281 63.171875 C 47.902344 63.375 47.785156 63.554688 47.628906 63.707031 C 47.472656 63.863281 47.296875 63.984375 47.09375 64.066406 C 46.890625 64.148438 46.679688 64.191406 46.460938 64.191406 L 21.667969 64.191406 L 21.667969 70.804688 L 36.542969 70.804688 C 36.761719 70.804688 36.972656 70.84375 37.175781 70.929688 C 37.378906 71.011719 37.558594 71.132812 37.710938 71.289062 C 37.867188 71.441406 37.988281 71.621094 38.070312 71.824219 C 38.15625 72.027344 38.195312 72.238281 38.195312 72.457031 L 38.195312 82.371094 C 38.195312 82.59375 38.15625 82.800781 38.070312 83.003906 C 37.988281 83.207031 37.867188 83.386719 37.710938 83.542969 C 37.558594 83.695312 37.378906 83.816406 37.175781 83.898438 C 36.972656 83.984375 36.761719 84.027344 36.542969 84.027344 L 21.667969 84.027344 L 21.667969 90.636719 L 49.765625 90.636719 C 49.984375 90.636719 50.195312 90.679688 50.398438 90.761719 C 50.601562 90.847656 50.78125 90.964844 50.933594 91.121094 C 51.089844 91.277344 51.207031 91.453125 51.292969 91.65625 C 51.375 91.859375 51.417969 92.070312 51.417969 92.289062 C 51.417969 92.507812 51.375 92.71875 51.292969 92.921875 C 51.207031 93.125 51.089844 93.304688 50.933594 93.457031 C 50.78125 93.613281 50.601562 93.730469 50.398438 93.816406 C 50.195312 93.898438 49.984375 93.941406 49.765625 93.941406 Z M 49.765625 93.941406 " fill-opacity="1" fill-rule="nonzero"/></g><path fill="#231f20" d="M 53.070312 44.359375 L 39.847656 44.359375 C 39.628906 44.359375 39.417969 44.316406 39.214844 44.234375 C 39.015625 44.148438 38.835938 44.03125 38.679688 43.875 C 38.527344 43.71875 38.40625 43.542969 38.320312 43.339844 C 38.238281 43.136719 38.195312 42.925781 38.195312 42.707031 L 38.195312 39.402344 C 38.191406 38.847656 37.964844 38.40625 37.519531 38.078125 C 37.03125 37.707031 36.570312 37.304688 36.132812 36.878906 C 35.695312 36.449219 35.285156 35.992188 34.90625 35.515625 C 34.523438 35.035156 34.175781 34.53125 33.855469 34.011719 C 33.535156 33.488281 33.25 32.945312 33 32.386719 C 32.746094 31.832031 32.527344 31.257812 32.347656 30.675781 C 32.164062 30.089844 32.019531 29.496094 31.910156 28.890625 C 31.804688 28.289062 31.734375 27.683594 31.699219 27.070312 C 31.667969 26.457031 31.671875 25.847656 31.710938 25.234375 C 31.753906 24.625 31.835938 24.019531 31.953125 23.417969 C 32.070312 22.816406 32.222656 22.222656 32.414062 21.640625 C 32.601562 21.058594 32.828125 20.492188 33.089844 19.9375 C 33.347656 19.382812 33.644531 18.847656 33.96875 18.328125 C 34.296875 17.808594 34.652344 17.3125 35.042969 16.839844 C 35.429688 16.367188 35.84375 15.917969 36.289062 15.496094 C 36.730469 15.070312 37.199219 14.679688 37.691406 14.3125 C 38.183594 13.949219 38.695312 13.613281 39.230469 13.3125 C 39.761719 13.011719 40.3125 12.746094 40.878906 12.511719 C 41.445312 12.277344 42.023438 12.078125 42.613281 11.917969 C 43.203125 11.753906 43.804688 11.628906 44.410156 11.542969 C 45.015625 11.453125 45.625 11.402344 46.238281 11.390625 C 46.851562 11.375 47.460938 11.402344 48.070312 11.464844 C 48.679688 11.527344 49.28125 11.625 49.878906 11.761719 C 50.476562 11.898438 51.0625 12.074219 51.640625 12.28125 C 52.214844 12.492188 52.773438 12.738281 53.320312 13.015625 C 53.867188 13.292969 54.390625 13.605469 54.898438 13.949219 C 55.40625 14.292969 55.890625 14.667969 56.351562 15.070312 C 56.8125 15.472656 57.246094 15.902344 57.652344 16.359375 C 58.0625 16.816406 58.441406 17.296875 58.789062 17.800781 C 59.136719 18.304688 59.453125 18.828125 59.734375 19.371094 C 60.019531 19.914062 60.269531 20.472656 60.484375 21.046875 C 60.699219 21.621094 60.875 22.207031 61.019531 22.800781 C 61.160156 23.398438 61.265625 24 61.335938 24.609375 C 61.46875 25.886719 61.4375 27.164062 61.242188 28.433594 C 61.046875 29.707031 60.691406 30.929688 60.175781 32.109375 C 59.660156 33.289062 59.007812 34.382812 58.207031 35.390625 C 57.410156 36.398438 56.496094 37.289062 55.46875 38.0625 C 55.027344 38.394531 54.804688 38.832031 54.804688 39.382812 L 54.804688 42.691406 C 54.808594 42.917969 54.765625 43.136719 54.679688 43.347656 C 54.589844 43.558594 54.464844 43.742188 54.300781 43.898438 C 54.136719 44.058594 53.945312 44.175781 53.734375 44.257812 C 53.519531 44.335938 53.300781 44.371094 53.070312 44.359375 Z M 41.5 41.054688 L 51.417969 41.054688 L 51.417969 39.402344 C 51.421875 38.625 51.597656 37.886719 51.945312 37.191406 C 52.292969 36.496094 52.78125 35.917969 53.402344 35.449219 C 53.769531 35.171875 54.121094 34.875 54.457031 34.554688 C 54.789062 34.234375 55.101562 33.898438 55.394531 33.539062 C 55.6875 33.183594 55.960938 32.808594 56.207031 32.421875 C 56.457031 32.03125 56.679688 31.628906 56.878906 31.210938 C 57.082031 30.796875 57.253906 30.367188 57.40625 29.929688 C 57.554688 29.496094 57.675781 29.050781 57.769531 28.597656 C 57.867188 28.144531 57.933594 27.691406 57.976562 27.230469 C 58.015625 26.769531 58.03125 26.308594 58.015625 25.847656 C 58.003906 25.386719 57.960938 24.925781 57.890625 24.46875 C 57.824219 24.011719 57.726562 23.5625 57.605469 23.117188 C 57.480469 22.671875 57.332031 22.234375 57.15625 21.808594 C 56.980469 21.378906 56.78125 20.964844 56.554688 20.5625 C 56.328125 20.160156 56.082031 19.769531 55.808594 19.394531 C 55.539062 19.023438 55.246094 18.667969 54.929688 18.328125 C 54.617188 17.988281 54.28125 17.671875 53.929688 17.371094 C 53.578125 17.074219 53.207031 16.796875 52.824219 16.542969 C 52.101562 16.066406 51.335938 15.671875 50.523438 15.367188 C 49.714844 15.058594 48.878906 14.847656 48.019531 14.730469 C 47.164062 14.609375 46.300781 14.589844 45.4375 14.664062 C 44.574219 14.738281 43.730469 14.90625 42.90625 15.171875 C 41.824219 15.507812 40.8125 15.996094 39.871094 16.632812 C 38.933594 17.269531 38.105469 18.03125 37.394531 18.914062 C 36.679688 19.796875 36.109375 20.761719 35.683594 21.816406 C 35.257812 22.867188 34.992188 23.957031 34.890625 25.089844 C 34.804688 26.070312 34.84375 27.050781 35.007812 28.023438 C 35.167969 28.996094 35.449219 29.933594 35.851562 30.835938 C 36.25 31.738281 36.757812 32.574219 37.371094 33.347656 C 37.984375 34.121094 38.683594 34.804688 39.46875 35.402344 C 40.105469 35.867188 40.605469 36.453125 40.964844 37.15625 C 41.320312 37.863281 41.5 38.609375 41.5 39.402344 Z M 41.5 41.054688 " fill-opacity="1" fill-rule="nonzero"/><path fill="#231f20" d="M 49.765625 50.96875 L 43.15625 50.96875 C 42.828125 50.96875 42.507812 50.9375 42.1875 50.875 C 41.867188 50.8125 41.558594 50.71875 41.257812 50.59375 C 40.957031 50.46875 40.671875 50.316406 40.398438 50.132812 C 40.128906 49.953125 39.878906 49.75 39.648438 49.519531 C 39.417969 49.289062 39.210938 49.039062 39.03125 48.765625 C 38.851562 48.496094 38.699219 48.210938 38.574219 47.910156 C 38.449219 47.609375 38.355469 47.296875 38.292969 46.980469 C 38.226562 46.660156 38.195312 46.335938 38.195312 46.011719 L 38.195312 42.707031 C 38.195312 42.488281 38.238281 42.277344 38.320312 42.074219 C 38.40625 41.871094 38.527344 41.691406 38.679688 41.539062 C 38.835938 41.382812 39.015625 41.261719 39.214844 41.179688 C 39.417969 41.09375 39.628906 41.054688 39.847656 41.054688 L 53.070312 41.054688 C 53.289062 41.054688 53.5 41.09375 53.703125 41.179688 C 53.90625 41.261719 54.085938 41.382812 54.238281 41.539062 C 54.394531 41.691406 54.515625 41.871094 54.597656 42.074219 C 54.683594 42.277344 54.722656 42.488281 54.722656 42.707031 L 54.722656 46.011719 C 54.722656 46.335938 54.691406 46.660156 54.628906 46.980469 C 54.566406 47.296875 54.472656 47.609375 54.347656 47.910156 C 54.222656 48.210938 54.070312 48.496094 53.886719 48.765625 C 53.707031 49.039062 53.5 49.289062 53.273438 49.519531 C 53.042969 49.75 52.792969 49.953125 52.519531 50.132812 C 52.25 50.316406 51.964844 50.46875 51.664062 50.59375 C 51.363281 50.71875 51.050781 50.8125 50.734375 50.875 C 50.414062 50.9375 50.089844 50.96875 49.765625 50.96875 Z M 41.5 44.359375 L 41.5 46.011719 C 41.5 46.230469 41.542969 46.441406 41.628906 46.644531 C 41.710938 46.847656 41.832031 47.027344 41.984375 47.179688 C 42.140625 47.335938 42.320312 47.453125 42.523438 47.539062 C 42.726562 47.621094 42.933594 47.664062 43.15625 47.664062 L 49.765625 47.664062 C 49.984375 47.664062 50.195312 47.621094 50.398438 47.539062 C 50.601562 47.453125 50.78125 47.335938 50.933594 47.179688 C 51.089844 47.027344 51.207031 46.847656 51.292969 46.644531 C 51.375 46.441406 51.417969 46.230469 51.417969 46.011719 L 51.417969 44.359375 Z M 41.5 44.359375 " fill-opacity="1" fill-rule="nonzero"/><g clip-path="url(#baad75dbe1)"><path fill="#231f20" d="M 46.460938 8 C 46.242188 8 46.03125 7.957031 45.828125 7.871094 C 45.625 7.789062 45.445312 7.667969 45.292969 7.515625 C 45.136719 7.359375 45.015625 7.179688 44.933594 6.976562 C 44.847656 6.777344 44.808594 6.566406 44.808594 6.347656 L 44.808594 3.039062 C 44.808594 2.820312 44.847656 2.609375 44.933594 2.40625 C 45.015625 2.207031 45.136719 2.027344 45.292969 1.871094 C 45.445312 1.714844 45.625 1.597656 45.828125 1.511719 C 46.03125 1.429688 46.242188 1.386719 46.460938 1.386719 C 46.679688 1.386719 46.890625 1.429688 47.09375 1.511719 C 47.296875 1.597656 47.472656 1.714844 47.628906 1.871094 C 47.785156 2.027344 47.902344 2.207031 47.988281 2.40625 C 48.070312 2.609375 48.113281 2.820312 48.113281 3.039062 L 48.113281 6.347656 C 48.113281 6.566406 48.070312 6.777344 47.988281 6.976562 C 47.902344 7.179688 47.785156 7.359375 47.628906 7.515625 C 47.472656 7.667969 47.296875 7.789062 47.09375 7.871094 C 46.890625 7.957031 46.679688 8 46.460938 8 Z M 46.460938 8 " fill-opacity="1" fill-rule="nonzero"/></g><path fill="#231f20" d="M 32.429688 13.800781 C 31.976562 13.796875 31.589844 13.636719 31.269531 13.320312 L 28.925781 10.988281 C 28.769531 10.835938 28.648438 10.65625 28.566406 10.453125 C 28.480469 10.25 28.4375 10.035156 28.4375 9.816406 C 28.4375 9.597656 28.480469 9.386719 28.566406 9.183594 C 28.648438 8.980469 28.769531 8.800781 28.925781 8.644531 C 29.082031 8.488281 29.261719 8.367188 29.464844 8.285156 C 29.667969 8.199219 29.878906 8.15625 30.097656 8.15625 C 30.316406 8.15625 30.53125 8.199219 30.734375 8.285156 C 30.9375 8.367188 31.117188 8.488281 31.269531 8.644531 L 33.601562 10.988281 C 33.753906 11.144531 33.875 11.324219 33.957031 11.523438 C 34.039062 11.726562 34.082031 11.9375 34.082031 12.15625 C 34.082031 12.375 34.039062 12.582031 33.957031 12.785156 C 33.875 12.988281 33.753906 13.164062 33.601562 13.320312 C 33.277344 13.640625 32.886719 13.800781 32.429688 13.800781 Z M 32.429688 13.800781 " fill-opacity="1" fill-rule="nonzero"/><path fill="#231f20" d="M 26.628906 27.832031 L 23.320312 27.832031 C 23.101562 27.832031 22.890625 27.789062 22.6875 27.707031 C 22.488281 27.621094 22.308594 27.503906 22.152344 27.347656 C 21.996094 27.191406 21.878906 27.015625 21.792969 26.8125 C 21.710938 26.609375 21.667969 26.398438 21.667969 26.179688 C 21.667969 25.960938 21.710938 25.75 21.792969 25.546875 C 21.878906 25.34375 21.996094 25.164062 22.152344 25.011719 C 22.308594 24.855469 22.488281 24.734375 22.6875 24.652344 C 22.890625 24.566406 23.101562 24.527344 23.320312 24.527344 L 26.628906 24.527344 C 26.847656 24.527344 27.058594 24.566406 27.257812 24.652344 C 27.460938 24.734375 27.640625 24.855469 27.796875 25.011719 C 27.949219 25.164062 28.070312 25.34375 28.152344 25.546875 C 28.238281 25.75 28.28125 25.960938 28.28125 26.179688 C 28.28125 26.398438 28.238281 26.609375 28.152344 26.8125 C 28.070312 27.015625 27.949219 27.191406 27.796875 27.347656 C 27.640625 27.503906 27.460938 27.621094 27.257812 27.707031 C 27.058594 27.789062 26.847656 27.832031 26.628906 27.832031 Z M 26.628906 27.832031 " fill-opacity="1" fill-rule="nonzero"/><path fill="#231f20" d="M 30.097656 44.195312 C 29.640625 44.195312 29.25 44.035156 28.925781 43.714844 C 28.769531 43.558594 28.648438 43.378906 28.5625 43.175781 C 28.476562 42.972656 28.433594 42.761719 28.433594 42.542969 C 28.433594 42.320312 28.476562 42.109375 28.5625 41.90625 C 28.648438 41.703125 28.769531 41.523438 28.925781 41.367188 L 31.269531 39.039062 C 31.421875 38.863281 31.601562 38.726562 31.808594 38.625 C 32.015625 38.523438 32.234375 38.46875 32.460938 38.460938 C 32.691406 38.453125 32.914062 38.488281 33.128906 38.574219 C 33.34375 38.65625 33.53125 38.78125 33.695312 38.945312 C 33.859375 39.105469 33.980469 39.296875 34.066406 39.507812 C 34.148438 39.722656 34.1875 39.945312 34.179688 40.175781 C 34.167969 40.40625 34.113281 40.625 34.015625 40.832031 C 33.914062 41.039062 33.777344 41.21875 33.601562 41.367188 L 31.269531 43.714844 C 30.945312 44.035156 30.554688 44.195312 30.097656 44.195312 Z M 30.097656 44.195312 " fill-opacity="1" fill-rule="nonzero"/><path fill="#231f20" d="M 62.824219 44.195312 C 62.363281 44.195312 61.972656 44.035156 61.648438 43.714844 L 59.320312 41.367188 C 59.144531 41.21875 59.007812 41.039062 58.90625 40.832031 C 58.804688 40.625 58.75 40.40625 58.742188 40.175781 C 58.734375 39.945312 58.769531 39.722656 58.855469 39.507812 C 58.9375 39.296875 59.0625 39.105469 59.226562 38.945312 C 59.386719 38.78125 59.578125 38.65625 59.789062 38.574219 C 60.003906 38.488281 60.226562 38.453125 60.457031 38.460938 C 60.6875 38.46875 60.90625 38.523438 61.113281 38.625 C 61.320312 38.726562 61.5 38.863281 61.648438 39.039062 L 63.996094 41.367188 C 64.152344 41.523438 64.273438 41.703125 64.359375 41.90625 C 64.441406 42.109375 64.484375 42.320312 64.484375 42.542969 C 64.484375 42.761719 64.441406 42.972656 64.359375 43.175781 C 64.273438 43.378906 64.152344 43.558594 63.996094 43.714844 C 63.671875 44.035156 63.28125 44.195312 62.824219 44.195312 Z M 62.824219 44.195312 " fill-opacity="1" fill-rule="nonzero"/><path fill="#231f20" d="M 69.597656 27.832031 L 66.292969 27.832031 C 66.074219 27.832031 65.863281 27.789062 65.660156 27.707031 C 65.457031 27.621094 65.28125 27.503906 65.125 27.347656 C 64.96875 27.191406 64.851562 27.015625 64.765625 26.8125 C 64.683594 26.609375 64.640625 26.398438 64.640625 26.179688 C 64.640625 25.960938 64.683594 25.75 64.765625 25.546875 C 64.851562 25.34375 64.96875 25.164062 65.125 25.011719 C 65.28125 24.855469 65.457031 24.734375 65.660156 24.652344 C 65.863281 24.566406 66.074219 24.527344 66.292969 24.527344 L 69.597656 24.527344 C 69.816406 24.527344 70.027344 24.566406 70.230469 24.652344 C 70.433594 24.734375 70.613281 24.855469 70.765625 25.011719 C 70.921875 25.164062 71.042969 25.34375 71.125 25.546875 C 71.210938 25.75 71.25 25.960938 71.25 26.179688 C 71.25 26.398438 71.210938 26.609375 71.125 26.8125 C 71.042969 27.015625 70.921875 27.191406 70.765625 27.347656 C 70.613281 27.503906 70.433594 27.621094 70.230469 27.707031 C 70.027344 27.789062 69.816406 27.832031 69.597656 27.832031 Z M 69.597656 27.832031 " fill-opacity="1" fill-rule="nonzero"/><path fill="#231f20" d="M 60.492188 13.800781 C 60.035156 13.800781 59.644531 13.640625 59.320312 13.320312 C 59.164062 13.164062 59.046875 12.988281 58.964844 12.785156 C 58.878906 12.582031 58.839844 12.375 58.839844 12.15625 C 58.839844 11.9375 58.878906 11.726562 58.964844 11.523438 C 59.046875 11.324219 59.164062 11.144531 59.320312 10.988281 L 61.648438 8.644531 C 61.804688 8.488281 61.984375 8.367188 62.1875 8.285156 C 62.390625 8.199219 62.601562 8.15625 62.820312 8.15625 C 63.042969 8.15625 63.253906 8.199219 63.457031 8.285156 C 63.660156 8.367188 63.839844 8.488281 63.996094 8.644531 C 64.152344 8.800781 64.269531 8.980469 64.355469 9.183594 C 64.4375 9.386719 64.480469 9.597656 64.480469 9.816406 C 64.480469 10.035156 64.4375 10.25 64.355469 10.453125 C 64.269531 10.65625 64.152344 10.835938 63.996094 10.988281 L 61.648438 13.320312 C 61.328125 13.636719 60.941406 13.796875 60.492188 13.800781 Z M 60.492188 13.800781 " fill-opacity="1" fill-rule="nonzero"/><path fill="#231f20" d="M 53.070312 27.832031 C 52.851562 27.832031 52.640625 27.789062 52.4375 27.707031 C 52.234375 27.621094 52.058594 27.503906 51.902344 27.347656 C 51.746094 27.191406 51.628906 27.015625 51.542969 26.8125 C 51.460938 26.609375 51.417969 26.398438 51.417969 26.179688 C 51.417969 25.851562 51.386719 25.53125 51.324219 25.210938 C 51.257812 24.890625 51.164062 24.582031 51.042969 24.28125 C 50.917969 23.980469 50.765625 23.695312 50.582031 23.425781 C 50.402344 23.152344 50.195312 22.902344 49.964844 22.671875 C 49.734375 22.441406 49.484375 22.238281 49.214844 22.054688 C 48.945312 21.875 48.660156 21.722656 48.359375 21.597656 C 48.058594 21.472656 47.746094 21.378906 47.425781 21.316406 C 47.109375 21.253906 46.785156 21.21875 46.460938 21.21875 C 46.242188 21.21875 46.03125 21.179688 45.828125 21.09375 C 45.625 21.011719 45.445312 20.890625 45.292969 20.738281 C 45.136719 20.582031 45.015625 20.402344 44.933594 20.199219 C 44.847656 19.996094 44.808594 19.785156 44.808594 19.566406 C 44.808594 19.347656 44.847656 19.136719 44.933594 18.933594 C 45.015625 18.734375 45.136719 18.554688 45.292969 18.398438 C 45.445312 18.246094 45.625 18.125 45.828125 18.039062 C 46.03125 17.957031 46.242188 17.914062 46.460938 17.914062 C 47.003906 17.914062 47.539062 17.96875 48.074219 18.074219 C 48.605469 18.179688 49.121094 18.335938 49.621094 18.542969 C 50.125 18.75 50.601562 19.007812 51.050781 19.308594 C 51.503906 19.609375 51.917969 19.953125 52.304688 20.335938 C 52.6875 20.71875 53.03125 21.136719 53.332031 21.585938 C 53.632812 22.039062 53.886719 22.515625 54.09375 23.015625 C 54.300781 23.519531 54.460938 24.035156 54.566406 24.566406 C 54.671875 25.097656 54.722656 25.636719 54.722656 26.179688 C 54.722656 26.398438 54.683594 26.609375 54.597656 26.8125 C 54.515625 27.015625 54.394531 27.191406 54.238281 27.347656 C 54.085938 27.503906 53.90625 27.621094 53.703125 27.707031 C 53.5 27.789062 53.289062 27.832031 53.070312 27.832031 Z M 53.070312 27.832031 " fill-opacity="1" fill-rule="nonzero"/></svg>