<svg xmlns="http://www.w3.org/2000/svg" xmlns:xlink="http://www.w3.org/1999/xlink" width="153" zoomAndPan="magnify" viewBox="0 0 114.75 95.999999" height="128" preserveAspectRatio="xMidYMid meet" version="1.0"><defs><clipPath id="3289f5c191"><path d="M 49.441406 13.757812 L 65.15625 13.757812 L 65.15625 24.984375 L 49.441406 24.984375 Z M 49.441406 13.757812 " clip-rule="nonzero"/></clipPath><clipPath id="fc5831062f"><path d="M 67 43 L 110.425781 43 L 110.425781 85.988281 L 67 85.988281 Z M 67 43 " clip-rule="nonzero"/></clipPath><clipPath id="498eb2e39e"><path d="M 6.402344 27 L 14 27 L 14 34 L 6.402344 34 Z M 6.402344 27 " clip-rule="nonzero"/></clipPath><clipPath id="1132e93406"><path d="M 28 77 L 47 77 L 47 85.988281 L 28 85.988281 Z M 28 77 " clip-rule="nonzero"/></clipPath><clipPath id="69906e13a7"><path d="M 35 4.414062 L 91 4.414062 L 91 36 L 35 36 Z M 35 4.414062 " clip-rule="nonzero"/></clipPath></defs><path fill="#ffffff" d="M 59.390625 17.265625 L 56.929688 15.5625 C 56.785156 15.464844 56.664062 15.414062 56.542969 15.414062 C 56.320312 15.414062 56.054688 15.585938 56.054688 16.046875 L 56.054688 19.628906 C 56.054688 20.089844 56.320312 20.261719 56.542969 20.261719 C 56.664062 20.261719 56.808594 20.210938 56.929688 20.113281 L 59.414062 18.410156 C 59.632812 18.265625 59.753906 18.042969 59.753906 17.824219 C 59.730469 17.632812 59.609375 17.410156 59.390625 17.265625 Z M 56.515625 20.015625 L 56.515625 19.773438 Z M 59.121094 18.019531 L 56.636719 19.726562 L 56.542969 19.773438 C 56.542969 19.75 56.515625 19.699219 56.515625 19.628906 L 56.515625 16.046875 C 56.515625 15.976562 56.542969 15.925781 56.542969 15.902344 C 56.566406 15.902344 56.589844 15.925781 56.636719 15.949219 L 59.097656 17.65625 C 59.171875 17.703125 59.21875 17.777344 59.21875 17.851562 C 59.242188 17.921875 59.171875 17.996094 59.121094 18.019531 Z M 59.121094 18.019531 " fill-opacity="1" fill-rule="nonzero"/><g clip-path="url(#3289f5c191)"><path fill="#ffffff" d="M 63.601562 13.757812 L 50.890625 13.757812 C 50.113281 13.757812 49.457031 14.417969 49.457031 15.195312 L 49.457031 23.28125 C 49.457031 24.058594 50.113281 24.714844 50.890625 24.714844 L 63.601562 24.714844 C 64.40625 24.714844 65.039062 24.058594 65.039062 23.28125 L 65.039062 15.195312 C 65.039062 14.417969 64.382812 13.757812 63.601562 13.757812 Z M 64.550781 23.28125 C 64.550781 23.816406 64.113281 24.230469 63.601562 24.230469 L 50.890625 24.230469 C 50.382812 24.230469 49.941406 23.789062 49.941406 23.28125 L 49.941406 21.792969 L 61.144531 21.792969 C 61.289062 21.792969 61.386719 21.695312 61.386719 21.550781 C 61.386719 21.40625 61.289062 21.308594 61.144531 21.308594 L 49.941406 21.308594 L 49.941406 15.195312 C 49.941406 14.683594 50.382812 14.246094 50.890625 14.246094 L 63.601562 14.246094 C 64.136719 14.246094 64.550781 14.683594 64.550781 15.195312 L 64.550781 21.308594 L 63.089844 21.308594 C 62.945312 21.308594 62.847656 21.40625 62.847656 21.550781 C 62.847656 21.695312 62.945312 21.792969 63.089844 21.792969 L 64.550781 21.792969 Z M 64.550781 23.28125 " fill-opacity="1" fill-rule="nonzero"/></g><path fill="#ffffff" d="M 52.621094 21.964844 C 52.132812 21.964844 51.746094 22.304688 51.671875 22.769531 L 50.917969 22.769531 C 50.769531 22.769531 50.671875 22.867188 50.671875 23.011719 C 50.671875 23.15625 50.769531 23.253906 50.917969 23.253906 L 51.695312 23.253906 C 51.816406 23.644531 52.183594 23.914062 52.597656 23.914062 C 53.035156 23.914062 53.425781 23.597656 53.523438 23.183594 L 63.308594 23.183594 C 63.457031 23.183594 63.554688 23.085938 63.554688 22.9375 C 63.554688 22.792969 63.457031 22.695312 63.308594 22.695312 L 53.523438 22.695312 C 53.449219 22.28125 53.058594 21.964844 52.621094 21.964844 Z M 52.621094 23.425781 C 52.351562 23.425781 52.132812 23.207031 52.132812 22.9375 C 52.132812 22.671875 52.351562 22.453125 52.621094 22.453125 C 52.890625 22.453125 53.109375 22.671875 53.109375 22.9375 C 53.082031 23.207031 52.890625 23.425781 52.621094 23.425781 Z M 52.621094 23.425781 " fill-opacity="1" fill-rule="nonzero"/><path fill="#000000" d="M 88.878906 73.859375 C 83.832031 73.859375 79.695312 69.792969 79.695312 64.640625 C 79.695312 59.546875 83.832031 55.421875 88.878906 55.421875 C 93.925781 55.421875 98.183594 59.546875 98.183594 64.640625 C 98.183594 69.792969 94.046875 73.859375 88.878906 73.859375 Z M 88.878906 58.453125 C 85.472656 58.453125 82.675781 61.183594 82.675781 64.699219 C 82.675781 68.277344 85.472656 71.007812 88.878906 71.007812 C 92.34375 71.007812 95.203125 68.277344 95.203125 64.699219 C 95.203125 61.183594 92.34375 58.453125 88.878906 58.453125 Z M 88.878906 58.453125 " fill-opacity="1" fill-rule="evenodd"/><g clip-path="url(#fc5831062f)"><path fill="#000000" d="M 92.527344 85.988281 L 85.292969 85.988281 C 84.441406 85.988281 83.769531 85.320312 83.769531 84.472656 L 83.769531 80.953125 C 82.738281 80.589844 81.824219 80.164062 80.914062 79.742188 L 78.480469 82.226562 C 77.871094 82.773438 76.960938 82.773438 76.351562 82.226562 L 71.183594 77.195312 C 70.941406 76.890625 70.757812 76.464844 70.757812 76.164062 C 70.757812 75.800781 70.941406 75.375 71.183594 75.132812 L 73.675781 72.707031 C 73.128906 71.796875 72.824219 70.765625 72.460938 69.855469 L 68.933594 69.855469 C 68.082031 69.855469 67.414062 69.1875 67.414062 68.339844 L 67.414062 61.121094 C 67.414062 60.273438 68.082031 59.605469 68.933594 59.605469 L 72.582031 59.605469 C 72.824219 58.695312 73.25 57.664062 73.738281 56.753906 L 71.183594 54.207031 C 70.941406 53.964844 70.757812 53.539062 70.757812 53.238281 C 70.757812 52.875 70.941406 52.449219 71.183594 52.207031 L 76.351562 47.171875 C 76.960938 46.566406 77.871094 46.566406 78.480469 47.171875 L 80.972656 49.539062 C 81.886719 48.992188 82.859375 48.566406 83.832031 48.324219 L 83.832031 44.867188 C 83.832031 44.078125 84.5 43.414062 85.351562 43.414062 L 92.589844 43.414062 C 93.441406 43.414062 94.109375 44.078125 94.109375 44.867188 L 94.109375 48.445312 C 95.144531 48.75 96.054688 49.175781 96.96875 49.597656 L 99.460938 47.171875 C 100.007812 46.566406 100.917969 46.566406 101.527344 47.171875 L 106.574219 52.207031 C 106.816406 52.449219 107 52.875 107 53.238281 C 107 53.539062 106.816406 53.964844 106.574219 54.207031 L 104.140625 56.632812 C 104.628906 57.605469 105.054688 58.574219 105.417969 59.546875 L 108.886719 59.546875 C 109.738281 59.546875 110.40625 60.210938 110.40625 61.0625 L 110.40625 68.277344 C 110.40625 69.128906 109.738281 69.792969 108.886719 69.792969 L 105.417969 69.792969 C 105.054688 70.765625 104.628906 71.796875 104.265625 72.644531 L 106.695312 75.070312 C 106.941406 75.3125 107.121094 75.738281 107.121094 76.101562 C 107.121094 76.40625 106.941406 76.828125 106.695312 77.074219 L 101.648438 82.105469 C 101.042969 82.710938 100.128906 82.710938 99.519531 82.105469 L 97.089844 79.679688 C 96.238281 80.164062 95.203125 80.53125 94.230469 80.832031 L 94.230469 84.410156 C 94.046875 85.320312 93.378906 85.988281 92.527344 85.988281 Z M 86.8125 83.078125 L 91.066406 83.078125 L 91.066406 79.921875 C 91.066406 79.253906 91.492188 78.648438 92.164062 78.527344 C 93.867188 78.101562 95.203125 77.496094 96.417969 76.769531 C 96.96875 76.34375 97.757812 76.40625 98.242188 76.890625 L 100.554688 79.074219 L 103.535156 76.101562 L 101.285156 73.859375 C 100.796875 73.371094 100.675781 72.644531 101.101562 72.039062 C 101.953125 70.765625 102.5625 69.371094 102.867188 67.914062 C 103.046875 67.246094 103.65625 66.761719 104.324219 66.761719 L 107.425781 66.761719 L 107.425781 62.457031 L 104.324219 62.457031 C 103.65625 62.457031 103.046875 61.972656 102.867188 61.304688 C 102.5625 59.847656 101.953125 58.515625 101.101562 57.179688 C 100.796875 56.574219 100.859375 55.84375 101.285156 55.300781 L 103.535156 53.054688 L 100.554688 50.023438 L 98.242188 52.207031 C 97.757812 52.691406 96.96875 52.8125 96.480469 52.449219 C 95.203125 51.722656 93.804688 51.113281 92.285156 50.691406 C 91.617188 50.507812 91.191406 49.960938 91.191406 49.296875 L 91.191406 46.140625 L 86.871094 46.140625 L 86.871094 49.296875 C 86.871094 49.960938 86.445312 50.507812 85.777344 50.691406 C 84.257812 51.054688 82.917969 51.601562 81.582031 52.449219 C 80.972656 52.8125 80.246094 52.691406 79.820312 52.207031 L 77.507812 49.960938 L 74.46875 52.933594 L 76.65625 55.179688 C 77.203125 55.664062 77.265625 56.332031 76.960938 56.9375 C 76.109375 58.332031 75.5 59.789062 75.257812 61.121094 C 75.074219 61.789062 74.46875 62.273438 73.796875 62.273438 L 70.636719 62.273438 L 70.636719 66.582031 L 73.796875 66.582031 C 74.46875 66.582031 75.074219 67.066406 75.257812 67.734375 C 75.5625 69.1875 76.167969 70.582031 76.960938 71.855469 C 77.265625 72.464844 77.203125 73.191406 76.65625 73.617188 L 74.46875 75.800781 L 77.507812 78.832031 L 79.820312 76.585938 C 80.304688 76.101562 81.035156 75.980469 81.582031 76.34375 C 82.917969 77.195312 84.257812 77.738281 85.777344 78.101562 C 86.445312 78.285156 86.871094 78.832031 86.871094 79.5 L 86.871094 83.078125 Z M 86.8125 83.078125 " fill-opacity="1" fill-rule="evenodd"/></g><path fill="#000000" d="M 46.921875 70.21875 C 46.070312 70.21875 45.398438 69.492188 45.398438 68.703125 C 45.398438 57.363281 48.199219 53.664062 50.628906 50.386719 C 52.515625 47.902344 53.914062 45.960938 53.914062 40.925781 C 53.914062 31.890625 46.496094 24.488281 37.433594 24.488281 C 28.3125 24.488281 20.894531 31.890625 20.894531 40.925781 C 20.894531 45.960938 22.351562 47.902344 24.175781 50.386719 C 26.609375 53.664062 29.40625 57.363281 29.40625 68.703125 C 29.40625 69.492188 28.738281 70.21875 27.886719 70.21875 C 27.035156 70.21875 26.367188 69.492188 26.367188 68.703125 C 26.367188 58.332031 23.996094 55.179688 21.746094 52.144531 C 19.921875 49.597656 17.851562 46.992188 17.851562 40.925781 C 17.851562 30.25 26.550781 21.519531 37.3125 21.519531 C 48.136719 21.519531 56.773438 30.191406 56.773438 40.925781 C 56.773438 46.992188 54.886719 49.597656 52.941406 52.144531 C 50.628906 55.179688 48.320312 58.332031 48.320312 68.703125 C 48.441406 69.492188 47.773438 70.21875 46.921875 70.21875 Z M 46.921875 70.21875 " fill-opacity="1" fill-rule="evenodd"/><path fill="#000000" d="M 26.0625 45.171875 C 25.210938 45.171875 24.542969 44.503906 24.542969 43.65625 C 24.542969 35.164062 31.414062 28.25 39.925781 28.25 C 40.777344 28.25 41.449219 28.917969 41.449219 29.765625 C 41.449219 30.617188 40.777344 31.28125 39.925781 31.28125 C 33.054688 31.28125 27.460938 36.800781 27.460938 43.714844 C 27.460938 44.503906 26.792969 45.171875 26.0625 45.171875 Z M 26.0625 45.171875 " fill-opacity="1" fill-rule="evenodd"/><path fill="#000000" d="M 51.847656 22.488281 C 51.601562 22.488281 51.296875 22.367188 51.054688 22.308594 C 50.386719 21.882812 50.144531 21.035156 50.507812 20.304688 L 53 15.878906 C 53.425781 15.210938 54.277344 14.96875 55.007812 15.332031 C 55.675781 15.757812 55.980469 16.605469 55.617188 17.332031 L 53.0625 21.699219 C 52.820312 22.183594 52.332031 22.488281 51.847656 22.488281 Z M 51.847656 22.488281 " fill-opacity="1" fill-rule="evenodd"/><path fill="#000000" d="M 62.425781 33.042969 C 61.941406 33.042969 61.453125 32.800781 61.210938 32.3125 C 60.785156 31.648438 61.027344 30.675781 61.757812 30.25 L 66.136719 27.765625 C 66.804688 27.339844 67.777344 27.582031 68.203125 28.371094 C 68.570312 29.039062 68.324219 29.949219 67.597656 30.375 L 63.21875 32.859375 C 62.972656 32.980469 62.671875 33.042969 62.425781 33.042969 Z M 62.425781 33.042969 " fill-opacity="1" fill-rule="evenodd"/><path fill="#000000" d="M 23.023438 22.488281 C 22.535156 22.488281 21.988281 22.183594 21.746094 21.699219 L 19.25 17.332031 C 18.824219 16.667969 19.070312 15.757812 19.800781 15.332031 C 20.46875 14.90625 21.441406 15.148438 21.804688 15.878906 L 24.359375 20.304688 C 24.785156 20.972656 24.542969 21.882812 23.75 22.308594 C 23.507812 22.488281 23.265625 22.488281 23.023438 22.488281 Z M 23.023438 22.488281 " fill-opacity="1" fill-rule="evenodd"/><g clip-path="url(#498eb2e39e)"><path fill="#000000" d="M 12.5 33.042969 C 12.257812 33.042969 11.953125 32.980469 11.710938 32.859375 L 7.332031 30.375 C 6.664062 29.949219 6.421875 29.097656 6.726562 28.371094 C 7.152344 27.644531 8.003906 27.402344 8.792969 27.765625 L 13.171875 30.25 C 13.839844 30.675781 14.082031 31.527344 13.71875 32.3125 C 13.476562 32.738281 12.988281 33.042969 12.5 33.042969 Z M 12.5 33.042969 " fill-opacity="1" fill-rule="evenodd"/></g><path fill="#000000" d="M 49.898438 75.496094 C 49.046875 75.496094 48.378906 74.828125 48.378906 73.980469 C 48.378906 73.128906 49.046875 72.464844 49.898438 72.464844 C 50.507812 72.464844 50.996094 71.976562 50.996094 71.3125 C 50.996094 70.582031 50.507812 70.21875 49.898438 70.21875 L 24.96875 70.21875 C 24.300781 70.21875 23.875 70.703125 23.875 71.3125 C 23.875 71.976562 24.359375 72.464844 24.96875 72.464844 C 25.820312 72.464844 26.488281 73.128906 26.488281 73.980469 C 26.488281 74.828125 25.820312 75.496094 24.96875 75.496094 C 22.65625 75.496094 20.894531 73.617188 20.894531 71.371094 C 20.894531 69.128906 22.777344 67.308594 24.96875 67.308594 L 49.898438 67.308594 C 52.148438 67.308594 53.914062 69.1875 53.914062 71.371094 C 54.035156 73.617188 52.148438 75.496094 49.898438 75.496094 Z M 49.898438 75.496094 " fill-opacity="1" fill-rule="evenodd"/><path fill="#000000" d="M 49.898438 80.773438 L 24.96875 80.773438 C 22.65625 80.773438 20.894531 78.953125 20.894531 76.648438 C 20.894531 74.402344 22.777344 72.644531 24.96875 72.644531 L 49.898438 72.644531 C 52.148438 72.644531 53.914062 74.464844 53.914062 76.648438 C 54.035156 78.832031 52.148438 80.773438 49.898438 80.773438 Z M 24.96875 75.496094 C 24.300781 75.496094 23.875 75.980469 23.875 76.585938 C 23.875 77.253906 24.359375 77.738281 24.96875 77.738281 L 49.898438 77.738281 C 50.507812 77.738281 50.996094 77.253906 50.996094 76.585938 C 50.996094 75.921875 50.507812 75.496094 49.898438 75.496094 Z M 24.96875 75.496094 " fill-opacity="1" fill-rule="evenodd"/><g clip-path="url(#1132e93406)"><path fill="#000000" d="M 39.378906 85.988281 L 35.550781 85.988281 C 31.839844 85.988281 28.800781 82.957031 28.800781 79.253906 C 28.800781 78.40625 29.527344 77.738281 30.320312 77.738281 C 31.171875 77.738281 31.839844 78.40625 31.839844 79.253906 C 31.839844 81.378906 33.542969 83.078125 35.671875 83.078125 L 39.441406 83.078125 C 41.570312 83.078125 43.210938 81.378906 43.210938 79.253906 C 43.210938 78.40625 43.878906 77.738281 44.730469 77.738281 C 45.582031 77.738281 46.25 78.40625 46.25 79.253906 C 46.070312 82.957031 43.089844 85.988281 39.378906 85.988281 Z M 39.378906 85.988281 " fill-opacity="1" fill-rule="evenodd"/></g><path fill="#000000" d="M 37.433594 70.21875 C 36.582031 70.21875 35.914062 69.492188 35.914062 68.703125 L 35.914062 53.722656 C 35.914062 53.238281 36.15625 52.691406 36.644531 52.449219 L 42.542969 49.113281 C 43.210938 48.6875 44.183594 48.929688 44.609375 49.597656 C 44.972656 50.265625 44.730469 51.175781 44.0625 51.601562 L 38.953125 54.570312 L 38.953125 68.761719 C 38.953125 69.492188 38.285156 70.21875 37.433594 70.21875 Z M 37.433594 70.21875 " fill-opacity="1" fill-rule="evenodd"/><path fill="#000000" d="M 37.433594 55.179688 C 37.191406 55.179688 36.886719 55.058594 36.644531 54.996094 L 30.867188 51.601562 C 30.199219 51.175781 29.894531 50.265625 30.320312 49.597656 C 30.746094 48.929688 31.71875 48.6875 32.386719 49.113281 L 38.164062 52.449219 C 38.832031 52.875 39.074219 53.785156 38.710938 54.449219 C 38.40625 54.875 37.921875 55.179688 37.433594 55.179688 Z M 37.433594 55.179688 " fill-opacity="1" fill-rule="evenodd"/><g clip-path="url(#69906e13a7)"><path fill="#000000" d="M 88.878906 35.710938 C 88.027344 35.710938 87.359375 35.042969 87.359375 34.253906 L 87.359375 11.816406 C 87.359375 9.328125 85.351562 7.328125 82.917969 7.328125 L 43.394531 7.328125 C 40.898438 7.328125 38.832031 9.328125 38.832031 11.816406 L 38.832031 23.15625 C 38.832031 23.945312 38.164062 24.671875 37.3125 24.671875 C 36.523438 24.671875 35.792969 23.945312 35.792969 23.15625 L 35.792969 11.816406 C 35.792969 7.691406 39.199219 4.414062 43.332031 4.414062 L 82.859375 4.414062 C 86.933594 4.414062 90.277344 7.691406 90.277344 11.816406 L 90.277344 34.316406 C 90.398438 35.042969 89.730469 35.710938 88.878906 35.710938 Z M 88.878906 35.710938 " fill-opacity="1" fill-rule="evenodd"/></g><path fill="#000000" d="M 88.878906 35.710938 C 88.574219 35.710938 88.148438 35.589844 87.90625 35.347656 L 80.667969 28.070312 C 80.0625 27.523438 80.0625 26.550781 80.667969 26.007812 C 81.21875 25.398438 82.191406 25.398438 82.738281 26.007812 L 88.878906 32.132812 L 95.019531 26.007812 C 95.628906 25.398438 96.542969 25.398438 97.148438 26.007812 C 97.757812 26.550781 97.757812 27.523438 97.148438 28.070312 L 89.914062 35.347656 C 89.667969 35.589844 89.304688 35.710938 88.878906 35.710938 Z M 88.878906 35.710938 " fill-opacity="1" fill-rule="evenodd"/></svg>