<svg xmlns="http://www.w3.org/2000/svg" xmlns:xlink="http://www.w3.org/1999/xlink" width="350" zoomAndPan="magnify" viewBox="0 0 262.5 209.999996" height="280" preserveAspectRatio="xMidYMid meet" version="1.0"><defs><clipPath id="b8a8305397"><path d="M 12.769531 34 L 51 34 L 51 72 L 12.769531 72 Z M 12.769531 34 " clip-rule="nonzero"/></clipPath><clipPath id="93fbaf7089"><path d="M 12.769531 5.292969 L 51 5.292969 L 51 28 L 12.769531 28 Z M 12.769531 5.292969 " clip-rule="nonzero"/></clipPath><clipPath id="6cb062eceb"><path d="M 113 5.292969 L 151 5.292969 L 151 28 L 113 28 Z M 113 5.292969 " clip-rule="nonzero"/></clipPath><clipPath id="9291855d8d"><path d="M 102 109 L 250.816406 109 L 250.816406 162 L 102 162 Z M 102 109 " clip-rule="nonzero"/></clipPath><clipPath id="4d30288403"><path d="M 131 183 L 169 183 L 169 205.910156 L 131 205.910156 Z M 131 183 " clip-rule="nonzero"/></clipPath><clipPath id="5c5f9c18bc"><path d="M 180 183 L 218 183 L 218 205.910156 L 180 205.910156 Z M 180 183 " clip-rule="nonzero"/></clipPath><clipPath id="4c5839a52c"><path d="M 213 34 L 250.816406 34 L 250.816406 72 L 213 72 Z M 213 34 " clip-rule="nonzero"/></clipPath><clipPath id="de245675f7"><path d="M 213 5.292969 L 250.816406 5.292969 L 250.816406 28 L 213 28 Z M 213 5.292969 " clip-rule="nonzero"/></clipPath></defs><path fill="#000000" d="M 42.589844 49.730469 L 221 49.730469 L 221 57.175781 L 42.589844 57.175781 Z M 42.589844 49.730469 " fill-opacity="1" fill-rule="nonzero"/><path fill="#f65555" d="M 46.3125 53.453125 C 46.3125 54.429688 46.21875 55.394531 46.027344 56.351562 C 45.835938 57.308594 45.554688 58.238281 45.183594 59.140625 C 44.808594 60.039062 44.351562 60.898438 43.808594 61.707031 C 43.265625 62.519531 42.648438 63.269531 41.960938 63.960938 C 41.269531 64.648438 40.519531 65.265625 39.707031 65.808594 C 38.894531 66.347656 38.039062 66.804688 37.136719 67.179688 C 36.234375 67.554688 35.304688 67.835938 34.347656 68.023438 C 33.390625 68.214844 32.421875 68.3125 31.445312 68.3125 C 30.46875 68.3125 29.503906 68.214844 28.546875 68.023438 C 27.589844 67.835938 26.660156 67.554688 25.757812 67.179688 C 24.855469 66.804688 23.996094 66.347656 23.1875 65.808594 C 22.375 65.265625 21.625 64.648438 20.933594 63.960938 C 20.242188 63.269531 19.625 62.519531 19.085938 61.707031 C 18.542969 60.898438 18.085938 60.039062 17.710938 59.140625 C 17.335938 58.238281 17.054688 57.308594 16.863281 56.351562 C 16.675781 55.394531 16.578125 54.429688 16.578125 53.453125 C 16.578125 52.476562 16.675781 51.511719 16.863281 50.554688 C 17.054688 49.597656 17.335938 48.667969 17.710938 47.769531 C 18.085938 46.867188 18.542969 46.011719 19.085938 45.199219 C 19.625 44.390625 20.242188 43.636719 20.933594 42.949219 C 21.625 42.257812 22.375 41.644531 23.1875 41.101562 C 23.996094 40.558594 24.855469 40.101562 25.757812 39.726562 C 26.660156 39.355469 27.589844 39.074219 28.546875 38.882812 C 29.503906 38.691406 30.46875 38.597656 31.445312 38.597656 C 32.421875 38.597656 33.390625 38.691406 34.347656 38.882812 C 35.304688 39.074219 36.234375 39.355469 37.136719 39.726562 C 38.039062 40.101562 38.894531 40.558594 39.707031 41.101562 C 40.519531 41.644531 41.269531 42.257812 41.960938 42.949219 C 42.648438 43.636719 43.265625 44.390625 43.808594 45.199219 C 44.351562 46.011719 44.808594 46.867188 45.183594 47.769531 C 45.554688 48.667969 45.835938 49.597656 46.027344 50.554688 C 46.21875 51.511719 46.3125 52.476562 46.3125 53.453125 Z M 46.3125 53.453125 " fill-opacity="1" fill-rule="nonzero"/><g clip-path="url(#b8a8305397)"><path fill="#000000" d="M 31.445312 72 C 21.195312 72 12.855469 63.664062 12.855469 53.421875 C 12.855469 43.175781 21.195312 34.839844 31.445312 34.839844 C 41.699219 34.839844 50.039062 43.175781 50.039062 53.421875 C 50.007812 63.664062 41.699219 72 31.445312 72 Z M 31.445312 42.285156 C 25.28125 42.285156 20.304688 47.292969 20.304688 53.421875 C 20.304688 59.582031 25.316406 64.554688 31.445312 64.554688 C 37.609375 64.554688 42.589844 59.546875 42.589844 53.421875 C 42.589844 47.292969 37.578125 42.285156 31.445312 42.285156 Z M 31.445312 42.285156 " fill-opacity="1" fill-rule="nonzero"/></g><path fill="#71869f" d="M 42.6875 23.707031 L 20.203125 23.707031 C 18.195312 23.707031 16.578125 22.09375 16.578125 20.082031 L 16.578125 12.472656 C 16.578125 10.464844 18.195312 8.851562 20.203125 8.851562 L 42.6875 8.851562 C 44.699219 8.851562 46.3125 10.464844 46.3125 12.472656 L 46.3125 20.082031 C 46.3125 22.09375 44.699219 23.707031 42.6875 23.707031 Z M 42.6875 23.707031 " fill-opacity="1" fill-rule="nonzero"/><g clip-path="url(#93fbaf7089)"><path fill="#000000" d="M 38.863281 27.429688 L 23.996094 27.429688 C 17.832031 27.429688 12.855469 22.421875 12.855469 16.296875 C 12.855469 10.136719 17.863281 5.160156 23.996094 5.160156 L 38.863281 5.160156 C 45.027344 5.160156 50.007812 10.167969 50.007812 16.296875 C 50.007812 22.457031 45.027344 27.429688 38.863281 27.429688 Z M 23.996094 12.574219 C 21.953125 12.574219 20.269531 14.253906 20.269531 16.296875 C 20.269531 18.335938 21.953125 20.019531 23.996094 20.019531 L 38.863281 20.019531 C 40.90625 20.019531 42.589844 18.335938 42.589844 16.296875 C 42.589844 14.253906 40.90625 12.574219 38.863281 12.574219 Z M 23.996094 12.574219 " fill-opacity="1" fill-rule="nonzero"/></g><path fill="#f65555" d="M 146.660156 53.453125 C 146.660156 54.429688 146.566406 55.394531 146.375 56.351562 C 146.183594 57.308594 145.902344 58.238281 145.527344 59.140625 C 145.15625 60.039062 144.699219 60.898438 144.15625 61.707031 C 143.613281 62.519531 142.996094 63.269531 142.304688 63.960938 C 141.617188 64.648438 140.863281 65.265625 140.054688 65.808594 C 139.242188 66.347656 138.386719 66.804688 137.484375 67.179688 C 136.582031 67.554688 135.652344 67.835938 134.695312 68.023438 C 133.738281 68.214844 132.769531 68.3125 131.792969 68.3125 C 130.816406 68.3125 129.851562 68.214844 128.894531 68.023438 C 127.933594 67.835938 127.003906 67.554688 126.105469 67.179688 C 125.203125 66.804688 124.34375 66.347656 123.535156 65.808594 C 122.722656 65.265625 121.972656 64.648438 121.28125 63.960938 C 120.589844 63.269531 119.972656 62.519531 119.429688 61.707031 C 118.890625 60.898438 118.429688 60.039062 118.058594 59.140625 C 117.683594 58.238281 117.402344 57.308594 117.210938 56.351562 C 117.019531 55.394531 116.925781 54.429688 116.925781 53.453125 C 116.925781 52.476562 117.019531 51.511719 117.210938 50.554688 C 117.402344 49.597656 117.683594 48.667969 118.058594 47.769531 C 118.429688 46.867188 118.890625 46.011719 119.429688 45.199219 C 119.972656 44.390625 120.589844 43.636719 121.28125 42.949219 C 121.972656 42.257812 122.722656 41.644531 123.535156 41.101562 C 124.34375 40.558594 125.203125 40.101562 126.105469 39.726562 C 127.003906 39.355469 127.933594 39.074219 128.894531 38.882812 C 129.851562 38.691406 130.816406 38.597656 131.792969 38.597656 C 132.769531 38.597656 133.738281 38.691406 134.695312 38.882812 C 135.652344 39.074219 136.582031 39.355469 137.484375 39.726562 C 138.386719 40.101562 139.242188 40.558594 140.054688 41.101562 C 140.863281 41.644531 141.617188 42.257812 142.304688 42.949219 C 142.996094 43.636719 143.613281 44.390625 144.15625 45.199219 C 144.699219 46.011719 145.15625 46.867188 145.527344 47.769531 C 145.902344 48.667969 146.183594 49.597656 146.375 50.554688 C 146.566406 51.511719 146.660156 52.476562 146.660156 53.453125 Z M 146.660156 53.453125 " fill-opacity="1" fill-rule="nonzero"/><path fill="#000000" d="M 131.792969 72 C 121.542969 72 113.199219 63.664062 113.199219 53.421875 C 113.199219 43.175781 121.542969 34.839844 131.792969 34.839844 C 142.046875 34.839844 150.386719 43.175781 150.386719 53.421875 C 150.386719 63.664062 142.046875 72 131.792969 72 Z M 131.792969 42.285156 C 125.628906 42.285156 120.652344 47.292969 120.652344 53.421875 C 120.652344 59.582031 125.660156 64.554688 131.792969 64.554688 C 137.957031 64.554688 142.9375 59.546875 142.9375 53.421875 C 142.9375 47.292969 137.957031 42.285156 131.792969 42.285156 Z M 131.792969 42.285156 " fill-opacity="1" fill-rule="nonzero"/><path fill="#71869f" d="M 143.035156 23.707031 L 120.550781 23.707031 C 118.542969 23.707031 116.925781 22.09375 116.925781 20.082031 L 116.925781 12.472656 C 116.925781 10.464844 118.542969 8.851562 120.550781 8.851562 L 143.035156 8.851562 C 145.046875 8.851562 146.660156 10.464844 146.660156 12.472656 L 146.660156 20.082031 C 146.660156 22.09375 145.046875 23.707031 143.035156 23.707031 Z M 143.035156 23.707031 " fill-opacity="1" fill-rule="nonzero"/><g clip-path="url(#6cb062eceb)"><path fill="#000000" d="M 139.242188 27.429688 L 124.375 27.429688 C 118.210938 27.429688 113.234375 22.421875 113.234375 16.296875 C 113.234375 10.136719 118.246094 5.160156 124.375 5.160156 L 139.242188 5.160156 C 145.410156 5.160156 150.386719 10.167969 150.386719 16.296875 C 150.386719 22.457031 145.375 27.429688 139.242188 27.429688 Z M 124.34375 12.574219 C 122.300781 12.574219 120.617188 14.253906 120.617188 16.296875 C 120.617188 18.335938 122.300781 20.019531 124.34375 20.019531 L 139.210938 20.019531 C 141.253906 20.019531 142.9375 18.335938 142.9375 16.296875 C 142.9375 14.253906 141.253906 12.574219 139.210938 12.574219 Z M 124.34375 12.574219 " fill-opacity="1" fill-rule="nonzero"/></g><path fill="#000000" d="M 187.539062 116.570312 L 76.046875 116.570312 C 65.796875 116.570312 57.457031 108.238281 57.457031 97.992188 L 57.457031 68.277344 C 57.457031 62.117188 52.445312 57.144531 46.3125 57.144531 L 42.589844 57.144531 L 42.589844 49.730469 L 46.3125 49.730469 C 56.566406 49.730469 64.90625 58.066406 64.90625 68.3125 L 64.90625 98.023438 C 64.90625 104.183594 69.917969 109.160156 76.046875 109.160156 L 187.570312 109.160156 C 193.703125 109.160156 198.714844 104.152344 198.714844 98.023438 L 198.714844 68.3125 C 198.714844 58.066406 207.054688 49.730469 217.304688 49.730469 L 221.03125 49.730469 L 221.03125 57.144531 L 217.304688 57.144531 C 211.140625 57.144531 206.164062 62.152344 206.164062 68.277344 L 206.164062 97.992188 C 206.128906 108.238281 197.789062 116.570312 187.539062 116.570312 Z M 187.539062 116.570312 " fill-opacity="1" fill-rule="nonzero"/><path fill="#000000" d="M 213.582031 161.140625 L 209.855469 161.140625 L 209.855469 153.730469 L 213.582031 153.730469 C 219.710938 153.730469 224.722656 148.722656 224.722656 142.59375 L 224.722656 68.277344 C 224.722656 58.03125 233.0625 49.699219 243.316406 49.699219 L 247.042969 49.699219 L 247.042969 57.109375 L 243.316406 57.109375 C 237.183594 57.109375 232.171875 62.117188 232.171875 68.246094 L 232.171875 142.53125 C 232.140625 152.808594 223.800781 161.140625 213.582031 161.140625 Z M 213.582031 161.140625 " fill-opacity="1" fill-rule="nonzero"/><g clip-path="url(#9291855d8d)"><path fill="#000000" d="M 250.734375 161.140625 L 135.519531 161.140625 C 125.265625 161.140625 116.925781 152.808594 116.925781 142.5625 L 116.925781 127.707031 C 116.925781 121.546875 111.914062 116.570312 105.785156 116.570312 L 102.058594 116.570312 L 102.058594 109.125 L 105.785156 109.125 C 116.035156 109.125 124.375 117.460938 124.375 127.707031 L 124.375 142.5625 C 124.375 148.722656 129.386719 153.695312 135.519531 153.695312 L 250.734375 153.695312 Z M 250.734375 161.140625 " fill-opacity="1" fill-rule="nonzero"/></g><path fill="#2ed9f5" d="M 105.785156 112.882812 C 105.785156 113.855469 105.6875 114.824219 105.496094 115.78125 C 105.308594 116.738281 105.027344 117.664062 104.652344 118.566406 C 104.277344 119.46875 103.820312 120.324219 103.277344 121.136719 C 102.734375 121.945312 102.121094 122.695312 101.429688 123.386719 C 100.738281 124.078125 99.988281 124.691406 99.175781 125.234375 C 98.363281 125.777344 97.507812 126.234375 96.605469 126.609375 C 95.703125 126.980469 94.773438 127.261719 93.816406 127.453125 C 92.859375 127.644531 91.890625 127.738281 90.917969 127.738281 C 89.941406 127.738281 88.972656 127.644531 88.015625 127.453125 C 87.058594 127.261719 86.128906 126.980469 85.226562 126.609375 C 84.324219 126.234375 83.46875 125.777344 82.65625 125.234375 C 81.84375 124.691406 81.09375 124.078125 80.402344 123.386719 C 79.714844 122.695312 79.097656 121.945312 78.554688 121.136719 C 78.011719 120.324219 77.554688 119.46875 77.179688 118.566406 C 76.808594 117.664062 76.523438 116.738281 76.335938 115.78125 C 76.144531 114.824219 76.046875 113.855469 76.046875 112.882812 C 76.046875 111.90625 76.144531 110.941406 76.335938 109.984375 C 76.523438 109.027344 76.808594 108.097656 77.179688 107.195312 C 77.554688 106.292969 78.011719 105.4375 78.554688 104.628906 C 79.097656 103.816406 79.714844 103.066406 80.402344 102.375 C 81.09375 101.6875 81.84375 101.070312 82.65625 100.527344 C 83.46875 99.988281 84.324219 99.527344 85.226562 99.15625 C 86.128906 98.78125 87.058594 98.5 88.015625 98.308594 C 88.972656 98.121094 89.941406 98.023438 90.917969 98.023438 C 91.890625 98.023438 92.859375 98.121094 93.816406 98.308594 C 94.773438 98.5 95.703125 98.78125 96.605469 99.15625 C 97.507812 99.527344 98.363281 99.988281 99.175781 100.527344 C 99.988281 101.070312 100.738281 101.6875 101.429688 102.375 C 102.121094 103.066406 102.734375 103.816406 103.277344 104.628906 C 103.820312 105.4375 104.277344 106.292969 104.652344 107.195312 C 105.027344 108.097656 105.308594 109.027344 105.496094 109.984375 C 105.6875 110.941406 105.785156 111.90625 105.785156 112.882812 Z M 105.785156 112.882812 " fill-opacity="1" fill-rule="nonzero"/><path fill="#000000" d="M 90.917969 131.429688 C 80.664062 131.429688 72.324219 123.09375 72.324219 112.847656 C 72.324219 102.605469 80.664062 94.269531 90.917969 94.269531 C 101.167969 94.269531 109.507812 102.605469 109.507812 112.847656 C 109.507812 123.09375 101.167969 131.429688 90.917969 131.429688 Z M 90.917969 101.714844 C 84.75 101.714844 79.773438 106.722656 79.773438 112.847656 C 79.773438 118.976562 84.785156 123.984375 90.917969 123.984375 C 97.046875 123.984375 102.058594 118.976562 102.058594 112.847656 C 102.058594 106.722656 97.046875 101.714844 90.917969 101.714844 Z M 90.917969 101.714844 " fill-opacity="1" fill-rule="nonzero"/><path fill="#d1f7ff" d="M 102.15625 83.167969 L 79.675781 83.167969 C 77.664062 83.167969 76.046875 81.554688 76.046875 79.542969 L 76.046875 71.933594 C 76.046875 69.925781 77.664062 68.3125 79.675781 68.3125 L 102.15625 68.3125 C 104.167969 68.3125 105.785156 69.925781 105.785156 71.933594 L 105.785156 79.542969 C 105.785156 81.519531 104.167969 83.167969 102.15625 83.167969 Z M 102.15625 83.167969 " fill-opacity="1" fill-rule="nonzero"/><path fill="#000000" d="M 98.332031 86.855469 L 83.464844 86.855469 C 77.300781 86.855469 72.324219 81.851562 72.324219 75.722656 C 72.324219 69.5625 77.335938 64.589844 83.464844 64.589844 L 98.332031 64.589844 C 104.464844 64.589844 109.476562 69.59375 109.476562 75.722656 C 109.507812 81.882812 104.496094 86.855469 98.332031 86.855469 Z M 83.464844 72 C 81.421875 72 79.742188 73.679688 79.742188 75.722656 C 79.742188 77.765625 81.421875 79.445312 83.464844 79.445312 L 98.332031 79.445312 C 100.378906 79.445312 102.058594 77.765625 102.058594 75.722656 C 102.058594 73.679688 100.378906 72 98.332031 72 Z M 83.464844 72 " fill-opacity="1" fill-rule="nonzero"/><path fill="#2ed9f5" d="M 187.539062 112.882812 C 187.539062 113.855469 187.441406 114.824219 187.253906 115.78125 C 187.0625 116.738281 186.78125 117.664062 186.40625 118.566406 C 186.03125 119.46875 185.574219 120.324219 185.03125 121.136719 C 184.492188 121.945312 183.875 122.695312 183.183594 123.386719 C 182.492188 124.078125 181.742188 124.691406 180.929688 125.234375 C 180.117188 125.777344 179.261719 126.234375 178.359375 126.609375 C 177.457031 126.980469 176.527344 127.261719 175.570312 127.453125 C 174.613281 127.644531 173.648438 127.738281 172.671875 127.738281 C 171.695312 127.738281 170.726562 127.644531 169.769531 127.453125 C 168.8125 127.261719 167.882812 126.980469 166.980469 126.609375 C 166.078125 126.234375 165.222656 125.777344 164.410156 125.234375 C 163.597656 124.691406 162.847656 124.078125 162.15625 123.386719 C 161.46875 122.695312 160.851562 121.945312 160.308594 121.136719 C 159.765625 120.324219 159.308594 119.46875 158.933594 118.566406 C 158.5625 117.664062 158.28125 116.738281 158.089844 115.78125 C 157.898438 114.824219 157.804688 113.855469 157.804688 112.882812 C 157.804688 111.90625 157.898438 110.941406 158.089844 109.984375 C 158.28125 109.027344 158.5625 108.097656 158.933594 107.195312 C 159.308594 106.292969 159.765625 105.4375 160.308594 104.628906 C 160.851562 103.816406 161.46875 103.066406 162.15625 102.375 C 162.847656 101.6875 163.597656 101.070312 164.410156 100.527344 C 165.222656 99.988281 166.078125 99.527344 166.980469 99.15625 C 167.882812 98.78125 168.8125 98.5 169.769531 98.308594 C 170.726562 98.121094 171.695312 98.023438 172.671875 98.023438 C 173.648438 98.023438 174.613281 98.121094 175.570312 98.308594 C 176.527344 98.5 177.457031 98.78125 178.359375 99.15625 C 179.261719 99.527344 180.117188 99.988281 180.929688 100.527344 C 181.742188 101.070312 182.492188 101.6875 183.183594 102.375 C 183.875 103.066406 184.492188 103.816406 185.03125 104.628906 C 185.574219 105.4375 186.03125 106.292969 186.40625 107.195312 C 186.78125 108.097656 187.0625 109.027344 187.253906 109.984375 C 187.441406 110.941406 187.539062 111.90625 187.539062 112.882812 Z M 187.539062 112.882812 " fill-opacity="1" fill-rule="nonzero"/><path fill="#000000" d="M 172.671875 131.429688 C 162.417969 131.429688 154.078125 123.09375 154.078125 112.847656 C 154.078125 102.605469 162.417969 94.269531 172.671875 94.269531 C 182.921875 94.269531 191.261719 102.605469 191.261719 112.847656 C 191.261719 123.09375 182.921875 131.429688 172.671875 131.429688 Z M 172.671875 101.714844 C 166.507812 101.714844 161.527344 106.722656 161.527344 112.847656 C 161.527344 118.976562 166.539062 123.984375 172.671875 123.984375 C 178.800781 123.984375 183.8125 118.976562 183.8125 112.847656 C 183.847656 106.722656 178.835938 101.714844 172.671875 101.714844 Z M 172.671875 101.714844 " fill-opacity="1" fill-rule="nonzero"/><path fill="#d1f7ff" d="M 183.910156 83.167969 L 161.429688 83.167969 C 159.417969 83.167969 157.804688 81.554688 157.804688 79.542969 L 157.804688 71.933594 C 157.804688 69.925781 159.417969 68.3125 161.429688 68.3125 L 183.910156 68.3125 C 185.921875 68.3125 187.539062 69.925781 187.539062 71.933594 L 187.539062 79.542969 C 187.539062 81.519531 185.921875 83.167969 183.910156 83.167969 Z M 183.910156 83.167969 " fill-opacity="1" fill-rule="nonzero"/><path fill="#000000" d="M 180.121094 86.855469 L 165.253906 86.855469 C 159.121094 86.855469 154.109375 81.851562 154.109375 75.722656 C 154.109375 69.5625 159.121094 64.589844 165.253906 64.589844 L 180.121094 64.589844 C 186.285156 64.589844 191.261719 69.59375 191.261719 75.722656 C 191.261719 81.882812 186.253906 86.855469 180.121094 86.855469 Z M 165.253906 72 C 163.210938 72 161.527344 73.679688 161.527344 75.722656 C 161.527344 77.765625 163.210938 79.445312 165.253906 79.445312 L 180.121094 79.445312 C 182.164062 79.445312 183.847656 77.765625 183.847656 75.722656 C 183.847656 73.679688 182.164062 72 180.121094 72 Z M 165.253906 72 " fill-opacity="1" fill-rule="nonzero"/><path fill="#fad151" d="M 165.253906 157.453125 C 165.253906 158.429688 165.160156 159.394531 164.96875 160.351562 C 164.777344 161.308594 164.496094 162.238281 164.121094 163.136719 C 163.75 164.039062 163.289062 164.894531 162.746094 165.707031 C 162.207031 166.515625 161.589844 167.269531 160.898438 167.957031 C 160.207031 168.648438 159.457031 169.261719 158.644531 169.804688 C 157.835938 170.347656 156.976562 170.804688 156.074219 171.179688 C 155.171875 171.550781 154.242188 171.832031 153.285156 172.023438 C 152.328125 172.214844 151.363281 172.308594 150.386719 172.308594 C 149.410156 172.308594 148.441406 172.214844 147.484375 172.023438 C 146.527344 171.832031 145.597656 171.550781 144.695312 171.179688 C 143.792969 170.804688 142.9375 170.347656 142.125 169.804688 C 141.3125 169.261719 140.5625 168.648438 139.875 167.957031 C 139.183594 167.269531 138.566406 166.515625 138.023438 165.707031 C 137.480469 164.894531 137.023438 164.039062 136.648438 163.136719 C 136.277344 162.238281 135.996094 161.308594 135.804688 160.351562 C 135.613281 159.394531 135.519531 158.429688 135.519531 157.453125 C 135.519531 156.476562 135.613281 155.511719 135.804688 154.554688 C 135.996094 153.597656 136.277344 152.667969 136.648438 151.765625 C 137.023438 150.867188 137.480469 150.007812 138.023438 149.199219 C 138.566406 148.386719 139.183594 147.636719 139.875 146.945312 C 140.5625 146.257812 141.3125 145.640625 142.125 145.097656 C 142.9375 144.558594 143.792969 144.101562 144.695312 143.726562 C 145.597656 143.351562 146.527344 143.070312 147.484375 142.882812 C 148.441406 142.691406 149.410156 142.59375 150.386719 142.59375 C 151.363281 142.59375 152.328125 142.691406 153.285156 142.882812 C 154.242188 143.070312 155.171875 143.351562 156.074219 143.726562 C 156.976562 144.101562 157.835938 144.558594 158.644531 145.097656 C 159.457031 145.640625 160.207031 146.257812 160.898438 146.945312 C 161.589844 147.636719 162.207031 148.386719 162.746094 149.199219 C 163.289062 150.007812 163.75 150.867188 164.121094 151.765625 C 164.496094 152.667969 164.777344 153.597656 164.96875 154.554688 C 165.160156 155.511719 165.253906 156.476562 165.253906 157.453125 Z M 165.253906 157.453125 " fill-opacity="1" fill-rule="nonzero"/><path fill="#000000" d="M 150.386719 176 C 140.132812 176 131.792969 167.664062 131.792969 157.417969 C 131.792969 147.175781 140.132812 138.839844 150.386719 138.839844 C 160.636719 138.839844 168.980469 147.175781 168.980469 157.417969 C 168.980469 167.664062 160.636719 176 150.386719 176 Z M 150.386719 146.285156 C 144.222656 146.285156 139.242188 151.292969 139.242188 157.417969 C 139.242188 163.578125 144.253906 168.554688 150.386719 168.554688 C 156.519531 168.554688 161.527344 163.546875 161.527344 157.417969 C 161.527344 151.292969 156.519531 146.285156 150.386719 146.285156 Z M 150.386719 146.285156 " fill-opacity="1" fill-rule="nonzero"/><path fill="#ffffff" d="M 139.144531 187.167969 L 161.628906 187.167969 C 163.636719 187.167969 165.253906 188.78125 165.253906 190.789062 L 165.253906 198.398438 C 165.253906 200.410156 163.636719 202.023438 161.628906 202.023438 L 139.144531 202.023438 C 137.132812 202.023438 135.519531 200.410156 135.519531 198.398438 L 135.519531 190.757812 C 135.519531 188.78125 137.132812 187.167969 139.144531 187.167969 Z M 139.144531 187.167969 " fill-opacity="1" fill-rule="nonzero"/><g clip-path="url(#4d30288403)"><path fill="#000000" d="M 157.804688 205.710938 L 142.9375 205.710938 C 136.769531 205.710938 131.792969 200.707031 131.792969 194.578125 C 131.792969 188.417969 136.804688 183.445312 142.9375 183.445312 L 157.804688 183.445312 C 163.96875 183.445312 168.945312 188.449219 168.945312 194.578125 C 168.980469 200.738281 163.96875 205.710938 157.804688 205.710938 Z M 142.9375 190.855469 C 140.890625 190.855469 139.210938 192.535156 139.210938 194.578125 C 139.210938 196.621094 140.890625 198.300781 142.9375 198.300781 L 157.804688 198.300781 C 159.847656 198.300781 161.527344 196.621094 161.527344 194.578125 C 161.527344 192.535156 159.847656 190.855469 157.804688 190.855469 Z M 142.9375 190.855469 " fill-opacity="1" fill-rule="nonzero"/></g><path fill="#fad151" d="M 213.546875 157.453125 C 213.546875 158.429688 213.453125 159.394531 213.261719 160.351562 C 213.070312 161.308594 212.789062 162.238281 212.417969 163.136719 C 212.042969 164.039062 211.585938 164.894531 211.042969 165.707031 C 210.5 166.515625 209.882812 167.269531 209.195312 167.957031 C 208.503906 168.648438 207.753906 169.261719 206.941406 169.804688 C 206.128906 170.347656 205.273438 170.804688 204.371094 171.179688 C 203.46875 171.550781 202.539062 171.832031 201.582031 172.023438 C 200.625 172.214844 199.65625 172.308594 198.679688 172.308594 C 197.703125 172.308594 196.738281 172.214844 195.78125 172.023438 C 194.824219 171.832031 193.894531 171.550781 192.992188 171.179688 C 192.089844 170.804688 191.230469 170.347656 190.421875 169.804688 C 189.609375 169.261719 188.859375 168.648438 188.167969 167.957031 C 187.476562 167.269531 186.859375 166.515625 186.320312 165.707031 C 185.777344 164.894531 185.320312 164.039062 184.945312 163.136719 C 184.570312 162.238281 184.289062 161.308594 184.097656 160.351562 C 183.910156 159.394531 183.8125 158.429688 183.8125 157.453125 C 183.8125 156.476562 183.910156 155.511719 184.097656 154.554688 C 184.289062 153.597656 184.570312 152.667969 184.945312 151.765625 C 185.320312 150.867188 185.777344 150.007812 186.320312 149.199219 C 186.859375 148.386719 187.476562 147.636719 188.167969 146.945312 C 188.859375 146.257812 189.609375 145.640625 190.421875 145.097656 C 191.230469 144.558594 192.089844 144.101562 192.992188 143.726562 C 193.894531 143.351562 194.824219 143.070312 195.78125 142.882812 C 196.738281 142.691406 197.703125 142.59375 198.679688 142.59375 C 199.65625 142.59375 200.625 142.691406 201.582031 142.882812 C 202.539062 143.070312 203.46875 143.351562 204.371094 143.726562 C 205.273438 144.101562 206.128906 144.558594 206.941406 145.097656 C 207.753906 145.640625 208.503906 146.257812 209.195312 146.945312 C 209.882812 147.636719 210.5 148.386719 211.042969 149.199219 C 211.585938 150.007812 212.042969 150.867188 212.417969 151.765625 C 212.789062 152.667969 213.070312 153.597656 213.261719 154.554688 C 213.453125 155.511719 213.546875 156.476562 213.546875 157.453125 Z M 213.546875 157.453125 " fill-opacity="1" fill-rule="nonzero"/><path fill="#000000" d="M 198.679688 176 C 188.429688 176 180.089844 167.664062 180.089844 157.417969 C 180.089844 147.175781 188.429688 138.839844 198.679688 138.839844 C 208.933594 138.839844 217.273438 147.175781 217.273438 157.417969 C 217.273438 167.664062 208.933594 176 198.679688 176 Z M 198.679688 146.285156 C 192.550781 146.285156 187.539062 151.292969 187.539062 157.417969 C 187.539062 163.578125 192.550781 168.554688 198.679688 168.554688 C 204.84375 168.554688 209.824219 163.546875 209.824219 157.417969 C 209.855469 151.292969 204.84375 146.285156 198.679688 146.285156 Z M 198.679688 146.285156 " fill-opacity="1" fill-rule="nonzero"/><path fill="#ffffff" d="M 187.472656 187.167969 L 209.953125 187.167969 C 211.964844 187.167969 213.582031 188.78125 213.582031 190.789062 L 213.582031 198.398438 C 213.582031 200.410156 211.964844 202.023438 209.953125 202.023438 L 187.472656 202.023438 C 185.460938 202.023438 183.847656 200.410156 183.847656 198.398438 L 183.847656 190.757812 C 183.847656 188.78125 185.460938 187.167969 187.472656 187.167969 Z M 187.472656 187.167969 " fill-opacity="1" fill-rule="nonzero"/><g clip-path="url(#5c5f9c18bc)"><path fill="#000000" d="M 206.128906 205.710938 L 191.261719 205.710938 C 185.132812 205.710938 180.121094 200.707031 180.121094 194.578125 C 180.121094 188.417969 185.132812 183.445312 191.261719 183.445312 L 206.128906 183.445312 C 212.261719 183.445312 217.273438 188.449219 217.273438 194.578125 C 217.273438 200.738281 212.296875 205.710938 206.128906 205.710938 Z M 191.261719 190.855469 C 189.21875 190.855469 187.539062 192.535156 187.539062 194.578125 C 187.539062 196.621094 189.21875 198.300781 191.261719 198.300781 L 206.128906 198.300781 C 208.175781 198.300781 209.855469 196.621094 209.855469 194.578125 C 209.855469 192.535156 208.175781 190.855469 206.128906 190.855469 Z M 191.261719 190.855469 " fill-opacity="1" fill-rule="nonzero"/></g><path fill="#f65555" d="M 247.007812 53.453125 C 247.007812 54.429688 246.914062 55.394531 246.722656 56.351562 C 246.53125 57.308594 246.25 58.238281 245.875 59.140625 C 245.503906 60.039062 245.042969 60.898438 244.503906 61.707031 C 243.960938 62.519531 243.34375 63.269531 242.652344 63.960938 C 241.964844 64.648438 241.210938 65.265625 240.402344 65.808594 C 239.589844 66.347656 238.730469 66.804688 237.832031 67.179688 C 236.929688 67.554688 236 67.835938 235.042969 68.023438 C 234.082031 68.214844 233.117188 68.3125 232.140625 68.3125 C 231.164062 68.3125 230.199219 68.214844 229.238281 68.023438 C 228.28125 67.835938 227.351562 67.554688 226.449219 67.179688 C 225.550781 66.804688 224.691406 66.347656 223.878906 65.808594 C 223.070312 65.265625 222.316406 64.648438 221.628906 63.960938 C 220.9375 63.269531 220.320312 62.519531 219.777344 61.707031 C 219.238281 60.898438 218.777344 60.039062 218.40625 59.140625 C 218.03125 58.238281 217.75 57.308594 217.558594 56.351562 C 217.367188 55.394531 217.273438 54.429688 217.273438 53.453125 C 217.273438 52.476562 217.367188 51.511719 217.558594 50.554688 C 217.75 49.597656 218.03125 48.667969 218.40625 47.769531 C 218.777344 46.867188 219.238281 46.011719 219.777344 45.199219 C 220.320312 44.390625 220.9375 43.636719 221.628906 42.949219 C 222.316406 42.257812 223.070312 41.644531 223.878906 41.101562 C 224.691406 40.558594 225.550781 40.101562 226.449219 39.726562 C 227.351562 39.355469 228.28125 39.074219 229.238281 38.882812 C 230.199219 38.691406 231.164062 38.597656 232.140625 38.597656 C 233.117188 38.597656 234.082031 38.691406 235.042969 38.882812 C 236 39.074219 236.929688 39.355469 237.832031 39.726562 C 238.730469 40.101562 239.589844 40.558594 240.402344 41.101562 C 241.210938 41.644531 241.964844 42.257812 242.652344 42.949219 C 243.34375 43.636719 243.960938 44.390625 244.503906 45.199219 C 245.042969 46.011719 245.503906 46.867188 245.875 47.769531 C 246.25 48.667969 246.53125 49.597656 246.722656 50.554688 C 246.914062 51.511719 247.007812 52.476562 247.007812 53.453125 Z M 247.007812 53.453125 " fill-opacity="1" fill-rule="nonzero"/><g clip-path="url(#4c5839a52c)"><path fill="#000000" d="M 232.140625 72 C 221.886719 72 213.546875 63.664062 213.546875 53.421875 C 213.546875 43.175781 221.886719 34.839844 232.140625 34.839844 C 242.394531 34.839844 250.734375 43.175781 250.734375 53.421875 C 250.734375 63.664062 242.394531 72 232.140625 72 Z M 232.140625 42.285156 C 225.976562 42.285156 221 47.292969 221 53.421875 C 221 59.582031 226.007812 64.554688 232.140625 64.554688 C 238.304688 64.554688 243.28125 59.546875 243.28125 53.421875 C 243.28125 47.292969 238.304688 42.285156 232.140625 42.285156 Z M 232.140625 42.285156 " fill-opacity="1" fill-rule="nonzero"/></g><path fill="#71869f" d="M 243.382812 23.707031 L 220.898438 23.707031 C 218.886719 23.707031 217.273438 22.09375 217.273438 20.082031 L 217.273438 12.472656 C 217.273438 10.464844 218.886719 8.851562 220.898438 8.851562 L 243.382812 8.851562 C 245.394531 8.851562 247.007812 10.464844 247.007812 12.472656 L 247.007812 20.082031 C 247.007812 22.09375 245.394531 23.707031 243.382812 23.707031 Z M 243.382812 23.707031 " fill-opacity="1" fill-rule="nonzero"/><g clip-path="url(#de245675f7)"><path fill="#000000" d="M 239.589844 27.429688 L 224.722656 27.429688 C 218.558594 27.429688 213.582031 22.421875 213.582031 16.296875 C 213.582031 10.136719 218.59375 5.160156 224.722656 5.160156 L 239.589844 5.160156 C 245.753906 5.160156 250.734375 10.167969 250.734375 16.296875 C 250.734375 22.457031 245.722656 27.429688 239.589844 27.429688 Z M 224.722656 12.574219 C 222.679688 12.574219 221 14.253906 221 16.296875 C 221 18.335938 222.679688 20.019531 224.722656 20.019531 L 239.589844 20.019531 C 241.636719 20.019531 243.316406 18.335938 243.316406 16.296875 C 243.316406 14.253906 241.632812 12.574219 239.589844 12.574219 Z M 224.722656 12.574219 " fill-opacity="1" fill-rule="nonzero"/></g></svg>