<svg xmlns="http://www.w3.org/2000/svg" xmlns:xlink="http://www.w3.org/1999/xlink" width="153" zoomAndPan="magnify" viewBox="0 0 114.75 95.999999" height="128" preserveAspectRatio="xMidYMid meet" version="1.0"><defs><clipPath id="981b67c251"><path d="M 49.441406 13.757812 L 65.15625 13.757812 L 65.15625 24.984375 L 49.441406 24.984375 Z M 49.441406 13.757812 " clip-rule="nonzero"/></clipPath><clipPath id="9e7cfcf3f4"><path d="M 55 2.660156 L 59 2.660156 L 59 17 L 55 17 Z M 55 2.660156 " clip-rule="nonzero"/></clipPath><clipPath id="4c4c45379b"><path d="M 19.277344 39 L 33 39 L 33 43 L 19.277344 43 Z M 19.277344 39 " clip-rule="nonzero"/></clipPath><clipPath id="2451d00f24"><path d="M 81 38 L 94.863281 38 L 94.863281 43 L 81 43 Z M 81 38 " clip-rule="nonzero"/></clipPath></defs><path fill="#ffffff" d="M 59.390625 17.265625 L 56.929688 15.5625 C 56.785156 15.464844 56.664062 15.414062 56.542969 15.414062 C 56.320312 15.414062 56.054688 15.585938 56.054688 16.046875 L 56.054688 19.628906 C 56.054688 20.089844 56.320312 20.261719 56.542969 20.261719 C 56.664062 20.261719 56.808594 20.210938 56.929688 20.113281 L 59.414062 18.410156 C 59.632812 18.265625 59.753906 18.042969 59.753906 17.824219 C 59.730469 17.632812 59.609375 17.410156 59.390625 17.265625 Z M 56.515625 20.015625 L 56.515625 19.773438 Z M 59.121094 18.019531 L 56.636719 19.726562 L 56.542969 19.773438 C 56.542969 19.75 56.515625 19.699219 56.515625 19.628906 L 56.515625 16.046875 C 56.515625 15.976562 56.542969 15.925781 56.542969 15.902344 C 56.566406 15.902344 56.589844 15.925781 56.636719 15.949219 L 59.097656 17.65625 C 59.171875 17.703125 59.21875 17.777344 59.21875 17.851562 C 59.242188 17.921875 59.171875 17.996094 59.121094 18.019531 Z M 59.121094 18.019531 " fill-opacity="1" fill-rule="nonzero"/><g clip-path="url(#981b67c251)"><path fill="#ffffff" d="M 63.601562 13.757812 L 50.890625 13.757812 C 50.113281 13.757812 49.457031 14.417969 49.457031 15.195312 L 49.457031 23.28125 C 49.457031 24.058594 50.113281 24.714844 50.890625 24.714844 L 63.601562 24.714844 C 64.40625 24.714844 65.039062 24.058594 65.039062 23.28125 L 65.039062 15.195312 C 65.039062 14.417969 64.382812 13.757812 63.601562 13.757812 Z M 64.550781 23.28125 C 64.550781 23.816406 64.113281 24.230469 63.601562 24.230469 L 50.890625 24.230469 C 50.382812 24.230469 49.941406 23.789062 49.941406 23.28125 L 49.941406 21.792969 L 61.144531 21.792969 C 61.289062 21.792969 61.386719 21.695312 61.386719 21.550781 C 61.386719 21.40625 61.289062 21.308594 61.144531 21.308594 L 49.941406 21.308594 L 49.941406 15.195312 C 49.941406 14.683594 50.382812 14.246094 50.890625 14.246094 L 63.601562 14.246094 C 64.136719 14.246094 64.550781 14.683594 64.550781 15.195312 L 64.550781 21.308594 L 63.089844 21.308594 C 62.945312 21.308594 62.847656 21.40625 62.847656 21.550781 C 62.847656 21.695312 62.945312 21.792969 63.089844 21.792969 L 64.550781 21.792969 Z M 64.550781 23.28125 " fill-opacity="1" fill-rule="nonzero"/></g><path fill="#ffffff" d="M 52.621094 21.964844 C 52.132812 21.964844 51.746094 22.304688 51.671875 22.769531 L 50.917969 22.769531 C 50.769531 22.769531 50.671875 22.867188 50.671875 23.011719 C 50.671875 23.15625 50.769531 23.253906 50.917969 23.253906 L 51.695312 23.253906 C 51.816406 23.644531 52.183594 23.914062 52.597656 23.914062 C 53.035156 23.914062 53.425781 23.597656 53.523438 23.183594 L 63.308594 23.183594 C 63.457031 23.183594 63.554688 23.085938 63.554688 22.9375 C 63.554688 22.792969 63.457031 22.695312 63.308594 22.695312 L 53.523438 22.695312 C 53.449219 22.28125 53.058594 21.964844 52.621094 21.964844 Z M 52.621094 23.425781 C 52.351562 23.425781 52.132812 23.207031 52.132812 22.9375 C 52.132812 22.671875 52.351562 22.453125 52.621094 22.453125 C 52.890625 22.453125 53.109375 22.671875 53.109375 22.9375 C 53.082031 23.207031 52.890625 23.425781 52.621094 23.425781 Z M 52.621094 23.425781 " fill-opacity="1" fill-rule="nonzero"/><path fill="#000000" d="M 79.550781 40.5 C 79.550781 39.761719 79.515625 39.023438 79.445312 38.289062 C 79.371094 37.554688 79.265625 36.824219 79.121094 36.097656 C 78.976562 35.375 78.796875 34.660156 78.585938 33.953125 C 78.371094 33.246094 78.121094 32.550781 77.839844 31.867188 C 77.558594 31.183594 77.246094 30.519531 76.898438 29.867188 C 76.550781 29.214844 76.171875 28.582031 75.765625 27.96875 C 75.355469 27.355469 74.917969 26.761719 74.449219 26.191406 C 73.984375 25.617188 73.488281 25.070312 72.96875 24.550781 C 72.449219 24.027344 71.902344 23.53125 71.332031 23.0625 C 70.765625 22.59375 70.171875 22.15625 69.5625 21.746094 C 68.949219 21.335938 68.316406 20.953125 67.667969 20.605469 C 67.019531 20.257812 66.355469 19.941406 65.675781 19.660156 C 64.996094 19.378906 64.300781 19.128906 63.597656 18.914062 C 62.894531 18.699219 62.179688 18.519531 61.457031 18.375 C 60.734375 18.234375 60.007812 18.125 59.273438 18.050781 C 58.542969 17.980469 57.808594 17.941406 57.070312 17.941406 C 56.335938 17.941406 55.601562 17.980469 54.867188 18.050781 C 54.136719 18.125 53.40625 18.234375 52.683594 18.375 C 51.964844 18.519531 51.25 18.699219 50.546875 18.914062 C 49.839844 19.128906 49.148438 19.378906 48.46875 19.660156 C 47.789062 19.941406 47.125 20.257812 46.472656 20.605469 C 45.824219 20.953125 45.195312 21.335938 44.582031 21.746094 C 43.96875 22.15625 43.378906 22.59375 42.808594 23.0625 C 42.242188 23.53125 41.695312 24.027344 41.175781 24.550781 C 40.652344 25.070312 40.160156 25.617188 39.691406 26.191406 C 39.226562 26.761719 38.789062 27.355469 38.378906 27.96875 C 37.96875 28.582031 37.59375 29.214844 37.246094 29.867188 C 36.898438 30.519531 36.582031 31.183594 36.300781 31.867188 C 36.019531 32.550781 35.773438 33.246094 35.558594 33.953125 C 35.34375 34.660156 35.164062 35.375 35.023438 36.097656 C 34.878906 36.824219 34.769531 37.554688 34.699219 38.289062 C 34.625 39.023438 34.589844 39.761719 34.589844 40.5 C 34.589844 47.121094 38.296875 53.714844 41.566406 59.53125 C 43.476562 62.617188 45.042969 65.867188 46.269531 69.285156 L 45.539062 69.285156 C 45.378906 69.292969 45.222656 69.328125 45.078125 69.394531 C 44.929688 69.460938 44.800781 69.554688 44.691406 69.671875 C 44.582031 69.792969 44.5 69.925781 44.441406 70.078125 C 44.386719 70.230469 44.359375 70.386719 44.367188 70.546875 C 44.371094 70.710938 44.410156 70.863281 44.476562 71.011719 C 44.542969 71.160156 44.632812 71.289062 44.753906 71.398438 C 44.871094 71.507812 45.003906 71.59375 45.15625 71.648438 C 45.308594 71.707031 45.464844 71.730469 45.625 71.726562 L 45.710938 71.726562 L 46.695312 71.652344 C 46.695312 71.808594 46.695312 71.980469 46.695312 72.140625 L 46.695312 72.871094 L 45.757812 72.945312 C 45.597656 72.949219 45.441406 72.988281 45.296875 73.054688 C 45.148438 73.121094 45.023438 73.214844 44.910156 73.332031 C 44.800781 73.449219 44.71875 73.585938 44.664062 73.738281 C 44.605469 73.886719 44.582031 74.042969 44.585938 74.207031 C 44.59375 74.367188 44.628906 74.523438 44.695312 74.667969 C 44.761719 74.816406 44.855469 74.945312 44.972656 75.054688 C 45.089844 75.164062 45.222656 75.25 45.375 75.304688 C 45.527344 75.363281 45.683594 75.386719 45.84375 75.382812 L 46.695312 75.382812 L 46.695312 76.601562 L 46.023438 76.601562 C 45.863281 76.609375 45.710938 76.644531 45.5625 76.710938 C 45.417969 76.777344 45.289062 76.871094 45.179688 76.988281 C 45.070312 77.109375 44.984375 77.242188 44.929688 77.394531 C 44.875 77.546875 44.847656 77.703125 44.855469 77.863281 C 44.859375 78.027344 44.894531 78.179688 44.960938 78.328125 C 45.027344 78.472656 45.121094 78.601562 45.238281 78.714844 C 45.355469 78.824219 45.492188 78.90625 45.640625 78.964844 C 45.792969 79.019531 45.949219 79.046875 46.109375 79.039062 L 46.695312 79.039062 L 46.695312 80.261719 L 46.28125 80.261719 C 46.121094 80.265625 45.964844 80.300781 45.820312 80.371094 C 45.671875 80.4375 45.546875 80.53125 45.433594 80.648438 C 45.324219 80.765625 45.242188 80.902344 45.1875 81.050781 C 45.128906 81.203125 45.105469 81.359375 45.109375 81.523438 C 45.117188 81.683594 45.152344 81.835938 45.21875 81.984375 C 45.285156 82.132812 45.378906 82.261719 45.496094 82.371094 C 45.613281 82.480469 45.746094 82.5625 45.898438 82.621094 C 46.046875 82.679688 46.203125 82.703125 46.367188 82.699219 L 46.679688 82.699219 L 46.679688 83.453125 C 47.167969 86.539062 49.574219 88.476562 52.488281 89.417969 C 52.636719 89.917969 52.855469 90.378906 53.148438 90.808594 C 53.441406 91.238281 53.792969 91.613281 54.207031 91.925781 C 54.617188 92.242188 55.070312 92.488281 55.558594 92.65625 C 56.046875 92.828125 56.554688 92.917969 57.070312 92.929688 C 57.582031 92.910156 58.078125 92.8125 58.558594 92.640625 C 59.039062 92.464844 59.480469 92.222656 59.882812 91.90625 C 60.285156 91.59375 60.632812 91.226562 60.921875 90.800781 C 61.207031 90.378906 61.421875 89.921875 61.566406 89.429688 C 62.757812 89.121094 63.824219 88.574219 64.765625 87.785156 C 65.710938 86.996094 66.445312 86.046875 66.964844 84.929688 L 68.578125 84.808594 C 68.738281 84.796875 68.890625 84.753906 69.035156 84.679688 C 69.179688 84.605469 69.300781 84.507812 69.40625 84.386719 C 69.511719 84.265625 69.589844 84.128906 69.640625 83.972656 C 69.691406 83.820312 69.710938 83.664062 69.695312 83.503906 C 69.6875 83.339844 69.644531 83.1875 69.574219 83.042969 C 69.5 82.898438 69.402344 82.769531 69.28125 82.664062 C 69.160156 82.558594 69.023438 82.480469 68.867188 82.429688 C 68.714844 82.378906 68.558594 82.359375 68.398438 82.371094 L 67.363281 82.441406 L 67.363281 81.222656 L 68.3125 81.148438 C 68.472656 81.136719 68.625 81.09375 68.765625 81.023438 C 68.910156 80.949219 69.035156 80.851562 69.140625 80.730469 C 69.246094 80.605469 69.320312 80.46875 69.371094 80.316406 C 69.421875 80.164062 69.441406 80.007812 69.429688 79.84375 C 69.417969 79.683594 69.378906 79.53125 69.304688 79.382812 C 69.234375 79.238281 69.136719 79.113281 69.015625 79.007812 C 68.894531 78.902344 68.753906 78.820312 68.601562 78.769531 C 68.449219 78.71875 68.289062 78.699219 68.128906 78.710938 L 67.363281 78.710938 L 67.363281 77.492188 L 68.042969 77.492188 C 68.210938 77.488281 68.367188 77.449219 68.515625 77.382812 C 68.664062 77.3125 68.796875 77.21875 68.90625 77.097656 C 69.019531 76.976562 69.101562 76.835938 69.15625 76.679688 C 69.210938 76.523438 69.234375 76.363281 69.222656 76.199219 C 69.210938 76.039062 69.171875 75.882812 69.097656 75.738281 C 69.027344 75.59375 68.929688 75.46875 68.808594 75.363281 C 68.6875 75.253906 68.546875 75.175781 68.394531 75.125 C 68.242188 75.074219 68.085938 75.054688 67.921875 75.066406 L 67.425781 75.066406 L 67.425781 73.847656 L 67.824219 73.847656 C 67.984375 73.835938 68.136719 73.792969 68.28125 73.71875 C 68.425781 73.644531 68.546875 73.546875 68.652344 73.425781 C 68.757812 73.304688 68.835938 73.164062 68.886719 73.011719 C 68.9375 72.859375 68.957031 72.703125 68.945312 72.542969 C 68.933594 72.378906 68.890625 72.226562 68.820312 72.082031 C 68.746094 71.9375 68.652344 71.808594 68.527344 71.703125 C 68.40625 71.597656 68.269531 71.519531 68.117188 71.46875 C 67.960938 71.417969 67.804688 71.394531 67.644531 71.40625 L 67.484375 71.40625 C 67.8125 67.957031 70.230469 63.46875 72.820312 58.738281 C 76.113281 52.691406 79.550781 46.375 79.550781 40.5 Z M 57.070312 90.488281 C 56.617188 90.492188 56.210938 90.347656 55.855469 90.0625 C 56.246094 90.0625 56.632812 90.0625 57.070312 90.0625 C 57.472656 90.0625 57.859375 90.0625 58.285156 90.0625 C 57.929688 90.347656 57.527344 90.492188 57.070312 90.488281 Z M 63.753906 82.722656 L 57.507812 83.175781 C 57.347656 83.179688 57.195312 83.214844 57.046875 83.28125 C 56.898438 83.351562 56.773438 83.441406 56.660156 83.5625 C 56.550781 83.679688 56.46875 83.8125 56.414062 83.964844 C 56.355469 84.117188 56.332031 84.273438 56.335938 84.4375 C 56.34375 84.597656 56.378906 84.75 56.445312 84.898438 C 56.511719 85.046875 56.605469 85.175781 56.722656 85.285156 C 56.839844 85.394531 56.972656 85.480469 57.125 85.535156 C 57.277344 85.59375 57.433594 85.617188 57.59375 85.613281 L 57.679688 85.613281 L 61.933594 85.28125 C 60.410156 86.089844 58.792969 86.476562 57.070312 86.441406 C 54.167969 86.441406 50.886719 85.355469 50.410156 83.003906 L 50.410156 82.453125 L 63.777344 81.480469 Z M 63.753906 79.066406 L 50.386719 80.039062 L 50.386719 78.820312 L 63.753906 77.84375 Z M 63.753906 75.40625 L 50.386719 76.382812 L 50.386719 75.164062 L 63.753906 74.1875 Z M 63.753906 71.75 L 50.386719 72.726562 L 50.386719 72.199219 C 50.386719 71.957031 50.386719 71.699219 50.386719 71.457031 L 56.632812 70.980469 C 56.792969 70.96875 56.945312 70.925781 57.089844 70.851562 C 57.234375 70.78125 57.355469 70.683594 57.460938 70.558594 C 57.566406 70.4375 57.644531 70.300781 57.695312 70.148438 C 57.746094 69.996094 57.761719 69.835938 57.75 69.675781 C 57.742188 69.515625 57.699219 69.359375 57.628906 69.214844 C 57.554688 69.070312 57.457031 68.945312 57.335938 68.839844 C 57.214844 68.730469 57.078125 68.652344 56.921875 68.601562 C 56.769531 68.550781 56.613281 68.53125 56.453125 68.542969 L 49.960938 69.019531 C 49.085938 65.457031 46.972656 61.703125 44.738281 57.714844 C 41.542969 52.046875 38.234375 46.15625 38.234375 40.5 C 38.234375 39.878906 38.265625 39.261719 38.328125 38.648438 C 38.386719 38.03125 38.476562 37.417969 38.597656 36.8125 C 38.71875 36.207031 38.867188 35.605469 39.046875 35.015625 C 39.226562 34.421875 39.433594 33.839844 39.667969 33.265625 C 39.90625 32.695312 40.167969 32.136719 40.460938 31.589844 C 40.75 31.046875 41.066406 30.515625 41.410156 30 C 41.753906 29.484375 42.121094 28.988281 42.511719 28.511719 C 42.902344 28.03125 43.316406 27.574219 43.753906 27.136719 C 44.1875 26.699219 44.644531 26.285156 45.121094 25.890625 C 45.597656 25.5 46.09375 25.128906 46.605469 24.785156 C 47.121094 24.441406 47.648438 24.125 48.191406 23.832031 C 48.738281 23.539062 49.292969 23.277344 49.863281 23.039062 C 50.433594 22.804688 51.011719 22.59375 51.605469 22.414062 C 52.195312 22.234375 52.792969 22.085938 53.398438 21.964844 C 54 21.84375 54.609375 21.753906 55.226562 21.691406 C 55.839844 21.632812 56.453125 21.601562 57.070312 21.601562 C 57.6875 21.601562 58.304688 21.632812 58.917969 21.691406 C 59.53125 21.753906 60.140625 21.84375 60.746094 21.964844 C 61.351562 22.085938 61.949219 22.234375 62.539062 22.414062 C 63.128906 22.59375 63.710938 22.804688 64.28125 23.039062 C 64.847656 23.277344 65.40625 23.539062 65.949219 23.832031 C 66.496094 24.125 67.023438 24.441406 67.535156 24.785156 C 68.046875 25.128906 68.542969 25.5 69.019531 25.890625 C 69.496094 26.285156 69.953125 26.699219 70.390625 27.136719 C 70.828125 27.574219 71.238281 28.03125 71.632812 28.511719 C 72.023438 28.988281 72.390625 29.484375 72.734375 30 C 73.074219 30.515625 73.390625 31.046875 73.683594 31.589844 C 73.972656 32.136719 74.238281 32.695312 74.472656 33.265625 C 74.710938 33.839844 74.917969 34.421875 75.097656 35.015625 C 75.273438 35.605469 75.425781 36.207031 75.546875 36.8125 C 75.664062 37.417969 75.753906 38.03125 75.816406 38.648438 C 75.875 39.261719 75.90625 39.878906 75.90625 40.5 C 75.90625 45.375 72.699219 51.316406 69.601562 57.007812 C 66.707031 62.3125 63.984375 67.324219 63.792969 71.699219 Z M 63.753906 71.75 " fill-opacity="1" fill-rule="nonzero"/><g clip-path="url(#9e7cfcf3f4)"><path fill="#000000" d="M 58.894531 14.6875 L 58.894531 4.738281 C 58.894531 4.496094 58.847656 4.261719 58.753906 4.039062 C 58.664062 3.816406 58.53125 3.617188 58.359375 3.445312 C 58.1875 3.273438 57.992188 3.140625 57.769531 3.050781 C 57.546875 2.957031 57.3125 2.910156 57.070312 2.910156 C 56.828125 2.910156 56.597656 2.957031 56.375 3.050781 C 56.152344 3.140625 55.953125 3.273438 55.78125 3.445312 C 55.613281 3.617188 55.480469 3.816406 55.386719 4.039062 C 55.292969 4.261719 55.25 4.496094 55.25 4.738281 L 55.25 14.699219 C 55.25 14.941406 55.292969 15.175781 55.386719 15.398438 C 55.480469 15.625 55.613281 15.820312 55.78125 15.992188 C 55.953125 16.164062 56.152344 16.296875 56.375 16.390625 C 56.597656 16.484375 56.828125 16.527344 57.070312 16.527344 C 57.3125 16.527344 57.546875 16.484375 57.769531 16.390625 C 57.992188 16.296875 58.1875 16.164062 58.359375 15.992188 C 58.53125 15.820312 58.664062 15.625 58.753906 15.398438 C 58.847656 15.175781 58.894531 14.941406 58.894531 14.699219 Z M 58.894531 14.6875 " fill-opacity="1" fill-rule="nonzero"/></g><path fill="#000000" d="M 44.070312 20.050781 C 44.226562 20.050781 44.382812 20.03125 44.535156 19.988281 C 44.6875 19.945312 44.832031 19.886719 44.96875 19.804688 C 45.105469 19.726562 45.230469 19.632812 45.34375 19.519531 C 45.457031 19.40625 45.550781 19.28125 45.632812 19.144531 C 45.710938 19.007812 45.769531 18.863281 45.8125 18.710938 C 45.855469 18.554688 45.878906 18.398438 45.878906 18.242188 C 45.878906 18.082031 45.863281 17.925781 45.824219 17.773438 C 45.785156 17.617188 45.726562 17.472656 45.648438 17.332031 L 40.691406 8.6875 C 40.570312 8.480469 40.414062 8.300781 40.222656 8.152344 C 40.03125 8.003906 39.816406 7.898438 39.582031 7.835938 C 39.351562 7.773438 39.113281 7.757812 38.875 7.789062 C 38.632812 7.820312 38.410156 7.898438 38.199219 8.019531 C 37.988281 8.140625 37.8125 8.296875 37.664062 8.488281 C 37.515625 8.679688 37.410156 8.894531 37.347656 9.128906 C 37.285156 9.363281 37.269531 9.601562 37.300781 9.839844 C 37.332031 10.082031 37.410156 10.308594 37.53125 10.519531 L 42.488281 19.136719 C 42.652344 19.421875 42.875 19.644531 43.15625 19.808594 C 43.4375 19.972656 43.742188 20.054688 44.070312 20.050781 Z M 44.070312 20.050781 " fill-opacity="1" fill-rule="nonzero"/><path fill="#000000" d="M 36.144531 28.734375 C 36.257812 28.527344 36.328125 28.304688 36.351562 28.070312 C 36.378906 27.835938 36.363281 27.605469 36.300781 27.378906 C 36.238281 27.152344 36.136719 26.945312 35.992188 26.757812 C 35.851562 26.570312 35.679688 26.417969 35.476562 26.296875 L 26.886719 21.320312 C 26.675781 21.199219 26.453125 21.121094 26.210938 21.089844 C 25.972656 21.058594 25.734375 21.074219 25.5 21.136719 C 25.269531 21.199219 25.054688 21.304688 24.863281 21.453125 C 24.671875 21.601562 24.515625 21.78125 24.394531 21.992188 C 24.273438 22.203125 24.199219 22.425781 24.167969 22.667969 C 24.132812 22.90625 24.148438 23.144531 24.214844 23.378906 C 24.277344 23.613281 24.378906 23.828125 24.527344 24.019531 C 24.675781 24.210938 24.855469 24.371094 25.0625 24.492188 L 33.65625 29.464844 C 33.859375 29.578125 34.082031 29.648438 34.3125 29.671875 C 34.546875 29.699219 34.777344 29.683594 35.003906 29.621094 C 35.230469 29.558594 35.4375 29.453125 35.625 29.3125 C 35.8125 29.167969 35.964844 28.996094 36.085938 28.792969 Z M 36.144531 28.734375 " fill-opacity="1" fill-rule="nonzero"/><g clip-path="url(#4c4c45379b)"><path fill="#000000" d="M 21.199219 42.707031 L 31.125 42.707031 C 31.367188 42.707031 31.601562 42.660156 31.824219 42.566406 C 32.046875 42.472656 32.246094 42.34375 32.414062 42.171875 C 32.585938 42 32.71875 41.800781 32.8125 41.578125 C 32.902344 41.351562 32.949219 41.121094 32.949219 40.878906 C 32.949219 40.636719 32.902344 40.402344 32.8125 40.179688 C 32.71875 39.953125 32.585938 39.757812 32.414062 39.585938 C 32.246094 39.414062 32.046875 39.28125 31.824219 39.1875 C 31.601562 39.09375 31.367188 39.046875 31.125 39.046875 L 21.199219 39.046875 C 20.957031 39.046875 20.722656 39.09375 20.5 39.1875 C 20.277344 39.28125 20.082031 39.414062 19.910156 39.585938 C 19.738281 39.757812 19.605469 39.953125 19.515625 40.179688 C 19.421875 40.402344 19.375 40.636719 19.375 40.878906 C 19.375 41.121094 19.421875 41.351562 19.515625 41.578125 C 19.605469 41.800781 19.738281 42 19.910156 42.171875 C 20.082031 42.34375 20.277344 42.472656 20.5 42.566406 C 20.722656 42.660156 20.957031 42.707031 21.199219 42.707031 Z M 21.199219 42.707031 " fill-opacity="1" fill-rule="nonzero"/></g><path fill="#000000" d="M 24.46875 59.824219 C 24.589844 60.027344 24.742188 60.199219 24.929688 60.34375 C 25.117188 60.484375 25.320312 60.585938 25.546875 60.648438 C 25.773438 60.710938 26.003906 60.730469 26.238281 60.703125 C 26.472656 60.675781 26.691406 60.609375 26.898438 60.496094 L 35.488281 55.519531 C 35.699219 55.398438 35.878906 55.242188 36.023438 55.050781 C 36.171875 54.859375 36.277344 54.644531 36.339844 54.410156 C 36.402344 54.175781 36.417969 53.9375 36.386719 53.699219 C 36.355469 53.457031 36.277344 53.230469 36.15625 53.019531 C 36.035156 52.8125 35.878906 52.632812 35.6875 52.484375 C 35.496094 52.335938 35.285156 52.230469 35.050781 52.167969 C 34.816406 52.105469 34.582031 52.089844 34.339844 52.121094 C 34.101562 52.152344 33.875 52.230469 33.667969 52.351562 L 25.136719 57.324219 C 24.925781 57.445312 24.746094 57.601562 24.601562 57.796875 C 24.453125 57.988281 24.347656 58.203125 24.285156 58.4375 C 24.222656 58.671875 24.207031 58.90625 24.238281 59.148438 C 24.269531 59.390625 24.347656 59.613281 24.46875 59.824219 Z M 24.46875 59.824219 " fill-opacity="1" fill-rule="nonzero"/><path fill="#000000" d="M 78.8125 55.375 L 87.453125 60.363281 C 87.660156 60.480469 87.886719 60.558594 88.125 60.589844 C 88.363281 60.621094 88.601562 60.605469 88.835938 60.542969 C 89.066406 60.480469 89.28125 60.375 89.472656 60.226562 C 89.664062 60.078125 89.820312 59.898438 89.941406 59.6875 C 90.058594 59.480469 90.136719 59.253906 90.167969 59.015625 C 90.199219 58.773438 90.183594 58.535156 90.121094 58.300781 C 90.058594 58.066406 89.953125 57.855469 89.808594 57.664062 C 89.660156 57.46875 89.484375 57.3125 89.273438 57.191406 L 80.683594 52.214844 C 80.472656 52.09375 80.25 52.019531 80.007812 51.988281 C 79.769531 51.957031 79.53125 51.972656 79.296875 52.035156 C 79.066406 52.097656 78.851562 52.203125 78.660156 52.351562 C 78.46875 52.5 78.3125 52.675781 78.191406 52.886719 C 78.070312 53.097656 77.996094 53.324219 77.964844 53.5625 C 77.929688 53.804688 77.945312 54.042969 78.007812 54.277344 C 78.074219 54.511719 78.175781 54.722656 78.324219 54.917969 C 78.472656 55.109375 78.648438 55.265625 78.859375 55.386719 Z M 78.8125 55.375 " fill-opacity="1" fill-rule="nonzero"/><g clip-path="url(#2451d00f24)"><path fill="#000000" d="M 94.925781 40.730469 C 94.925781 40.488281 94.878906 40.253906 94.785156 40.03125 C 94.695312 39.808594 94.5625 39.609375 94.390625 39.4375 C 94.21875 39.265625 94.023438 39.132812 93.800781 39.042969 C 93.578125 38.949219 93.34375 38.902344 93.101562 38.902344 L 83.171875 38.902344 C 82.933594 38.902344 82.699219 38.949219 82.476562 39.042969 C 82.253906 39.132812 82.054688 39.265625 81.886719 39.4375 C 81.714844 39.609375 81.582031 39.808594 81.488281 40.03125 C 81.398438 40.253906 81.351562 40.488281 81.351562 40.730469 C 81.351562 40.972656 81.398438 41.207031 81.488281 41.429688 C 81.582031 41.65625 81.714844 41.851562 81.886719 42.023438 C 82.054688 42.195312 82.253906 42.328125 82.476562 42.421875 C 82.699219 42.515625 82.933594 42.558594 83.171875 42.558594 L 93.101562 42.558594 C 93.34375 42.558594 93.578125 42.515625 93.800781 42.421875 C 94.023438 42.328125 94.21875 42.195312 94.390625 42.023438 C 94.5625 41.851562 94.695312 41.65625 94.785156 41.429688 C 94.878906 41.207031 94.925781 40.972656 94.925781 40.730469 Z M 94.925781 40.730469 " fill-opacity="1" fill-rule="nonzero"/></g><path fill="#000000" d="M 79.648438 29.527344 C 79.976562 29.527344 80.277344 29.445312 80.5625 29.28125 L 89.152344 24.285156 C 89.363281 24.164062 89.539062 24.003906 89.6875 23.8125 C 89.835938 23.621094 89.941406 23.40625 90.003906 23.171875 C 90.066406 22.9375 90.082031 22.699219 90.050781 22.460938 C 90.019531 22.21875 89.941406 21.996094 89.820312 21.785156 C 89.699219 21.574219 89.542969 21.394531 89.351562 21.246094 C 89.160156 21.097656 88.949219 20.992188 88.714844 20.929688 C 88.480469 20.867188 88.242188 20.851562 88.003906 20.882812 C 87.765625 20.914062 87.539062 20.992188 87.328125 21.113281 L 78.738281 26.089844 C 78.378906 26.292969 78.121094 26.589844 77.964844 26.972656 C 77.804688 27.355469 77.78125 27.746094 77.886719 28.144531 C 77.992188 28.546875 78.210938 28.871094 78.539062 29.125 C 78.867188 29.375 79.238281 29.503906 79.648438 29.5 Z M 79.648438 29.527344 " fill-opacity="1" fill-rule="nonzero"/><path fill="#000000" d="M 70.097656 19.980469 C 70.425781 19.980469 70.726562 19.898438 71.011719 19.734375 C 71.292969 19.570312 71.515625 19.347656 71.679688 19.066406 L 76.636719 10.445312 C 76.757812 10.234375 76.832031 10.007812 76.863281 9.769531 C 76.894531 9.527344 76.878906 9.289062 76.816406 9.054688 C 76.753906 8.820312 76.648438 8.609375 76.503906 8.414062 C 76.355469 8.222656 76.175781 8.066406 75.96875 7.945312 C 75.757812 7.824219 75.535156 7.746094 75.292969 7.714844 C 75.054688 7.683594 74.816406 7.699219 74.582031 7.761719 C 74.351562 7.824219 74.136719 7.929688 73.945312 8.078125 C 73.753906 8.226562 73.597656 8.40625 73.476562 8.617188 L 68.519531 17.234375 C 68.355469 17.519531 68.273438 17.824219 68.273438 18.152344 C 68.273438 18.476562 68.355469 18.78125 68.519531 19.066406 C 68.683594 19.347656 68.90625 19.570312 69.1875 19.734375 C 69.46875 19.898438 69.773438 19.980469 70.097656 19.980469 Z M 70.097656 19.980469 " fill-opacity="1" fill-rule="nonzero"/><path fill="#000000" d="M 57.070312 36.050781 C 56.78125 36.050781 56.492188 36.082031 56.207031 36.140625 C 55.921875 36.199219 55.644531 36.285156 55.378906 36.398438 C 55.109375 36.507812 54.855469 36.648438 54.613281 36.8125 C 54.371094 36.972656 54.148438 37.160156 53.945312 37.367188 C 53.742188 37.574219 53.558594 37.800781 53.398438 38.042969 C 53.238281 38.285156 53.101562 38.542969 52.992188 38.8125 C 52.878906 39.082031 52.796875 39.363281 52.742188 39.648438 C 52.6875 39.933594 52.660156 40.222656 52.660156 40.515625 C 52.660156 40.808594 52.691406 41.097656 52.75 41.382812 C 52.804688 41.667969 52.890625 41.945312 53.003906 42.214844 C 53.117188 42.484375 53.253906 42.742188 53.414062 42.984375 C 53.578125 43.226562 53.761719 43.449219 53.96875 43.65625 C 54.175781 43.859375 54.398438 44.042969 54.640625 44.207031 C 54.882812 44.367188 55.136719 44.503906 55.40625 44.613281 C 55.675781 44.726562 55.953125 44.808594 56.238281 44.867188 C 56.523438 44.921875 56.8125 44.949219 57.105469 44.949219 C 57.394531 44.949219 57.683594 44.921875 57.96875 44.863281 C 58.253906 44.804688 58.53125 44.722656 58.796875 44.609375 C 59.066406 44.496094 59.324219 44.359375 59.5625 44.195312 C 59.804688 44.035156 60.03125 43.851562 60.234375 43.644531 C 60.441406 43.4375 60.625 43.210938 60.785156 42.96875 C 60.945312 42.726562 61.082031 42.46875 61.195312 42.199219 C 61.304688 41.929688 61.390625 41.652344 61.445312 41.367188 C 61.503906 41.082031 61.53125 40.792969 61.53125 40.5 C 61.53125 40.207031 61.503906 39.914062 61.445312 39.628906 C 61.386719 39.339844 61.304688 39.0625 61.191406 38.789062 C 61.078125 38.519531 60.941406 38.261719 60.777344 38.019531 C 60.617188 37.777344 60.429688 37.550781 60.222656 37.34375 C 60.015625 37.136719 59.789062 36.953125 59.546875 36.789062 C 59.304688 36.628906 59.046875 36.492188 58.777344 36.382812 C 58.503906 36.269531 58.226562 36.1875 57.941406 36.128906 C 57.652344 36.074219 57.363281 36.046875 57.070312 36.050781 Z M 57.070312 42.5 C 56.804688 42.496094 56.550781 42.441406 56.308594 42.335938 C 56.0625 42.230469 55.847656 42.085938 55.664062 41.894531 C 55.476562 41.703125 55.335938 41.484375 55.234375 41.238281 C 55.136719 40.992188 55.089844 40.734375 55.089844 40.46875 C 55.09375 40.199219 55.148438 39.945312 55.25 39.699219 C 55.355469 39.453125 55.5 39.238281 55.691406 39.050781 C 55.878906 38.867188 56.097656 38.722656 56.34375 38.621094 C 56.589844 38.523438 56.847656 38.472656 57.113281 38.476562 C 57.378906 38.476562 57.632812 38.53125 57.875 38.636719 C 58.121094 38.738281 58.335938 38.886719 58.523438 39.074219 C 58.710938 39.265625 58.851562 39.484375 58.953125 39.730469 C 59.054688 39.976562 59.101562 40.234375 59.101562 40.5 C 59.101562 40.769531 59.050781 41.027344 58.945312 41.273438 C 58.84375 41.523438 58.695312 41.742188 58.503906 41.929688 C 58.3125 42.121094 58.09375 42.265625 57.847656 42.367188 C 57.597656 42.464844 57.339844 42.515625 57.070312 42.511719 Z M 57.070312 42.5 " fill-opacity="1" fill-rule="nonzero"/><path fill="#000000" d="M 68.007812 37.414062 L 65.882812 37.414062 C 65.765625 37.078125 65.632812 36.75 65.480469 36.425781 L 66.988281 34.914062 C 67.101562 34.800781 67.1875 34.667969 67.25 34.519531 C 67.308594 34.371094 67.339844 34.21875 67.339844 34.054688 C 67.339844 33.894531 67.308594 33.738281 67.25 33.589844 C 67.1875 33.441406 67.101562 33.308594 66.988281 33.195312 L 64.363281 30.5625 C 64.25 30.449219 64.117188 30.363281 63.96875 30.300781 C 63.820312 30.238281 63.667969 30.207031 63.503906 30.207031 C 63.34375 30.207031 63.191406 30.238281 63.042969 30.300781 C 62.894531 30.363281 62.761719 30.449219 62.648438 30.5625 L 61.140625 32.074219 C 60.820312 31.921875 60.492188 31.789062 60.15625 31.671875 L 60.15625 29.527344 C 60.15625 29.363281 60.128906 29.210938 60.066406 29.058594 C 60.003906 28.910156 59.914062 28.777344 59.800781 28.664062 C 59.6875 28.550781 59.558594 28.460938 59.40625 28.398438 C 59.257812 28.339844 59.105469 28.308594 58.941406 28.308594 L 55.210938 28.308594 C 55.050781 28.308594 54.894531 28.339844 54.746094 28.398438 C 54.597656 28.460938 54.464844 28.550781 54.351562 28.664062 C 54.238281 28.777344 54.152344 28.910156 54.089844 29.058594 C 54.027344 29.210938 53.996094 29.363281 53.996094 29.527344 L 53.996094 31.671875 C 53.664062 31.789062 53.339844 31.921875 53.023438 32.074219 L 51.503906 30.550781 C 51.390625 30.4375 51.261719 30.347656 51.113281 30.289062 C 50.964844 30.226562 50.808594 30.195312 50.648438 30.195312 C 50.488281 30.195312 50.335938 30.226562 50.1875 30.289062 C 50.039062 30.347656 49.90625 30.4375 49.792969 30.550781 L 47.167969 33.183594 C 47.054688 33.296875 46.96875 33.429688 46.90625 33.578125 C 46.84375 33.726562 46.8125 33.882812 46.8125 34.042969 C 46.8125 34.203125 46.84375 34.359375 46.90625 34.507812 C 46.96875 34.65625 47.054688 34.789062 47.167969 34.902344 L 48.699219 36.441406 C 48.546875 36.753906 48.414062 37.074219 48.296875 37.402344 L 46.132812 37.402344 C 45.972656 37.402344 45.820312 37.433594 45.667969 37.496094 C 45.519531 37.558594 45.390625 37.644531 45.273438 37.761719 C 45.160156 37.875 45.074219 38.007812 45.011719 38.15625 C 44.949219 38.304688 44.917969 38.460938 44.917969 38.621094 L 44.917969 42.351562 C 44.917969 42.515625 44.949219 42.671875 45.011719 42.820312 C 45.074219 42.96875 45.160156 43.101562 45.273438 43.214844 C 45.390625 43.328125 45.519531 43.417969 45.667969 43.480469 C 45.820312 43.542969 45.972656 43.570312 46.132812 43.570312 L 48.308594 43.570312 C 48.421875 43.894531 48.550781 44.214844 48.699219 44.523438 L 47.15625 46.070312 C 47.042969 46.1875 46.953125 46.316406 46.894531 46.464844 C 46.832031 46.613281 46.800781 46.769531 46.800781 46.929688 C 46.800781 47.09375 46.832031 47.246094 46.894531 47.394531 C 46.953125 47.546875 47.042969 47.675781 47.15625 47.789062 L 49.78125 50.4375 C 49.894531 50.550781 50.023438 50.636719 50.171875 50.699219 C 50.320312 50.761719 50.476562 50.792969 50.636719 50.792969 C 50.796875 50.792969 50.953125 50.761719 51.101562 50.699219 C 51.25 50.636719 51.378906 50.550781 51.492188 50.4375 L 53.035156 48.886719 C 53.34375 49.035156 53.660156 49.164062 53.984375 49.277344 L 53.984375 51.472656 C 53.984375 51.632812 54.015625 51.789062 54.078125 51.941406 C 54.140625 52.089844 54.226562 52.222656 54.339844 52.335938 C 54.453125 52.449219 54.585938 52.539062 54.734375 52.597656 C 54.882812 52.660156 55.039062 52.691406 55.199219 52.691406 L 58.917969 52.691406 C 59.078125 52.691406 59.234375 52.660156 59.382812 52.597656 C 59.53125 52.539062 59.664062 52.449219 59.777344 52.335938 C 59.890625 52.222656 59.980469 52.089844 60.042969 51.941406 C 60.101562 51.789062 60.132812 51.632812 60.132812 51.472656 L 60.132812 49.300781 C 60.460938 49.1875 60.78125 49.054688 61.09375 48.898438 L 62.625 50.4375 C 62.738281 50.550781 62.871094 50.636719 63.019531 50.699219 C 63.167969 50.761719 63.320312 50.792969 63.480469 50.792969 C 63.640625 50.792969 63.796875 50.761719 63.945312 50.699219 C 64.09375 50.636719 64.222656 50.550781 64.339844 50.4375 L 66.976562 47.816406 C 67.089844 47.699219 67.175781 47.570312 67.238281 47.421875 C 67.296875 47.273438 67.328125 47.117188 67.328125 46.957031 C 67.328125 46.792969 67.296875 46.640625 67.238281 46.492188 C 67.175781 46.34375 67.089844 46.210938 66.976562 46.097656 L 65.457031 44.570312 C 65.609375 44.253906 65.742188 43.929688 65.855469 43.597656 L 68.007812 43.597656 C 68.167969 43.597656 68.324219 43.566406 68.472656 43.503906 C 68.621094 43.441406 68.753906 43.355469 68.867188 43.238281 C 68.980469 43.125 69.070312 42.992188 69.128906 42.84375 C 69.191406 42.695312 69.222656 42.539062 69.222656 42.378906 L 69.222656 38.632812 C 69.222656 38.472656 69.191406 38.316406 69.128906 38.167969 C 69.070312 38.019531 68.980469 37.886719 68.867188 37.773438 C 68.753906 37.65625 68.621094 37.570312 68.472656 37.507812 C 68.324219 37.445312 68.167969 37.414062 68.007812 37.414062 Z M 66.792969 41.144531 L 64.957031 41.144531 C 64.671875 41.136719 64.414062 41.222656 64.183594 41.398438 C 63.957031 41.574219 63.808594 41.804688 63.742188 42.085938 C 63.566406 42.8125 63.285156 43.496094 62.890625 44.132812 C 62.753906 44.382812 62.710938 44.648438 62.757812 44.925781 C 62.804688 45.207031 62.9375 45.441406 63.148438 45.632812 L 64.363281 46.9375 L 63.449219 47.851562 L 62.1875 46.597656 C 61.996094 46.394531 61.765625 46.269531 61.492188 46.226562 C 61.21875 46.183594 60.960938 46.230469 60.71875 46.363281 C 60.085938 46.753906 59.410156 47.035156 58.6875 47.207031 C 58.40625 47.273438 58.179688 47.417969 58.003906 47.648438 C 57.828125 47.878906 57.746094 48.136719 57.75 48.425781 L 57.75 50.253906 L 56.425781 50.253906 L 56.425781 48.375 C 56.433594 48.085938 56.351562 47.828125 56.175781 47.601562 C 56 47.371094 55.773438 47.222656 55.492188 47.15625 C 54.757812 47 54.070312 46.734375 53.425781 46.351562 C 53.1875 46.203125 52.929688 46.144531 52.648438 46.175781 C 52.371094 46.210938 52.128906 46.324219 51.929688 46.523438 L 50.65625 47.816406 L 49.78125 46.9375 L 51.105469 45.609375 C 51.285156 45.40625 51.386719 45.171875 51.410156 44.90625 C 51.4375 44.636719 51.378906 44.386719 51.238281 44.15625 C 50.851562 43.527344 50.570312 42.851562 50.398438 42.132812 C 50.332031 41.851562 50.1875 41.625 49.957031 41.449219 C 49.730469 41.269531 49.472656 41.1875 49.183594 41.195312 L 47.351562 41.195312 L 47.351562 39.851562 L 49.210938 39.851562 C 49.496094 39.859375 49.753906 39.777344 49.984375 39.601562 C 50.210938 39.425781 50.359375 39.195312 50.425781 38.914062 C 50.578125 38.179688 50.847656 37.488281 51.226562 36.84375 C 51.359375 36.597656 51.40625 36.339844 51.363281 36.066406 C 51.320312 35.789062 51.195312 35.558594 50.996094 35.367188 L 49.78125 34.0625 L 50.691406 33.148438 L 51.957031 34.402344 C 52.15625 34.605469 52.398438 34.722656 52.679688 34.753906 C 52.960938 34.785156 53.222656 34.726562 53.460938 34.574219 C 54.097656 34.175781 54.777344 33.894531 55.503906 33.71875 C 55.785156 33.652344 56.011719 33.507812 56.1875 33.277344 C 56.363281 33.050781 56.445312 32.789062 56.441406 32.5 L 56.441406 30.746094 L 57.726562 30.746094 L 57.726562 32.574219 C 57.71875 32.863281 57.804688 33.121094 57.980469 33.351562 C 58.15625 33.578125 58.382812 33.726562 58.664062 33.792969 C 59.394531 33.964844 60.078125 34.25 60.71875 34.648438 C 60.960938 34.78125 61.222656 34.828125 61.5 34.78125 C 61.777344 34.738281 62.011719 34.609375 62.199219 34.402344 L 63.488281 33.183594 L 64.398438 34.097656 L 63.148438 35.34375 C 62.945312 35.539062 62.824219 35.777344 62.785156 36.054688 C 62.746094 36.335938 62.796875 36.597656 62.941406 36.84375 C 63.335938 37.480469 63.621094 38.167969 63.792969 38.902344 C 63.859375 39.183594 64.003906 39.414062 64.234375 39.589844 C 64.460938 39.765625 64.71875 39.847656 65.007812 39.839844 L 66.792969 39.839844 Z M 66.792969 41.144531 " fill-opacity="1" fill-rule="nonzero"/></svg>