<svg xmlns="http://www.w3.org/2000/svg" xmlns:xlink="http://www.w3.org/1999/xlink" width="350" zoomAndPan="magnify" viewBox="0 0 262.5 209.999996" height="280" preserveAspectRatio="xMidYMid meet" version="1.0"><defs><clipPath id="98aa439d10"><path d="M 25.386719 6.433594 L 240.886719 6.433594 L 240.886719 150 L 25.386719 150 Z M 25.386719 6.433594 " clip-rule="nonzero"/></clipPath><clipPath id="bd0f600b82"><path d="M 88 194 L 179 194 L 179 203.308594 L 88 203.308594 Z M 88 194 " clip-rule="nonzero"/></clipPath><clipPath id="8a8c584d51"><path d="M 110 176 L 156 176 L 156 203.308594 L 110 203.308594 Z M 110 176 " clip-rule="nonzero"/></clipPath><clipPath id="71c05cd0c0"><path d="M 25.386719 140 L 240.886719 140 L 240.886719 186 L 25.386719 186 Z M 25.386719 140 " clip-rule="nonzero"/></clipPath></defs><g clip-path="url(#98aa439d10)"><path fill="#7c3ea3" d="M 34.359375 140.730469 L 231.890625 140.730469 L 231.890625 24.332031 C 231.890625 19.390625 227.863281 15.371094 222.917969 15.371094 L 43.34375 15.371094 C 38.386719 15.371094 34.359375 19.390625 34.359375 24.332031 Z M 236.386719 149.691406 L 29.871094 149.691406 C 27.398438 149.691406 25.386719 147.679688 25.386719 145.214844 L 25.386719 24.332031 C 25.386719 14.457031 33.441406 6.421875 43.34375 6.421875 L 222.917969 6.421875 C 232.820312 6.421875 240.875 14.457031 240.875 24.332031 L 240.875 145.214844 C 240.875 147.679688 238.859375 149.691406 236.386719 149.691406 " fill-opacity="1" fill-rule="nonzero"/></g><g clip-path="url(#bd0f600b82)"><path fill="#7c3ea3" d="M 173.527344 203.417969 L 92.722656 203.417969 C 90.25 203.417969 88.234375 201.410156 88.234375 198.933594 C 88.234375 196.46875 90.25 194.457031 92.722656 194.457031 L 173.527344 194.457031 C 176.011719 194.457031 178.027344 196.46875 178.027344 198.933594 C 178.027344 201.410156 176.011719 203.417969 173.527344 203.417969 " fill-opacity="1" fill-rule="nonzero"/></g><path fill="#ffffff" d="M 151.082031 198.933594 L 115.175781 198.933594 L 115.175781 181.023438 L 151.082031 181.023438 L 151.082031 198.933594 " fill-opacity="1" fill-rule="nonzero"/><g clip-path="url(#8a8c584d51)"><path fill="#7c3ea3" d="M 119.664062 194.457031 L 146.597656 194.457031 L 146.597656 185.507812 L 119.664062 185.507812 Z M 151.082031 203.417969 L 115.175781 203.417969 C 112.695312 203.417969 110.679688 201.410156 110.679688 198.933594 L 110.679688 181.023438 C 110.679688 178.558594 112.695312 176.546875 115.175781 176.546875 L 151.082031 176.546875 C 153.566406 176.546875 155.582031 178.558594 155.582031 181.023438 L 155.582031 198.933594 C 155.582031 201.410156 153.566406 203.417969 151.082031 203.417969 " fill-opacity="1" fill-rule="nonzero"/></g><path fill="#d2b0dd" d="M 29.871094 167.597656 L 29.871094 145.214844 L 236.386719 145.214844 L 236.386719 167.597656 C 236.386719 175.019531 230.355469 181.023438 222.917969 181.023438 L 43.34375 181.023438 C 35.902344 181.023438 29.871094 175.019531 29.871094 167.597656 " fill-opacity="1" fill-rule="nonzero"/><g clip-path="url(#71c05cd0c0)"><path fill="#7c3ea3" d="M 230.191406 183.355469 C 228.65625 183.355469 227.226562 182.59375 226.410156 181.292969 C 225.785156 180.304688 225.566406 179.097656 225.785156 177.941406 C 226.058594 176.820312 226.726562 175.789062 227.714844 175.164062 C 227.714844 175.164062 227.757812 175.164062 227.757812 175.113281 C 229.78125 173.824219 232.652344 174.445312 233.957031 176.464844 C 235.300781 178.515625 234.71875 181.292969 232.609375 182.679688 C 231.890625 183.125 231.046875 183.355469 230.191406 183.355469 Z M 212.636719 185.507812 L 43.34375 185.507812 C 33.460938 185.507812 25.386719 177.496094 25.386719 167.597656 L 25.386719 145.214844 C 25.386719 144.050781 25.875 142.882812 26.691406 142.03125 C 27.546875 141.230469 28.703125 140.730469 29.871094 140.730469 L 236.386719 140.730469 C 237.546875 140.730469 238.714844 141.230469 239.570312 142.03125 C 240.375 142.882812 240.875 144.050781 240.875 145.214844 L 240.875 163.125 C 240.875 165.582031 238.851562 167.597656 236.386719 167.597656 C 233.914062 167.597656 231.890625 165.582031 231.890625 163.125 L 231.890625 149.691406 L 34.359375 149.691406 L 34.359375 167.597656 C 34.359375 172.519531 38.410156 176.546875 43.34375 176.546875 L 212.636719 176.546875 C 215.152344 176.546875 217.125 178.566406 217.125 181.023438 C 217.125 183.488281 215.152344 185.507812 212.636719 185.507812 " fill-opacity="1" fill-rule="nonzero"/></g><path fill="#7c3ea3" d="M 137.621094 167.597656 L 128.636719 167.597656 C 126.164062 167.597656 124.152344 165.589844 124.152344 163.125 C 124.152344 160.648438 126.164062 158.640625 128.636719 158.640625 L 137.621094 158.640625 C 140.09375 158.640625 142.109375 160.648438 142.109375 163.125 C 142.109375 165.589844 140.09375 167.597656 137.621094 167.597656 " fill-opacity="1" fill-rule="nonzero"/><path fill="#5eb4e8" d="M 68.105469 100.433594 C 59.402344 100.433594 52.316406 93.410156 52.316406 84.773438 L 52.316406 60.140625 C 52.316406 57.675781 54.332031 55.667969 56.816406 55.667969 C 59.289062 55.667969 61.300781 57.675781 61.300781 60.140625 L 61.300781 84.773438 C 61.300781 88.476562 64.347656 91.484375 68.105469 91.484375 C 71.863281 91.484375 74.917969 88.476562 74.917969 84.773438 L 74.917969 60.140625 C 74.917969 57.675781 76.933594 55.667969 79.40625 55.667969 C 81.890625 55.667969 83.894531 57.675781 83.894531 60.140625 L 83.894531 84.773438 C 83.894531 93.410156 76.820312 100.433594 68.105469 100.433594 " fill-opacity="1" fill-rule="nonzero"/><path fill="#5eb4e8" d="M 105.503906 82.535156 C 103.804688 82.535156 102.25 81.578125 101.488281 80.070312 L 92.449219 62.160156 C 91.332031 59.953125 92.230469 57.257812 94.441406 56.144531 C 96.664062 55.03125 99.359375 55.925781 100.472656 58.132812 L 105.503906 68.09375 L 110.535156 58.132812 C 111.640625 55.925781 114.332031 55.03125 116.566406 56.144531 C 118.777344 57.257812 119.664062 59.953125 118.546875 62.160156 L 109.511719 80.070312 C 108.75 81.578125 107.195312 82.535156 105.503906 82.535156 " fill-opacity="1" fill-rule="nonzero"/><path fill="#5eb4e8" d="M 96.457031 100.433594 C 95.777344 100.433594 95.089844 100.289062 94.441406 99.957031 C 92.230469 98.855469 91.332031 96.160156 92.449219 93.953125 L 101.488281 76.042969 C 103.011719 73.023438 107.988281 73.023438 109.511719 76.042969 L 118.546875 93.953125 C 119.664062 96.160156 118.777344 98.855469 116.566406 99.957031 C 114.34375 101.082031 111.640625 100.1875 110.535156 97.980469 L 105.503906 88.011719 L 100.472656 97.980469 C 99.679688 99.539062 98.105469 100.433594 96.457031 100.433594 " fill-opacity="1" fill-rule="nonzero"/><path fill="#f9a813" d="M 181.09375 100.433594 C 172.390625 100.433594 165.304688 93.410156 165.304688 84.773438 L 165.304688 60.140625 C 165.304688 57.675781 167.320312 55.667969 169.792969 55.667969 C 172.277344 55.667969 174.28125 57.675781 174.28125 60.140625 L 174.28125 84.773438 C 174.28125 88.476562 177.335938 91.484375 181.09375 91.484375 C 184.851562 91.484375 187.90625 88.476562 187.90625 84.773438 L 187.90625 60.140625 C 187.90625 57.675781 189.910156 55.667969 192.394531 55.667969 C 194.867188 55.667969 196.882812 57.675781 196.882812 60.140625 L 196.882812 84.773438 C 196.882812 93.410156 189.796875 100.433594 181.09375 100.433594 " fill-opacity="1" fill-rule="nonzero"/><path fill="#f9a813" d="M 209.445312 100.433594 C 206.972656 100.433594 204.957031 98.4375 204.957031 95.960938 L 204.957031 60.140625 C 204.957031 57.675781 206.972656 55.667969 209.445312 55.667969 C 211.929688 55.667969 213.933594 57.675781 213.933594 60.140625 L 213.933594 95.960938 C 213.933594 98.4375 211.929688 100.433594 209.445312 100.433594 " fill-opacity="1" fill-rule="nonzero"/><path fill="#f8a1ad" d="M 155.214844 46.71875 L 132.613281 109.394531 L 155.214844 46.71875 " fill-opacity="1" fill-rule="nonzero"/><path fill="#ee275c" d="M 132.613281 113.871094 C 132.113281 113.871094 131.601562 113.785156 131.101562 113.609375 C 128.761719 112.765625 127.554688 110.207031 128.398438 107.875 L 150.988281 45.199219 C 151.824219 42.875 154.402344 41.660156 156.726562 42.503906 C 159.066406 43.335938 160.277344 45.90625 159.441406 48.226562 L 136.839844 110.90625 C 136.183594 112.734375 134.460938 113.871094 132.613281 113.871094 " fill-opacity="1" fill-rule="nonzero"/><path fill="#ee275c" d="M 209.445312 33.28125 L 56.816406 33.28125 C 54.332031 33.28125 52.316406 31.273438 52.316406 28.808594 C 52.316406 26.332031 54.332031 24.332031 56.816406 24.332031 L 209.445312 24.332031 C 211.929688 24.332031 213.933594 26.332031 213.933594 28.808594 C 213.933594 31.273438 211.929688 33.28125 209.445312 33.28125 " fill-opacity="1" fill-rule="nonzero"/><path fill="#ee275c" d="M 209.445312 131.78125 L 56.816406 131.78125 C 54.332031 131.78125 52.316406 129.769531 52.316406 127.304688 C 52.316406 124.828125 54.332031 122.832031 56.816406 122.832031 L 209.445312 122.832031 C 211.929688 122.832031 213.933594 124.828125 213.933594 127.304688 C 213.933594 129.769531 211.929688 131.78125 209.445312 131.78125 " fill-opacity="1" fill-rule="nonzero"/></svg>