<svg xmlns="http://www.w3.org/2000/svg" xmlns:xlink="http://www.w3.org/1999/xlink" width="350" zoomAndPan="magnify" viewBox="0 0 262.5 209.999996" height="280" preserveAspectRatio="xMidYMid meet" version="1.0"><defs><clipPath id="b3e8eeba3f"><path d="M 35.261719 7.769531 L 247.859375 7.769531 L 247.859375 202.398438 L 35.261719 202.398438 Z M 35.261719 7.769531 " clip-rule="nonzero"/></clipPath></defs><g clip-path="url(#b3e8eeba3f)"><path fill="#8c52ff" d="M 216.511719 149.191406 C 213.859375 149.191406 212.089844 150.960938 212.089844 153.609375 L 212.089844 180.128906 C 212.089844 187.199219 205.902344 193.386719 198.832031 193.386719 L 57.410156 193.386719 C 50.339844 193.386719 44.152344 187.199219 44.152344 180.128906 L 44.152344 51.964844 L 212.089844 51.964844 L 212.089844 82.902344 C 212.089844 85.550781 213.859375 87.320312 216.511719 87.320312 C 219.160156 87.320312 220.929688 85.550781 220.929688 82.902344 L 220.929688 29.867188 C 220.929688 17.492188 211.207031 7.769531 198.832031 7.769531 L 57.410156 7.769531 C 45.035156 7.769531 35.3125 17.492188 35.3125 29.867188 L 35.3125 180.128906 C 35.3125 192.5 45.035156 202.222656 57.410156 202.222656 L 198.832031 202.222656 C 211.207031 202.222656 220.929688 192.5 220.929688 180.128906 L 220.929688 153.609375 C 220.929688 150.960938 219.160156 149.191406 216.511719 149.191406 Z M 92.765625 25.449219 C 95.417969 25.449219 97.1875 27.214844 97.1875 29.867188 C 97.1875 32.519531 95.417969 34.285156 92.765625 34.285156 C 90.113281 34.285156 88.347656 32.519531 88.347656 29.867188 C 88.347656 27.214844 90.113281 25.449219 92.765625 25.449219 Z M 75.089844 25.449219 C 77.742188 25.449219 79.507812 27.214844 79.507812 29.867188 C 79.507812 32.519531 77.742188 34.285156 75.089844 34.285156 C 72.4375 34.285156 70.667969 32.519531 70.667969 29.867188 C 70.667969 27.214844 72.4375 25.449219 75.089844 25.449219 Z M 57.410156 25.449219 C 60.0625 25.449219 61.832031 27.214844 61.832031 29.867188 C 61.832031 32.519531 60.0625 34.285156 57.410156 34.285156 C 54.761719 34.285156 52.992188 32.519531 52.992188 29.867188 C 52.992188 27.214844 54.761719 25.449219 57.410156 25.449219 Z M 234.1875 96.160156 L 225.347656 96.160156 C 222.695312 96.160156 220.929688 97.925781 220.929688 100.578125 L 220.929688 135.933594 C 220.929688 138.585938 222.695312 140.351562 225.347656 140.351562 C 228 140.351562 229.769531 138.585938 229.769531 135.933594 L 229.769531 122.675781 L 234.1875 122.675781 C 241.257812 122.675781 247.445312 116.488281 247.445312 109.417969 C 247.445312 102.347656 241.257812 96.160156 234.1875 96.160156 Z M 234.1875 113.835938 L 229.769531 113.835938 L 229.769531 104.996094 L 234.1875 104.996094 C 236.839844 104.996094 238.605469 106.765625 238.605469 109.417969 C 238.605469 112.070312 236.839844 113.835938 234.1875 113.835938 Z M 189.992188 96.160156 C 187.34375 96.160156 185.574219 97.925781 185.574219 100.578125 L 185.574219 135.933594 C 185.574219 138.585938 187.34375 140.351562 189.992188 140.351562 C 192.644531 140.351562 194.414062 138.585938 194.414062 135.933594 L 194.414062 122.675781 L 198.832031 122.675781 C 205.902344 122.675781 212.089844 116.488281 212.089844 109.417969 C 212.089844 102.347656 205.902344 96.160156 198.832031 96.160156 Z M 203.25 109.417969 C 203.25 112.070312 201.484375 113.835938 198.832031 113.835938 L 194.414062 113.835938 L 194.414062 104.996094 L 198.832031 104.996094 C 201.484375 104.996094 203.25 106.765625 203.25 109.417969 Z M 154.636719 98.8125 L 141.378906 134.164062 C 140.496094 136.816406 141.378906 138.585938 144.03125 139.46875 C 146.683594 140.351562 148.449219 139.46875 149.335938 136.816406 L 151.988281 130.628906 L 166.128906 130.628906 L 168.78125 136.816406 C 169.664062 138.585938 171.433594 139.46875 173.199219 139.46875 C 174.082031 139.46875 174.082031 139.46875 174.96875 139.46875 C 177.617188 138.585938 178.503906 135.933594 177.617188 134.164062 L 164.359375 98.8125 C 161.710938 95.273438 156.40625 95.273438 154.636719 98.8125 Z M 155.523438 122.675781 L 159.058594 112.953125 L 162.59375 122.675781 Z M 155.523438 122.675781 " fill-opacity="1" fill-rule="nonzero"/></g></svg>