<svg xmlns="http://www.w3.org/2000/svg" xmlns:xlink="http://www.w3.org/1999/xlink" width="1160" zoomAndPan="magnify" viewBox="0 0 870 399.74999" height="533" preserveAspectRatio="xMidYMid meet" version="1.0"><defs><clipPath id="0941a45b20"><path d="M 546 0 L 869.726562 0 L 869.726562 299 L 546 299 Z M 546 0 " clip-rule="nonzero"/></clipPath><clipPath id="19c66d7b14"><path d="M 699.195312 -294.363281 L 1153.285156 44.59375 L 921.933594 354.527344 L 467.84375 15.570312 Z M 699.195312 -294.363281 " clip-rule="nonzero"/></clipPath><clipPath id="dee6dd5dc4"><path d="M 699.195312 -294.363281 L 1153.285156 44.59375 L 921.933594 354.527344 L 467.84375 15.570312 Z M 699.195312 -294.363281 " clip-rule="nonzero"/></clipPath></defs><g clip-path="url(#0941a45b20)"><g clip-path="url(#19c66d7b14)"><g clip-path="url(#dee6dd5dc4)"><path fill="#fad02c" d="M 645.175781 -176.347656 C 655.046875 -200.8125 644.28125 -218.238281 659.832031 -240.292969 C 662.75 -244.429688 670.835938 -255.929688 682.398438 -257.273438 C 695.96875 -258.863281 710.300781 -246 717.027344 -224.277344 C 721.5625 -203.523438 733.074219 -167.503906 763.78125 -152.972656 C 769.664062 -150.164062 774.796875 -148.574219 782.3125 -146.953125 C 800.785156 -142.972656 817.253906 -145.886719 855.730469 -142.765625 C 886.695312 -140.265625 920.425781 -127.222656 929.070312 -97.164062 C 933.515625 -81.628906 930.359375 -64.371094 932.84375 -48.21875 C 938.171875 -13.824219 967.675781 9.113281 996.976562 25.417969 C 1026.242188 41.773438 1058.707031 55.953125 1077.449219 84.070312 C 1086.644531 97.917969 1091.777344 116.871094 1083.699219 132.703125 C 1073.992188 151.71875 1050.296875 157.96875 1029.90625 159.121094 C 1009.511719 160.273438 987.546875 159.082031 970.015625 171.097656 C 931.671875 197.414062 942.722656 265.335938 904.019531 291.132812 C 879.679688 307.371094 847.140625 296.628906 829.441406 275.691406 C 820.308594 264.882812 812.414062 255.75 796.886719 199.613281 C 777.183594 128.472656 775.890625 104.816406 754.09375 72.339844 C 740.671875 52.347656 729.691406 44.234375 722.433594 39.816406 C 712.203125 33.589844 699.886719 29.050781 657.597656 25.242188 C 635.027344 23.191406 607.066406 27.25 586.042969 19.785156 C 561.859375 11.207031 546.179688 -18.78125 547.011719 -44.835938 C 548.054688 -78.300781 575.324219 -105.484375 602.96875 -133.050781 C 628.804688 -158.980469 637.996094 -158.601562 645.175781 -176.347656 Z M 645.175781 -176.347656 " fill-opacity="1" fill-rule="nonzero"/></g></g></g></svg>