<svg xmlns="http://www.w3.org/2000/svg" xmlns:xlink="http://www.w3.org/1999/xlink" width="105" zoomAndPan="magnify" viewBox="0 0 78.75 85.499998" height="114" preserveAspectRatio="xMidYMid meet" version="1.0"><defs><clipPath id="7598d41f0e"><path d="M 0.105469 11 L 20 11 L 20 69 L 0.105469 69 Z M 0.105469 11 " clip-rule="nonzero"/></clipPath><clipPath id="4383d94c9c"><path d="M 12.824219 68.75 L -9.84375 22.5625 L 14.921875 10.410156 L 37.589844 56.59375 Z M 12.824219 68.75 " clip-rule="nonzero"/></clipPath><clipPath id="b192805b3a"><path d="M 37.777344 56.503906 L 15.113281 10.316406 L -9.65625 22.46875 L 13.011719 68.65625 Z M 37.777344 56.503906 " clip-rule="nonzero"/></clipPath></defs><g clip-path="url(#7598d41f0e)"><g clip-path="url(#4383d94c9c)"><g clip-path="url(#b192805b3a)"><path fill="#cb6ce6" d="M 13.628906 11.621094 C 13.628906 11.621094 13.628906 11.625 13.628906 11.625 C 13.71875 11.65625 13.800781 11.703125 13.867188 11.757812 C 14.183594 12.003906 14.484375 12.261719 14.777344 12.53125 C 14.9375 12.671875 15.097656 12.816406 15.253906 12.960938 C 15.824219 13.507812 16.339844 14.125 16.8125 14.753906 C 17.976562 16.304688 18.890625 18.015625 19.320312 19.914062 C 19.464844 20.554688 18.972656 21.289062 18.316406 21.382812 C 17.59375 21.488281 17.039062 21.0625 16.847656 20.382812 C 16.820312 20.285156 16.792969 20.1875 16.765625 20.09375 C 16.75 20.042969 16.71875 19.835938 16.675781 19.808594 C 16.691406 19.859375 16.710938 19.914062 16.726562 19.964844 C 16.710938 19.910156 16.691406 19.855469 16.671875 19.804688 C 16.644531 19.722656 16.613281 19.640625 16.582031 19.5625 C 16.457031 19.226562 16.320312 18.898438 16.171875 18.574219 C 16.019531 18.253906 15.859375 17.933594 15.6875 17.621094 C 15.59375 17.460938 15.503906 17.300781 15.40625 17.144531 C 15.394531 17.128906 15.386719 17.109375 15.375 17.09375 C 15.644531 18.804688 15.808594 20.53125 15.878906 22.269531 C 16.007812 25.460938 15.773438 28.667969 15.179688 31.808594 C 15.054688 32.476562 14.914062 33.140625 14.761719 33.800781 C 15.917969 35.058594 16.792969 36.609375 17.390625 38.183594 C 18.523438 41.15625 19.148438 44.332031 19.335938 47.5 C 19.527344 50.675781 19.292969 53.824219 18.644531 56.9375 C 18.019531 59.964844 16.96875 62.871094 15.558594 65.617188 C 15.226562 66.261719 14.875 66.894531 14.5 67.515625 C 14.160156 68.078125 13.289062 68.253906 12.757812 67.867188 C 12.183594 67.453125 12.042969 66.726562 12.40625 66.125 C 12.777344 65.503906 13.132812 64.871094 13.464844 64.226562 C 13.496094 64.160156 13.53125 64.09375 13.566406 64.027344 C 13.578125 64 13.640625 63.871094 13.65625 63.839844 C 13.671875 63.8125 13.683594 63.789062 13.6875 63.777344 C 13.730469 63.6875 13.773438 63.597656 13.816406 63.507812 C 13.96875 63.179688 14.117188 62.847656 14.261719 62.515625 C 14.824219 61.207031 15.300781 59.863281 15.6875 58.492188 C 15.886719 57.796875 16.0625 57.09375 16.210938 56.382812 C 16.226562 56.320312 16.238281 56.253906 16.253906 56.191406 C 16.253906 56.175781 16.257812 56.160156 16.261719 56.148438 C 16.296875 55.964844 16.332031 55.78125 16.367188 55.59375 C 16.429688 55.238281 16.488281 54.878906 16.542969 54.523438 C 16.75 53.113281 16.867188 51.691406 16.894531 50.265625 C 16.910156 49.539062 16.902344 48.816406 16.871094 48.09375 C 16.867188 48.011719 16.863281 47.933594 16.859375 47.851562 C 16.859375 47.839844 16.855469 47.828125 16.855469 47.820312 C 16.847656 47.644531 16.832031 47.46875 16.820312 47.296875 C 16.789062 46.933594 16.757812 46.574219 16.714844 46.214844 C 16.554688 44.789062 16.304688 43.371094 15.953125 41.976562 C 15.867188 41.636719 15.777344 41.300781 15.683594 40.964844 C 15.628906 40.777344 15.574219 40.59375 15.519531 40.40625 C 15.488281 40.308594 15.457031 40.210938 15.425781 40.109375 C 15.410156 40.070312 15.398438 40.03125 15.386719 39.988281 C 15.105469 39.195312 14.800781 38.414062 14.414062 37.667969 C 14.269531 37.378906 14.105469 37.101562 13.941406 36.828125 C 13.457031 38.378906 12.898438 39.925781 12.101562 41.347656 C 11.292969 42.789062 10.113281 44.125 8.585938 44.816406 C 7.191406 45.449219 5.492188 45.652344 4.042969 45.066406 C 2.367188 44.386719 1.273438 42.84375 1.042969 41.0625 C 0.820312 39.347656 1.195312 37.582031 1.925781 36.027344 C 2.71875 34.328125 3.851562 32.828125 5.480469 31.855469 C 6.976562 30.960938 8.726562 30.816406 10.398438 31.1875 C 11.191406 31.359375 11.921875 31.65625 12.589844 32.042969 C 12.585938 32.066406 12.582031 32.09375 12.574219 32.136719 C 12.578125 32.121094 12.578125 32.109375 12.582031 32.09375 C 12.585938 32.082031 12.585938 32.070312 12.589844 32.054688 C 12.589844 32.050781 12.59375 32.046875 12.59375 32.042969 C 12.59375 32.035156 12.59375 32.027344 12.597656 32.019531 C 12.671875 31.640625 12.742188 31.261719 12.804688 30.878906 C 12.933594 30.132812 13.039062 29.378906 13.125 28.625 C 13.300781 27.105469 13.394531 25.574219 13.402344 24.042969 C 13.40625 23.285156 13.390625 22.527344 13.355469 21.769531 C 13.351562 21.691406 13.347656 21.613281 13.34375 21.535156 C 13.34375 21.507812 13.339844 21.480469 13.339844 21.457031 C 13.328125 21.257812 13.3125 21.058594 13.296875 20.859375 C 13.269531 20.488281 13.234375 20.117188 13.199219 19.746094 C 13.039062 18.222656 12.796875 16.707031 12.472656 15.210938 C 12.449219 15.113281 12.425781 15.015625 12.40625 14.917969 C 11.964844 15.277344 11.53125 15.652344 11.109375 16.03125 C 10.242188 16.816406 9.40625 17.632812 8.582031 18.460938 C 8.300781 18.742188 8.023438 19.03125 7.742188 19.308594 C 7.273438 19.773438 6.375 19.710938 5.964844 19.203125 C 5.519531 18.648438 5.574219 17.925781 6.074219 17.429688 C 7.601562 15.914062 9.097656 14.367188 10.773438 13.007812 C 11.359375 12.527344 11.976562 12.078125 12.621094 11.679688 C 12.882812 11.515625 13.308594 11.5 13.628906 11.621094 Z M 8.050781 42.261719 C 8.007812 42.292969 7.960938 42.320312 7.972656 42.316406 C 8 42.300781 8.027344 42.28125 8.050781 42.261719 Z M 5.425781 42.867188 C 5.4375 42.863281 5.378906 42.855469 5.324219 42.847656 C 5.359375 42.855469 5.398438 42.867188 5.425781 42.867188 Z M 4.65625 42.597656 C 4.667969 42.605469 4.679688 42.613281 4.691406 42.617188 C 4.667969 42.605469 4.652344 42.597656 4.65625 42.597656 Z M 5.484375 35.058594 C 5.46875 35.074219 5.453125 35.09375 5.4375 35.109375 C 5.320312 35.230469 5.453125 35.113281 5.484375 35.058594 Z M 5.484375 35.054688 C 5.488281 35.050781 5.488281 35.046875 5.488281 35.042969 C 5.488281 35.046875 5.488281 35.050781 5.484375 35.054688 Z M 8.4375 33.5 C 8.433594 33.5 8.429688 33.5 8.421875 33.5 C 8.34375 33.507812 8.261719 33.519531 8.179688 33.53125 C 8.007812 33.554688 7.835938 33.589844 7.667969 33.632812 C 7.609375 33.648438 7.550781 33.667969 7.492188 33.683594 C 7.460938 33.695312 7.433594 33.703125 7.40625 33.714844 C 7.222656 33.785156 7.039062 33.867188 6.863281 33.960938 C 6.714844 34.039062 6.574219 34.140625 6.421875 34.21875 C 6.445312 34.207031 6.460938 34.199219 6.480469 34.1875 C 6.453125 34.203125 6.429688 34.21875 6.410156 34.230469 C 6.324219 34.292969 6.242188 34.359375 6.160156 34.425781 C 6.015625 34.542969 5.878906 34.664062 5.746094 34.792969 C 5.679688 34.859375 5.613281 34.925781 5.546875 34.992188 C 5.527344 35.015625 5.507812 35.035156 5.488281 35.054688 C 5.464844 35.117188 5.351562 35.210938 5.3125 35.261719 C 5.253906 35.335938 5.195312 35.410156 5.140625 35.484375 C 5.019531 35.648438 4.902344 35.816406 4.792969 35.988281 C 4.695312 36.136719 4.605469 36.289062 4.519531 36.441406 C 4.472656 36.523438 4.425781 36.609375 4.382812 36.691406 C 4.363281 36.726562 4.347656 36.761719 4.328125 36.796875 C 4.171875 37.144531 4.023438 37.492188 3.894531 37.851562 C 3.835938 38.019531 3.78125 38.191406 3.734375 38.363281 C 3.710938 38.449219 3.6875 38.539062 3.664062 38.625 C 3.65625 38.660156 3.621094 38.808594 3.609375 38.859375 C 3.601562 38.902344 3.59375 38.949219 3.59375 38.960938 C 3.578125 39.039062 3.566406 39.117188 3.558594 39.195312 C 3.53125 39.386719 3.511719 39.582031 3.5 39.773438 C 3.488281 39.953125 3.484375 40.132812 3.488281 40.316406 C 3.488281 40.328125 3.492188 40.335938 3.492188 40.347656 C 3.5 40.441406 3.507812 40.539062 3.523438 40.632812 C 3.546875 40.804688 3.578125 40.976562 3.621094 41.144531 C 3.628906 41.191406 3.644531 41.238281 3.65625 41.28125 C 3.675781 41.324219 3.6875 41.378906 3.703125 41.417969 C 3.765625 41.5625 3.832031 41.707031 3.910156 41.84375 C 3.914062 41.855469 3.929688 41.878906 3.949219 41.910156 C 3.984375 41.953125 4.050781 42.050781 4.074219 42.074219 C 4.128906 42.140625 4.183594 42.207031 4.246094 42.269531 C 4.265625 42.289062 4.316406 42.335938 4.355469 42.371094 C 4.378906 42.390625 4.398438 42.40625 4.410156 42.414062 C 4.476562 42.464844 4.546875 42.515625 4.621094 42.558594 C 4.671875 42.59375 4.734375 42.621094 4.785156 42.65625 C 4.917969 42.714844 5.050781 42.761719 5.1875 42.800781 C 5.214844 42.8125 5.25 42.824219 5.289062 42.835938 C 5.3125 42.839844 5.339844 42.84375 5.363281 42.847656 C 5.523438 42.875 5.679688 42.890625 5.839844 42.894531 C 5.914062 42.898438 5.988281 42.898438 6.066406 42.898438 C 6.078125 42.898438 6.097656 42.898438 6.121094 42.898438 C 6.167969 42.894531 6.230469 42.886719 6.257812 42.886719 C 6.34375 42.875 6.429688 42.863281 6.515625 42.847656 C 6.667969 42.820312 6.816406 42.789062 6.964844 42.75 C 6.992188 42.742188 7.023438 42.734375 7.054688 42.726562 C 7.085938 42.714844 7.132812 42.703125 7.148438 42.699219 C 7.445312 42.585938 7.734375 42.449219 8.007812 42.285156 C 8.039062 42.265625 8.074219 42.246094 8.105469 42.226562 C 8.125 42.210938 8.144531 42.199219 8.160156 42.183594 C 8.316406 42.070312 8.460938 41.945312 8.605469 41.816406 C 8.742188 41.691406 8.875 41.5625 9 41.425781 C 9.015625 41.40625 9.03125 41.390625 9.050781 41.371094 C 9.097656 41.3125 9.152344 41.25 9.199219 41.191406 C 9.4375 40.886719 9.65625 40.566406 9.851562 40.238281 C 9.949219 40.074219 10.042969 39.914062 10.128906 39.746094 C 10.171875 39.671875 10.210938 39.59375 10.25 39.515625 C 10.265625 39.480469 10.289062 39.4375 10.292969 39.421875 C 10.621094 38.726562 10.894531 38.007812 11.148438 37.285156 C 11.453125 36.410156 11.726562 35.527344 11.972656 34.636719 C 11.894531 34.582031 11.816406 34.527344 11.734375 34.472656 C 11.597656 34.378906 11.453125 34.292969 11.308594 34.210938 C 11.238281 34.167969 11.164062 34.128906 11.089844 34.089844 C 11.070312 34.078125 11.050781 34.066406 11.03125 34.058594 C 10.738281 33.925781 10.441406 33.804688 10.136719 33.710938 C 9.980469 33.660156 9.824219 33.625 9.664062 33.582031 C 9.574219 33.566406 9.480469 33.550781 9.386719 33.539062 C 9.066406 33.5 8.753906 33.5 8.4375 33.5 Z M 8.4375 33.5 " fill-opacity="1" fill-rule="nonzero"/></g></g></g></svg>