<svg xmlns="http://www.w3.org/2000/svg" xmlns:xlink="http://www.w3.org/1999/xlink" width="66" zoomAndPan="magnify" viewBox="0 0 49.5 74.249997" height="99" preserveAspectRatio="xMidYMid meet" version="1.0"><defs><clipPath id="8fd37a27b9"><path d="M 10.894531 57.964844 L 13.867188 57.964844 L 13.867188 60.933594 L 10.894531 60.933594 Z M 10.894531 57.964844 " clip-rule="nonzero"/></clipPath><clipPath id="5959c38855"><path d="M 1 12 L 18 12 L 18 58 L 1 58 Z M 1 12 " clip-rule="nonzero"/></clipPath><clipPath id="4701675285"><path d="M 10.082031 11.0625 L 32.414062 46.136719 L 13.625 58.101562 L -8.707031 23.027344 Z M 10.082031 11.0625 " clip-rule="nonzero"/></clipPath><clipPath id="c961197e0f"><path d="M 32.289062 45.941406 L 9.957031 10.867188 L -8.832031 22.832031 L 13.5 57.90625 Z M 32.289062 45.941406 " clip-rule="nonzero"/></clipPath></defs><g clip-path="url(#8fd37a27b9)"><path fill="#8c52ff" d="M 12.492188 57.964844 C 11.609375 57.964844 10.894531 58.679688 10.894531 59.558594 C 10.894531 60.441406 11.609375 61.15625 12.492188 61.15625 C 13.371094 61.15625 14.085938 60.441406 14.085938 59.558594 C 14.085938 58.679688 13.371094 57.964844 12.492188 57.964844 Z M 12.492188 60.835938 C 11.785156 60.835938 11.214844 60.265625 11.214844 59.558594 C 11.214844 58.855469 11.785156 58.285156 12.492188 58.285156 C 13.195312 58.285156 13.765625 58.855469 13.765625 59.558594 C 13.765625 60.265625 13.195312 60.835938 12.492188 60.835938 Z M 12.492188 60.835938 " fill-opacity="1" fill-rule="nonzero"/></g><g clip-path="url(#5959c38855)"><g clip-path="url(#4701675285)"><g clip-path="url(#c961197e0f)"><path fill="#8c52ff" d="M 8.976562 12.183594 C 9.050781 12.203125 9.121094 12.230469 9.179688 12.269531 C 9.453125 12.441406 9.71875 12.621094 9.976562 12.808594 C 10.117188 12.90625 10.257812 13.007812 10.394531 13.109375 C 10.898438 13.496094 11.367188 13.945312 11.800781 14.40625 C 12.871094 15.542969 13.753906 16.828125 14.265625 18.3125 C 14.4375 18.8125 14.113281 19.441406 13.59375 19.574219 C 13.027344 19.722656 12.542969 19.433594 12.332031 18.90625 C 12.300781 18.832031 12.269531 18.757812 12.238281 18.683594 C 12.222656 18.644531 12.175781 18.480469 12.140625 18.460938 C 12.160156 18.503906 12.179688 18.542969 12.195312 18.582031 C 12.175781 18.542969 12.15625 18.5 12.136719 18.457031 C 12.109375 18.398438 12.078125 18.335938 12.046875 18.273438 C 11.917969 18.015625 11.777344 17.765625 11.628906 17.519531 C 11.480469 17.273438 11.324219 17.035156 11.15625 16.800781 C 11.070312 16.679688 10.980469 16.558594 10.886719 16.441406 C 10.878906 16.429688 10.871094 16.417969 10.859375 16.40625 C 11.226562 17.75 11.511719 19.117188 11.722656 20.5 C 12.109375 23.042969 12.207031 25.628906 12.011719 28.195312 C 11.972656 28.742188 11.917969 29.285156 11.855469 29.828125 C 12.890625 30.730469 13.730469 31.894531 14.351562 33.101562 C 15.519531 35.378906 16.304688 37.863281 16.734375 40.382812 C 17.167969 42.90625 17.261719 45.445312 17.023438 47.996094 C 16.789062 50.472656 16.207031 52.890625 15.324219 55.214844 C 15.117188 55.757812 14.890625 56.296875 14.648438 56.828125 C 14.425781 57.308594 13.746094 57.527344 13.285156 57.265625 C 12.789062 56.980469 12.609375 56.414062 12.847656 55.902344 C 13.089844 55.371094 13.316406 54.832031 13.523438 54.289062 C 13.546875 54.230469 13.566406 54.175781 13.589844 54.117188 C 13.597656 54.097656 13.636719 53.988281 13.644531 53.964844 C 13.652344 53.9375 13.660156 53.917969 13.664062 53.910156 C 13.691406 53.832031 13.71875 53.757812 13.742188 53.679688 C 13.835938 53.40625 13.925781 53.125 14.011719 52.847656 C 14.34375 51.75 14.605469 50.632812 14.792969 49.503906 C 14.890625 48.925781 14.96875 48.347656 15.027344 47.765625 C 15.03125 47.714844 15.035156 47.664062 15.042969 47.609375 C 15.042969 47.597656 15.042969 47.585938 15.042969 47.574219 C 15.058594 47.425781 15.070312 47.273438 15.078125 47.121094 C 15.097656 46.832031 15.113281 46.539062 15.125 46.25 C 15.164062 45.101562 15.132812 43.953125 15.027344 42.8125 C 14.976562 42.230469 14.90625 41.652344 14.816406 41.074219 C 14.804688 41.011719 14.792969 40.949219 14.785156 40.882812 C 14.78125 40.875 14.78125 40.867188 14.78125 40.859375 C 14.753906 40.71875 14.730469 40.582031 14.703125 40.441406 C 14.648438 40.15625 14.589844 39.871094 14.523438 39.585938 C 14.269531 38.460938 13.941406 37.347656 13.539062 36.265625 C 13.4375 36 13.335938 35.738281 13.230469 35.476562 C 13.171875 35.332031 13.109375 35.191406 13.046875 35.046875 C 13.015625 34.96875 12.980469 34.894531 12.945312 34.816406 C 12.933594 34.785156 12.917969 34.753906 12.90625 34.722656 C 12.613281 34.113281 12.296875 33.515625 11.921875 32.953125 C 11.777344 32.734375 11.625 32.527344 11.46875 32.320312 C 11.21875 33.609375 10.910156 34.894531 10.398438 36.105469 C 9.882812 37.328125 9.054688 38.503906 7.894531 39.191406 C 6.835938 39.820312 5.492188 40.132812 4.285156 39.796875 C 2.882812 39.402344 1.867188 38.261719 1.523438 36.859375 C 1.195312 35.507812 1.335938 34.0625 1.78125 32.753906 C 2.269531 31.320312 3.039062 30.023438 4.257812 29.097656 C 5.371094 28.25 6.761719 27.976562 8.132812 28.125 C 8.78125 28.195312 9.390625 28.363281 9.960938 28.613281 C 9.960938 28.632812 9.960938 28.65625 9.957031 28.691406 C 9.957031 28.679688 9.957031 28.667969 9.960938 28.65625 C 9.960938 28.648438 9.960938 28.636719 9.960938 28.625 C 9.960938 28.621094 9.964844 28.617188 9.964844 28.613281 C 9.964844 28.609375 9.964844 28.601562 9.964844 28.59375 C 9.992188 28.285156 10.011719 27.976562 10.03125 27.664062 C 10.066406 27.054688 10.085938 26.445312 10.085938 25.832031 C 10.089844 24.601562 10.027344 23.367188 9.898438 22.144531 C 9.835938 21.535156 9.757812 20.929688 9.660156 20.324219 C 9.648438 20.261719 9.640625 20.199219 9.628906 20.140625 C 9.625 20.117188 9.621094 20.097656 9.621094 20.078125 C 9.589844 19.917969 9.5625 19.761719 9.53125 19.601562 C 9.476562 19.308594 9.417969 19.015625 9.351562 18.722656 C 9.089844 17.515625 8.761719 16.328125 8.371094 15.160156 C 8.34375 15.082031 8.316406 15.003906 8.289062 14.929688 C 7.96875 15.253906 7.65625 15.59375 7.351562 15.9375 C 6.730469 16.640625 6.132812 17.367188 5.546875 18.105469 C 5.347656 18.355469 5.152344 18.609375 4.949219 18.859375 C 4.617188 19.269531 3.894531 19.300781 3.519531 18.929688 C 3.109375 18.527344 3.089844 17.941406 3.445312 17.5 C 4.535156 16.152344 5.59375 14.78125 6.8125 13.542969 C 7.242188 13.109375 7.691406 12.695312 8.171875 12.316406 C 8.367188 12.164062 8.707031 12.113281 8.976562 12.183594 Z M 7.242188 37.195312 C 7.207031 37.222656 7.171875 37.25 7.179688 37.246094 C 7.199219 37.230469 7.222656 37.214844 7.242188 37.195312 Z M 5.195312 37.910156 C 5.203125 37.910156 5.15625 37.910156 5.109375 37.90625 C 5.140625 37.910156 5.167969 37.914062 5.195312 37.910156 Z M 4.554688 37.765625 C 4.5625 37.773438 4.574219 37.777344 4.582031 37.777344 C 4.5625 37.769531 4.550781 37.765625 4.554688 37.765625 Z M 4.542969 31.660156 C 4.535156 31.675781 4.523438 31.691406 4.511719 31.707031 C 4.429688 31.8125 4.523438 31.707031 4.542969 31.660156 Z M 4.546875 31.65625 C 4.546875 31.652344 4.546875 31.648438 4.546875 31.648438 C 4.546875 31.648438 4.546875 31.652344 4.546875 31.65625 Z M 6.769531 30.148438 C 6.765625 30.152344 6.761719 30.152344 6.757812 30.152344 C 6.695312 30.167969 6.628906 30.179688 6.566406 30.199219 C 6.429688 30.234375 6.296875 30.277344 6.164062 30.328125 C 6.117188 30.34375 6.074219 30.363281 6.027344 30.382812 C 6.007812 30.390625 5.984375 30.402344 5.960938 30.414062 C 5.820312 30.488281 5.683594 30.570312 5.550781 30.660156 C 5.4375 30.734375 5.335938 30.828125 5.21875 30.90625 C 5.234375 30.894531 5.25 30.882812 5.261719 30.875 C 5.242188 30.890625 5.226562 30.902344 5.210938 30.914062 C 5.148438 30.972656 5.089844 31.03125 5.027344 31.09375 C 4.925781 31.199219 4.824219 31.3125 4.730469 31.425781 C 4.683594 31.484375 4.632812 31.542969 4.589844 31.601562 C 4.574219 31.621094 4.5625 31.640625 4.546875 31.660156 C 4.535156 31.710938 4.453125 31.796875 4.425781 31.835938 C 4.382812 31.902344 4.34375 31.96875 4.308594 32.03125 C 4.222656 32.171875 4.148438 32.316406 4.074219 32.464844 C 4.011719 32.59375 3.953125 32.722656 3.894531 32.851562 C 3.867188 32.921875 3.835938 32.992188 3.808594 33.066406 C 3.796875 33.09375 3.785156 33.125 3.773438 33.15625 C 3.679688 33.445312 3.589844 33.738281 3.523438 34.035156 C 3.488281 34.175781 3.460938 34.316406 3.4375 34.460938 C 3.425781 34.53125 3.414062 34.605469 3.40625 34.675781 C 3.402344 34.707031 3.390625 34.828125 3.382812 34.867188 C 3.382812 34.90625 3.378906 34.941406 3.378906 34.953125 C 3.375 35.015625 3.371094 35.078125 3.371094 35.140625 C 3.367188 35.296875 3.367188 35.453125 3.375 35.609375 C 3.382812 35.753906 3.398438 35.898438 3.417969 36.042969 C 3.417969 36.054688 3.417969 36.0625 3.421875 36.070312 C 3.4375 36.144531 3.453125 36.21875 3.46875 36.292969 C 3.503906 36.429688 3.546875 36.566406 3.59375 36.695312 C 3.605469 36.730469 3.621094 36.765625 3.636719 36.800781 C 3.65625 36.835938 3.667969 36.875 3.6875 36.90625 C 3.746094 37.019531 3.8125 37.125 3.886719 37.230469 C 3.894531 37.238281 3.910156 37.257812 3.925781 37.277344 C 3.957031 37.3125 4.019531 37.382812 4.039062 37.398438 C 4.089844 37.449219 4.140625 37.496094 4.195312 37.539062 C 4.210938 37.554688 4.257812 37.585938 4.292969 37.613281 C 4.3125 37.625 4.328125 37.636719 4.339844 37.644531 C 4.398438 37.675781 4.457031 37.707031 4.519531 37.738281 C 4.566406 37.761719 4.617188 37.777344 4.664062 37.800781 C 4.773438 37.835938 4.882812 37.863281 4.996094 37.882812 C 5.019531 37.886719 5.050781 37.894531 5.078125 37.898438 C 5.101562 37.898438 5.121094 37.902344 5.140625 37.902344 C 5.269531 37.910156 5.398438 37.90625 5.527344 37.898438 C 5.585938 37.894531 5.648438 37.890625 5.707031 37.882812 C 5.714844 37.882812 5.734375 37.878906 5.75 37.875 C 5.789062 37.867188 5.839844 37.859375 5.859375 37.855469 C 5.925781 37.839844 5.996094 37.820312 6.0625 37.800781 C 6.183594 37.765625 6.300781 37.726562 6.414062 37.683594 C 6.4375 37.675781 6.457031 37.664062 6.480469 37.65625 C 6.507812 37.644531 6.542969 37.632812 6.554688 37.625 C 6.785156 37.507812 7.003906 37.375 7.207031 37.21875 C 7.230469 37.199219 7.253906 37.179688 7.28125 37.160156 C 7.292969 37.148438 7.308594 37.136719 7.320312 37.125 C 7.433594 37.015625 7.539062 36.90625 7.644531 36.789062 C 7.742188 36.675781 7.835938 36.5625 7.925781 36.441406 C 7.9375 36.425781 7.949219 36.410156 7.957031 36.394531 C 7.992188 36.339844 8.027344 36.289062 8.0625 36.234375 C 8.226562 35.972656 8.371094 35.695312 8.5 35.414062 C 8.5625 35.277344 8.625 35.140625 8.679688 35 C 8.703125 34.933594 8.730469 34.867188 8.753906 34.800781 C 8.765625 34.773438 8.777344 34.734375 8.78125 34.722656 C 8.980469 34.136719 9.132812 33.539062 9.273438 32.9375 C 9.441406 32.210938 9.582031 31.480469 9.699219 30.746094 C 9.628906 30.707031 9.5625 30.671875 9.492188 30.636719 C 9.375 30.574219 9.253906 30.515625 9.128906 30.460938 C 9.070312 30.4375 9.007812 30.410156 8.945312 30.386719 C 8.925781 30.378906 8.910156 30.371094 8.894531 30.367188 C 8.648438 30.285156 8.398438 30.214844 8.144531 30.167969 C 8.019531 30.140625 7.890625 30.125 7.757812 30.105469 C 7.757812 30.105469 7.757812 30.109375 7.757812 30.105469 C 7.683594 30.101562 7.609375 30.097656 7.53125 30.097656 C 7.269531 30.09375 7.023438 30.121094 6.769531 30.148438 Z M 6.769531 30.148438 " fill-opacity="1" fill-rule="nonzero"/></g></g></g></svg>