<svg xmlns="http://www.w3.org/2000/svg" xmlns:xlink="http://www.w3.org/1999/xlink" width="153" zoomAndPan="magnify" viewBox="0 0 114.75 95.999999" height="128" preserveAspectRatio="xMidYMid meet" version="1.0"><defs><clipPath id="7f8c02cde4"><path d="M 22.789062 6.195312 L 67 6.195312 L 67 45 L 22.789062 45 Z M 22.789062 6.195312 " clip-rule="nonzero"/></clipPath><clipPath id="8610322b1f"><path d="M 54 15 L 98.371094 15 L 98.371094 54 L 54 54 Z M 54 15 " clip-rule="nonzero"/></clipPath><clipPath id="f7c545e1f0"><path d="M 33 43 L 78 43 L 78 81.78125 L 33 81.78125 Z M 33 43 " clip-rule="nonzero"/></clipPath><clipPath id="d219268870"><path d="M 15.980469 81.5625 L 22.714844 81.5625 L 22.714844 88.300781 L 15.980469 88.300781 Z M 15.980469 81.5625 " clip-rule="nonzero"/></clipPath></defs><g clip-path="url(#7f8c02cde4)"><path fill="#f3705a" d="M 66.40625 9.976562 L 66.40625 33.28125 C 66.40625 35.328125 64.675781 37.0625 62.628906 37.0625 L 42.628906 37.0625 L 27.824219 44.777344 L 27.824219 37.0625 L 26.566406 37.0625 C 24.519531 37.0625 22.789062 35.328125 22.789062 33.28125 L 22.789062 9.976562 C 22.789062 7.929688 24.519531 6.195312 26.566406 6.195312 L 62.785156 6.195312 C 64.832031 6.195312 66.40625 7.929688 66.40625 9.976562 Z M 66.40625 9.976562 " fill-opacity="1" fill-rule="nonzero"/></g><path fill="#ffffff" d="M 37.117188 21.628906 C 37.117188 23.890625 35.285156 25.722656 33.023438 25.722656 C 30.761719 25.722656 28.929688 23.890625 28.929688 21.628906 C 28.929688 19.367188 30.761719 17.535156 33.023438 17.535156 C 35.285156 17.535156 37.117188 19.367188 37.117188 21.628906 Z M 37.117188 21.628906 " fill-opacity="1" fill-rule="nonzero"/><path fill="#ffffff" d="M 48.769531 21.628906 C 48.769531 23.890625 46.9375 25.722656 44.675781 25.722656 C 42.414062 25.722656 40.582031 23.890625 40.582031 21.628906 C 40.582031 19.367188 42.414062 17.535156 44.675781 17.535156 C 46.9375 17.535156 48.769531 19.367188 48.769531 21.628906 Z M 48.769531 21.628906 " fill-opacity="1" fill-rule="nonzero"/><path fill="#ffffff" d="M 60.421875 21.628906 C 60.421875 23.890625 58.589844 25.722656 56.328125 25.722656 C 54.066406 25.722656 52.234375 23.890625 52.234375 21.628906 C 52.234375 19.367188 54.066406 17.535156 56.328125 17.535156 C 58.589844 17.535156 60.421875 19.367188 60.421875 21.628906 Z M 60.421875 21.628906 " fill-opacity="1" fill-rule="nonzero"/><g clip-path="url(#8610322b1f)"><path fill="#ffd15c" d="M 54.753906 19.265625 L 54.753906 42.414062 C 54.753906 44.460938 56.484375 46.195312 58.53125 46.195312 L 78.6875 46.195312 L 93.492188 53.910156 L 93.492188 46.195312 L 94.59375 46.195312 C 96.640625 46.195312 98.375 44.460938 98.375 42.414062 L 98.375 19.265625 C 98.375 17.21875 96.640625 15.488281 94.59375 15.488281 L 58.375 15.488281 C 56.328125 15.488281 54.753906 17.21875 54.753906 19.265625 Z M 54.753906 19.265625 " fill-opacity="1" fill-rule="nonzero"/></g><path fill="#ffffff" d="M 92.230469 30.917969 C 92.230469 33.179688 90.398438 35.011719 88.136719 35.011719 C 85.875 35.011719 84.042969 33.179688 84.042969 30.917969 C 84.042969 28.65625 85.875 26.824219 88.136719 26.824219 C 90.398438 26.824219 92.230469 28.65625 92.230469 30.917969 Z M 92.230469 30.917969 " fill-opacity="1" fill-rule="nonzero"/><path fill="#ffffff" d="M 80.578125 30.917969 C 80.578125 33.179688 78.746094 35.011719 76.484375 35.011719 C 74.222656 35.011719 72.390625 33.179688 72.390625 30.917969 C 72.390625 28.65625 74.222656 26.824219 76.484375 26.824219 C 78.746094 26.824219 80.578125 28.65625 80.578125 30.917969 Z M 80.578125 30.917969 " fill-opacity="1" fill-rule="nonzero"/><path fill="#ffffff" d="M 68.925781 30.917969 C 68.925781 33.179688 67.09375 35.011719 64.832031 35.011719 C 62.570312 35.011719 60.738281 33.179688 60.738281 30.917969 C 60.738281 28.65625 62.570312 26.824219 64.832031 26.824219 C 67.09375 26.824219 68.925781 28.65625 68.925781 30.917969 Z M 68.925781 30.917969 " fill-opacity="1" fill-rule="nonzero"/><g clip-path="url(#f7c545e1f0)"><path fill="#66c6b9" d="M 77.585938 47.136719 L 77.585938 70.445312 C 77.585938 72.492188 75.855469 74.222656 73.808594 74.222656 L 61.367188 74.222656 L 55.699219 81.78125 L 50.03125 74.066406 L 37.746094 74.066406 C 35.699219 74.066406 33.96875 72.332031 33.96875 70.285156 L 33.96875 47.136719 C 33.96875 45.089844 35.699219 43.359375 37.746094 43.359375 L 73.964844 43.359375 C 76.011719 43.359375 77.585938 45.089844 77.585938 47.136719 Z M 77.585938 47.136719 " fill-opacity="1" fill-rule="nonzero"/></g><path fill="#ffffff" d="M 71.445312 58.789062 C 71.445312 61.050781 69.613281 62.886719 67.351562 62.886719 C 65.089844 62.886719 63.257812 61.050781 63.257812 58.789062 C 63.257812 56.53125 65.089844 54.699219 67.351562 54.699219 C 69.613281 54.699219 71.445312 56.53125 71.445312 58.789062 Z M 71.445312 58.789062 " fill-opacity="1" fill-rule="nonzero"/><path fill="#ffffff" d="M 59.949219 58.789062 C 59.949219 61.050781 58.117188 62.886719 55.855469 62.886719 C 53.59375 62.886719 51.761719 61.050781 51.761719 58.789062 C 51.761719 56.53125 53.59375 54.699219 55.855469 54.699219 C 58.117188 54.699219 59.949219 56.53125 59.949219 58.789062 Z M 59.949219 58.789062 " fill-opacity="1" fill-rule="nonzero"/><path fill="#ffffff" d="M 48.296875 58.789062 C 48.296875 61.050781 46.464844 62.886719 44.203125 62.886719 C 41.941406 62.886719 40.109375 61.050781 40.109375 58.789062 C 40.109375 56.53125 41.941406 54.699219 44.203125 54.699219 C 46.464844 54.699219 48.296875 56.53125 48.296875 58.789062 Z M 48.296875 58.789062 " fill-opacity="1" fill-rule="nonzero"/><g clip-path="url(#d219268870)"><path fill="#ffd15c" d="M 19.382812 81.5625 C 17.5 81.5625 15.980469 83.085938 15.980469 84.964844 C 15.980469 86.847656 17.5 88.371094 19.382812 88.371094 C 21.261719 88.371094 22.785156 86.847656 22.785156 84.964844 C 22.785156 83.085938 21.261719 81.5625 19.382812 81.5625 Z M 19.382812 87.6875 C 17.878906 87.6875 16.660156 86.46875 16.660156 84.964844 C 16.660156 83.460938 17.878906 82.246094 19.382812 82.246094 C 20.886719 82.246094 22.105469 83.460938 22.105469 84.964844 C 22.105469 86.46875 20.886719 87.6875 19.382812 87.6875 Z M 19.382812 87.6875 " fill-opacity="1" fill-rule="nonzero"/></g></svg>