<svg xmlns="http://www.w3.org/2000/svg" xmlns:xlink="http://www.w3.org/1999/xlink" width="220" zoomAndPan="magnify" viewBox="0 0 165 179.999997" height="240" preserveAspectRatio="xMidYMid meet" version="1.0"><defs><clipPath id="feb4c7fd9c"><path d="M 12 93 L 82 93 L 82 141.105469 L 12 141.105469 Z M 12 93 " clip-rule="nonzero"/></clipPath><clipPath id="a7e9bee7b3"><path d="M 80 46.183594 L 148.34375 46.183594 L 148.34375 95 L 80 95 Z M 80 46.183594 " clip-rule="nonzero"/></clipPath><clipPath id="7422fe6432"><path d="M 2.84375 127 L 24 127 L 24 141.105469 L 2.84375 141.105469 Z M 2.84375 127 " clip-rule="nonzero"/></clipPath><clipPath id="3236769006"><path d="M 144.625 34.898438 L 152.125 34.898438 L 152.125 42.398438 L 144.625 42.398438 Z M 144.625 34.898438 " clip-rule="nonzero"/></clipPath></defs><g clip-path="url(#feb4c7fd9c)"><path fill="#00bf63" d="M 12.964844 140.910156 L 12.964844 105.953125 C 12.964844 98.886719 18.695312 93.15625 25.757812 93.15625 L 80.734375 93.15625 C 81.007812 93.15625 81.234375 93.382812 81.234375 93.65625 C 81.234375 93.933594 81.007812 94.160156 80.734375 94.160156 L 25.757812 94.160156 C 19.25 94.160156 13.964844 99.441406 13.964844 105.953125 C 13.964844 105.953125 13.964844 140.910156 13.964844 140.910156 C 13.964844 141.1875 13.738281 141.414062 13.464844 141.414062 C 13.1875 141.414062 12.964844 141.1875 12.964844 140.910156 Z M 12.964844 140.910156 " fill-opacity="1" fill-rule="evenodd"/></g><g clip-path="url(#a7e9bee7b3)"><path fill="#00bf63" d="M 148.5 46.402344 L 148.5 81.363281 C 148.5 88.425781 142.769531 94.15625 135.707031 94.15625 L 80.734375 94.15625 C 80.457031 94.15625 80.230469 93.933594 80.230469 93.65625 C 80.230469 93.378906 80.457031 93.15625 80.734375 93.15625 L 135.707031 93.15625 C 142.214844 93.15625 147.5 87.871094 147.5 81.363281 L 147.5 46.402344 C 147.5 46.125 147.726562 45.902344 148 45.902344 C 148.277344 45.902344 148.5 46.125 148.5 46.402344 Z M 148.5 46.402344 " fill-opacity="1" fill-rule="evenodd"/></g><g clip-path="url(#7422fe6432)"><path fill="#00bf63" d="M 23.738281 128.359375 L 13.863281 141.214844 C 13.769531 141.339844 13.625 141.414062 13.464844 141.414062 C 13.3125 141.414062 13.164062 141.339844 13.070312 141.21875 L 2.996094 128.25 C 2.824219 128.03125 2.863281 127.714844 3.082031 127.546875 C 3.300781 127.375 3.621094 127.414062 3.785156 127.632812 L 13.464844 140.089844 C 13.464844 140.089844 22.941406 127.75 22.941406 127.75 C 23.113281 127.527344 23.425781 127.488281 23.644531 127.65625 C 23.863281 127.828125 23.90625 128.140625 23.738281 128.359375 Z M 23.738281 128.359375 " fill-opacity="1" fill-rule="evenodd"/></g><g clip-path="url(#3236769006)"><path fill="#00bf63" d="M 148.496094 34.898438 C 146.359375 34.898438 144.625 36.632812 144.625 38.773438 C 144.625 40.910156 146.359375 42.644531 148.496094 42.644531 C 150.636719 42.644531 152.371094 40.910156 152.371094 38.773438 C 152.371094 36.632812 150.636719 34.898438 148.496094 34.898438 Z M 148.496094 41.871094 C 146.785156 41.871094 145.398438 40.484375 145.398438 38.773438 C 145.398438 37.058594 146.785156 35.671875 148.496094 35.671875 C 150.210938 35.671875 151.597656 37.058594 151.597656 38.773438 C 151.597656 40.484375 150.210938 41.871094 148.496094 41.871094 Z M 148.496094 41.871094 " fill-opacity="1" fill-rule="nonzero"/></g></svg>