<svg xmlns="http://www.w3.org/2000/svg" xmlns:xlink="http://www.w3.org/1999/xlink" width="300" zoomAndPan="magnify" viewBox="0 0 224.87999 37.5" height="50" preserveAspectRatio="xMidYMid meet" version="1.0"><defs><g/><clipPath id="a5292ffdb8"><path d="M 23.351562 3.699219 L 49.925781 3.699219 L 49.925781 30.273438 L 23.351562 30.273438 Z M 23.351562 3.699219 " clip-rule="nonzero"/></clipPath><clipPath id="6349f46037"><path d="M 36.640625 3.699219 C 29.300781 3.699219 23.351562 9.648438 23.351562 16.988281 C 23.351562 24.324219 29.300781 30.273438 36.640625 30.273438 C 43.976562 30.273438 49.925781 24.324219 49.925781 16.988281 C 49.925781 9.648438 43.976562 3.699219 36.640625 3.699219 Z M 36.640625 3.699219 " clip-rule="nonzero"/></clipPath><clipPath id="7cabe9847c"><path d="M 27.535156 9.339844 L 46 9.339844 L 46 19 L 27.535156 19 Z M 27.535156 9.339844 " clip-rule="nonzero"/></clipPath><clipPath id="b99f507e45"><path d="M 27.535156 16 L 46 16 L 46 22 L 27.535156 22 Z M 27.535156 16 " clip-rule="nonzero"/></clipPath><clipPath id="bb13b8d9a0"><path d="M 27.535156 19 L 46 19 L 46 24.882812 L 27.535156 24.882812 Z M 27.535156 19 " clip-rule="nonzero"/></clipPath></defs><g fill="#000000" fill-opacity="1"><g transform="translate(3.119429, 28.945333)"><g><path d="M 14.515625 -4.953125 C 15.347656 -4.953125 16.15625 -5.078125 16.9375 -5.328125 C 17.726562 -5.578125 18.304688 -5.816406 18.671875 -6.046875 L 19.234375 -6.4375 L 21.5625 -1.78125 C 21.476562 -1.71875 21.367188 -1.632812 21.234375 -1.53125 C 21.097656 -1.4375 20.78125 -1.257812 20.28125 -1 C 19.789062 -0.738281 19.265625 -0.507812 18.703125 -0.3125 C 18.140625 -0.125 17.398438 0.046875 16.484375 0.203125 C 15.578125 0.359375 14.640625 0.4375 13.671875 0.4375 C 11.441406 0.4375 9.328125 -0.109375 7.328125 -1.203125 C 5.328125 -2.296875 3.71875 -3.800781 2.5 -5.71875 C 1.28125 -7.644531 0.671875 -9.722656 0.671875 -11.953125 C 0.671875 -13.640625 1.03125 -15.257812 1.75 -16.8125 C 2.46875 -18.363281 3.421875 -19.691406 4.609375 -20.796875 C 5.804688 -21.898438 7.195312 -22.78125 8.78125 -23.4375 C 10.375 -24.101562 12.003906 -24.4375 13.671875 -24.4375 C 15.222656 -24.4375 16.648438 -24.25 17.953125 -23.875 C 19.265625 -23.507812 20.195312 -23.144531 20.75 -22.78125 L 21.5625 -22.234375 L 19.234375 -17.578125 C 19.097656 -17.691406 18.894531 -17.828125 18.625 -17.984375 C 18.351562 -18.148438 17.804688 -18.367188 16.984375 -18.640625 C 16.171875 -18.921875 15.347656 -19.0625 14.515625 -19.0625 C 13.203125 -19.0625 12.019531 -18.847656 10.96875 -18.421875 C 9.914062 -17.992188 9.082031 -17.429688 8.46875 -16.734375 C 7.863281 -16.035156 7.398438 -15.28125 7.078125 -14.46875 C 6.765625 -13.664062 6.609375 -12.847656 6.609375 -12.015625 C 6.609375 -10.191406 7.289062 -8.554688 8.65625 -7.109375 C 10.019531 -5.671875 11.972656 -4.953125 14.515625 -4.953125 Z M 14.515625 -4.953125 "/></g></g></g><g fill="#000000" fill-opacity="1"><g transform="translate(23.575489, 28.945333)"><g/></g></g><g fill="#000000" fill-opacity="1"><g transform="translate(30.062949, 28.945333)"><g/></g></g><g fill="#000000" fill-opacity="1"><g transform="translate(36.550408, 28.945333)"><g/></g></g><g fill="#000000" fill-opacity="1"><g transform="translate(43.037868, 28.945333)"><g/></g></g><g fill="#000000" fill-opacity="1"><g transform="translate(49.53049, 28.945333)"><g><path d="M 1.75 -24 L 8.703125 -24 C 12.035156 -24 14.882812 -22.859375 17.25 -20.578125 C 19.613281 -18.304688 20.796875 -15.453125 20.796875 -12.015625 C 20.796875 -8.566406 19.617188 -5.703125 17.265625 -3.421875 C 14.910156 -1.140625 12.054688 0 8.703125 0 L 1.75 0 Z M 7.21875 -4.890625 L 8.0625 -4.890625 C 10.0625 -4.890625 11.691406 -5.5625 12.953125 -6.90625 C 14.222656 -8.257812 14.867188 -9.953125 14.890625 -11.984375 C 14.890625 -14.023438 14.253906 -15.722656 12.984375 -17.078125 C 11.710938 -18.429688 10.070312 -19.109375 8.0625 -19.109375 L 7.21875 -19.109375 Z M 7.21875 -4.890625 "/></g></g></g><g fill="#000000" fill-opacity="1"><g transform="translate(69.546232, 28.945333)"><g><path d="M 15.484375 -24 L 15.484375 -19.203125 L 7.21875 -19.203125 L 7.21875 -14.4375 L 15.125 -14.4375 L 15.125 -9.625 L 7.21875 -9.625 L 7.21875 -4.796875 L 15.484375 -4.796875 L 15.484375 0 L 1.75 0 L 1.75 -24 Z M 15.484375 -24 "/></g></g></g><g fill="#000000" fill-opacity="1"><g transform="translate(84.965267, 28.945333)"><g><path d="M 10.59375 -24.4375 C 11.894531 -24.4375 13.164062 -24.242188 14.40625 -23.859375 C 15.644531 -23.484375 16.566406 -23.113281 17.171875 -22.75 L 18.03125 -22.171875 L 15.828125 -17.8125 C 15.648438 -17.925781 15.40625 -18.070312 15.09375 -18.25 C 14.789062 -18.4375 14.210938 -18.6875 13.359375 -19 C 12.503906 -19.3125 11.707031 -19.46875 10.96875 -19.46875 C 10.050781 -19.46875 9.34375 -19.269531 8.84375 -18.875 C 8.351562 -18.488281 8.109375 -17.96875 8.109375 -17.3125 C 8.109375 -16.976562 8.222656 -16.671875 8.453125 -16.390625 C 8.691406 -16.109375 9.09375 -15.804688 9.65625 -15.484375 C 10.21875 -15.171875 10.710938 -14.914062 11.140625 -14.71875 C 11.566406 -14.53125 12.226562 -14.238281 13.125 -13.84375 C 14.675781 -13.1875 16 -12.289062 17.09375 -11.15625 C 18.1875 -10.019531 18.734375 -8.734375 18.734375 -7.296875 C 18.734375 -5.921875 18.484375 -4.71875 17.984375 -3.6875 C 17.492188 -2.664062 16.816406 -1.863281 15.953125 -1.28125 C 15.085938 -0.695312 14.128906 -0.265625 13.078125 0.015625 C 12.035156 0.296875 10.90625 0.4375 9.6875 0.4375 C 8.632812 0.4375 7.601562 0.328125 6.59375 0.109375 C 5.59375 -0.0976562 4.753906 -0.359375 4.078125 -0.671875 C 3.398438 -0.992188 2.785156 -1.3125 2.234375 -1.625 C 1.691406 -1.9375 1.296875 -2.203125 1.046875 -2.421875 L 0.671875 -2.734375 L 3.40625 -7.328125 C 3.632812 -7.140625 3.953125 -6.894531 4.359375 -6.59375 C 4.765625 -6.289062 5.488281 -5.882812 6.53125 -5.375 C 7.570312 -4.875 8.488281 -4.625 9.28125 -4.625 C 11.59375 -4.625 12.75 -5.410156 12.75 -6.984375 C 12.75 -7.316406 12.664062 -7.625 12.5 -7.90625 C 12.332031 -8.1875 12.039062 -8.46875 11.625 -8.75 C 11.207031 -9.03125 10.835938 -9.25 10.515625 -9.40625 C 10.191406 -9.570312 9.664062 -9.820312 8.9375 -10.15625 C 8.21875 -10.5 7.679688 -10.757812 7.328125 -10.9375 C 5.878906 -11.65625 4.753906 -12.550781 3.953125 -13.625 C 3.160156 -14.707031 2.765625 -15.867188 2.765625 -17.109375 C 2.765625 -19.265625 3.554688 -21.023438 5.140625 -22.390625 C 6.734375 -23.753906 8.550781 -24.4375 10.59375 -24.4375 Z M 10.59375 -24.4375 "/></g></g></g><g fill="#000000" fill-opacity="1"><g transform="translate(103.060868, 28.945333)"><g><path d="M 0.234375 -19.203125 L 0.234375 -24 L 17.109375 -24 L 17.109375 -19.203125 L 11.40625 -19.203125 L 11.40625 0 L 5.9375 0 L 5.9375 -19.203125 Z M 0.234375 -19.203125 "/></g></g></g><g fill="#000000" fill-opacity="1"><g transform="translate(118.945396, 28.945333)"><g><path d="M 13.9375 -24 L 23.625 0 L 17.75 0 L 15.96875 -4.796875 L 6.84375 -4.796875 L 5.0625 0 L -0.8125 0 L 8.875 -24 Z M 14.109375 -9.59375 L 11.4375 -16.578125 L 11.375 -16.578125 L 8.703125 -9.59375 Z M 14.109375 -9.59375 "/></g></g></g><g fill="#000000" fill-opacity="1"><g transform="translate(140.299423, 28.945333)"><g><path d="M 14.515625 -4.953125 C 15.347656 -4.953125 16.15625 -5.078125 16.9375 -5.328125 C 17.726562 -5.578125 18.304688 -5.816406 18.671875 -6.046875 L 19.234375 -6.4375 L 21.5625 -1.78125 C 21.476562 -1.71875 21.367188 -1.632812 21.234375 -1.53125 C 21.097656 -1.4375 20.78125 -1.257812 20.28125 -1 C 19.789062 -0.738281 19.265625 -0.507812 18.703125 -0.3125 C 18.140625 -0.125 17.398438 0.046875 16.484375 0.203125 C 15.578125 0.359375 14.640625 0.4375 13.671875 0.4375 C 11.441406 0.4375 9.328125 -0.109375 7.328125 -1.203125 C 5.328125 -2.296875 3.71875 -3.800781 2.5 -5.71875 C 1.28125 -7.644531 0.671875 -9.722656 0.671875 -11.953125 C 0.671875 -13.640625 1.03125 -15.257812 1.75 -16.8125 C 2.46875 -18.363281 3.421875 -19.691406 4.609375 -20.796875 C 5.804688 -21.898438 7.195312 -22.78125 8.78125 -23.4375 C 10.375 -24.101562 12.003906 -24.4375 13.671875 -24.4375 C 15.222656 -24.4375 16.648438 -24.25 17.953125 -23.875 C 19.265625 -23.507812 20.195312 -23.144531 20.75 -22.78125 L 21.5625 -22.234375 L 19.234375 -17.578125 C 19.097656 -17.691406 18.894531 -17.828125 18.625 -17.984375 C 18.351562 -18.148438 17.804688 -18.367188 16.984375 -18.640625 C 16.171875 -18.921875 15.347656 -19.0625 14.515625 -19.0625 C 13.203125 -19.0625 12.019531 -18.847656 10.96875 -18.421875 C 9.914062 -17.992188 9.082031 -17.429688 8.46875 -16.734375 C 7.863281 -16.035156 7.398438 -15.28125 7.078125 -14.46875 C 6.765625 -13.664062 6.609375 -12.847656 6.609375 -12.015625 C 6.609375 -10.191406 7.289062 -8.554688 8.65625 -7.109375 C 10.019531 -5.671875 11.972656 -4.953125 14.515625 -4.953125 Z M 14.515625 -4.953125 "/></g></g></g><g fill="#000000" fill-opacity="1"><g transform="translate(160.751559, 28.945333)"><g><path d="M 23.59375 0 L 16.0625 0 L 7.21875 -10.1875 L 7.21875 0 L 1.75 0 L 1.75 -24 L 7.21875 -24 L 7.21875 -14.203125 L 15.453125 -24 L 22.078125 -24 L 12.421875 -12.625 Z M 23.59375 0 "/></g></g></g><g fill="#000000" fill-opacity="1"><g transform="translate(182.192854, 28.945333)"><g><path d="M 20.1875 -24 L 20.1875 -8.53125 C 20.1875 -5.582031 19.390625 -3.347656 17.796875 -1.828125 C 16.210938 -0.316406 13.882812 0.4375 10.8125 0.4375 C 7.75 0.4375 5.421875 -0.316406 3.828125 -1.828125 C 2.242188 -3.347656 1.453125 -5.582031 1.453125 -8.53125 L 1.453125 -24 L 6.921875 -24 L 6.921875 -10.125 C 6.921875 -8.1875 7.222656 -6.835938 7.828125 -6.078125 C 8.441406 -5.328125 9.4375 -4.953125 10.8125 -4.953125 C 12.195312 -4.953125 13.191406 -5.328125 13.796875 -6.078125 C 14.410156 -6.835938 14.71875 -8.1875 14.71875 -10.125 L 14.71875 -24 Z M 20.1875 -24 "/></g></g></g><g fill="#000000" fill-opacity="1"><g transform="translate(202.383145, 28.945333)"><g><path d="M 1.75 -24 L 10.5 -24 C 12.945312 -24 14.925781 -23.367188 16.4375 -22.109375 C 17.945312 -20.847656 18.703125 -19.015625 18.703125 -16.609375 C 18.703125 -14.203125 17.9375 -12.316406 16.40625 -10.953125 C 14.875 -9.585938 12.90625 -8.90625 10.5 -8.90625 L 7.21875 -8.90625 L 7.21875 0 L 1.75 0 Z M 7.21875 -13.265625 L 8.75 -13.265625 C 9.976562 -13.265625 10.984375 -13.507812 11.765625 -14 C 12.554688 -14.5 12.953125 -15.3125 12.953125 -16.4375 C 12.953125 -17.582031 12.554688 -18.398438 11.765625 -18.890625 C 10.984375 -19.390625 9.976562 -19.640625 8.75 -19.640625 L 7.21875 -19.640625 Z M 7.21875 -13.265625 "/></g></g></g><g clip-path="url(#a5292ffdb8)"><g clip-path="url(#6349f46037)"><path fill="#00ce7c" d="M 23.351562 3.699219 L 49.925781 3.699219 L 49.925781 30.273438 L 23.351562 30.273438 Z M 23.351562 3.699219 " fill-opacity="1" fill-rule="nonzero"/></g></g><g clip-path="url(#7cabe9847c)"><path fill="#000000" d="M 27.777344 14.5 L 36.605469 18.914062 C 36.65625 18.941406 36.714844 18.953125 36.769531 18.953125 C 36.824219 18.953125 36.882812 18.941406 36.933594 18.914062 L 45.761719 14.5 C 45.886719 14.4375 45.964844 14.308594 45.964844 14.167969 C 45.964844 14.03125 45.886719 13.902344 45.761719 13.839844 L 36.933594 9.425781 C 36.832031 9.375 36.707031 9.375 36.605469 9.425781 L 27.777344 13.839844 C 27.652344 13.902344 27.574219 14.03125 27.574219 14.167969 C 27.574219 14.308594 27.652344 14.4375 27.777344 14.5 Z M 36.769531 10.167969 L 44.777344 14.167969 L 36.769531 18.171875 L 28.761719 14.167969 Z M 36.769531 10.167969 " fill-opacity="1" fill-rule="nonzero"/></g><g clip-path="url(#b99f507e45)"><path fill="#000000" d="M 45.433594 16.785156 L 36.769531 21.117188 L 28.105469 16.785156 C 27.921875 16.691406 27.703125 16.765625 27.613281 16.949219 C 27.519531 17.128906 27.59375 17.351562 27.777344 17.441406 L 36.605469 21.855469 C 36.65625 21.882812 36.714844 21.894531 36.769531 21.894531 C 36.824219 21.894531 36.882812 21.882812 36.933594 21.855469 L 45.761719 17.441406 C 45.945312 17.351562 46.019531 17.128906 45.925781 16.949219 C 45.835938 16.765625 45.617188 16.691406 45.433594 16.785156 Z M 45.433594 16.785156 " fill-opacity="1" fill-rule="nonzero"/></g><g clip-path="url(#bb13b8d9a0)"><path fill="#000000" d="M 45.433594 19.726562 L 36.769531 24.058594 L 28.105469 19.726562 C 27.921875 19.636719 27.703125 19.710938 27.613281 19.890625 C 27.519531 20.074219 27.59375 20.292969 27.777344 20.386719 L 36.605469 24.800781 C 36.65625 24.824219 36.714844 24.839844 36.769531 24.839844 C 36.824219 24.839844 36.882812 24.824219 36.933594 24.800781 L 45.761719 20.386719 C 45.945312 20.292969 46.019531 20.074219 45.925781 19.890625 C 45.835938 19.710938 45.617188 19.636719 45.433594 19.726562 Z M 45.433594 19.726562 " fill-opacity="1" fill-rule="nonzero"/></g></svg>