<svg xmlns="http://www.w3.org/2000/svg" xmlns:xlink="http://www.w3.org/1999/xlink" width="66" zoomAndPan="magnify" viewBox="0 0 49.5 74.249997" height="99" preserveAspectRatio="xMidYMid meet" version="1.0"><defs><clipPath id="4af32dedc0"><path d="M 2.332031 29.695312 L 30.546875 29.695312 L 30.546875 31.921875 L 2.332031 31.921875 Z M 2.332031 29.695312 " clip-rule="nonzero"/></clipPath><clipPath id="fa6987b58c"><path d="M 2.332031 30.875 C 2.332031 31.1875 2.457031 31.488281 2.675781 31.707031 C 2.898438 31.929688 3.199219 32.054688 3.511719 32.054688 L 29.300781 32.054688 C 29.613281 32.054688 29.910156 31.929688 30.132812 31.707031 C 30.351562 31.488281 30.476562 31.1875 30.476562 30.875 C 30.476562 30.5625 30.351562 30.261719 30.132812 30.042969 C 29.910156 29.820312 29.613281 29.695312 29.300781 29.695312 L 3.511719 29.695312 C 3.199219 29.695312 2.898438 29.820312 2.675781 30.042969 C 2.457031 30.261719 2.332031 30.5625 2.332031 30.875 Z M 2.332031 30.875 " clip-rule="nonzero"/></clipPath><clipPath id="d4b925510d"><path d="M 2 39 L 31 39 L 31 45 L 2 45 Z M 2 39 " clip-rule="nonzero"/></clipPath><clipPath id="71a6b8a38d"><path d="M 2.785156 37.859375 L 30.476562 43.269531 L 30.046875 45.457031 L 2.355469 40.046875 Z M 2.785156 37.859375 " clip-rule="nonzero"/></clipPath><clipPath id="2d62db7618"><path d="M 2.785156 37.859375 L 30.476562 43.269531 L 30.046875 45.457031 L 2.355469 40.046875 Z M 2.785156 37.859375 " clip-rule="nonzero"/></clipPath></defs><g clip-path="url(#4af32dedc0)"><g clip-path="url(#fa6987b58c)"><path fill="#00bf63" d="M 3.296875 31.953125 C 3.53125 31.90625 3.539062 31.574219 3.375 31.464844 C 6.695312 31.15625 10.019531 30.890625 13.351562 30.726562 C 16.902344 30.554688 20.460938 30.488281 24.015625 30.53125 C 25.023438 30.542969 26.027344 30.5625 27.03125 30.589844 C 27.527344 30.605469 28.019531 30.621094 28.515625 30.640625 C 28.761719 30.652344 29.007812 30.660156 29.257812 30.671875 C 29.503906 30.679688 29.746094 30.660156 29.992188 30.664062 C 30.429688 30.667969 30.480469 30.074219 30.09375 29.941406 C 29.691406 29.804688 29.210938 29.847656 28.792969 29.832031 C 28.34375 29.816406 27.898438 29.800781 27.449219 29.789062 C 26.550781 29.761719 25.65625 29.742188 24.757812 29.730469 C 22.980469 29.710938 21.203125 29.714844 19.425781 29.746094 C 15.851562 29.808594 12.285156 29.980469 8.722656 30.273438 C 6.71875 30.4375 4.71875 30.632812 2.722656 30.890625 C 2.53125 30.914062 2.425781 31.019531 2.398438 31.207031 C 2.332031 31.699219 2.839844 32.042969 3.296875 31.953125 " fill-opacity="1" fill-rule="nonzero"/></g></g><g clip-path="url(#d4b925510d)"><g clip-path="url(#71a6b8a38d)"><g clip-path="url(#2d62db7618)"><path fill="#00bf63" d="M 3.296875 40.257812 C 3.535156 40.257812 3.605469 39.933594 3.46875 39.796875 C 6.785156 40.128906 10.097656 40.507812 13.402344 40.984375 C 16.921875 41.496094 20.425781 42.113281 23.90625 42.835938 C 24.890625 43.039062 25.871094 43.253906 26.851562 43.476562 C 27.335938 43.585938 27.816406 43.695312 28.300781 43.808594 C 28.539062 43.863281 28.78125 43.921875 29.023438 43.980469 C 29.265625 44.039062 29.503906 44.0625 29.746094 44.113281 C 30.171875 44.203125 30.335938 43.628906 29.980469 43.425781 C 29.613281 43.214844 29.136719 43.160156 28.726562 43.066406 C 28.292969 42.964844 27.855469 42.863281 27.417969 42.765625 C 26.542969 42.570312 25.664062 42.378906 24.789062 42.195312 C 23.046875 41.832031 21.300781 41.496094 19.550781 41.183594 C 16.03125 40.5625 12.496094 40.046875 8.945312 39.652344 C 6.945312 39.429688 4.945312 39.234375 2.9375 39.105469 C 2.746094 39.09375 2.621094 39.175781 2.558594 39.355469 C 2.402344 39.824219 2.832031 40.261719 3.296875 40.257812 " fill-opacity="1" fill-rule="nonzero"/></g></g></g></svg>