<svg xmlns="http://www.w3.org/2000/svg" xmlns:xlink="http://www.w3.org/1999/xlink" width="119" zoomAndPan="magnify" viewBox="0 0 89.25 72.749998" height="97" preserveAspectRatio="xMidYMid meet" version="1.0"><defs><filter x="0%" y="0%" width="100%" height="100%" id="31413f2e49"><feColorMatrix values="0 0 0 0 1 0 0 0 0 1 0 0 0 0 1 0 0 0 1 0" color-interpolation-filters="sRGB"/></filter><mask id="6af1a66975"><g filter="url(#31413f2e49)"><rect x="-8.925" width="107.1" fill="#000000" y="-7.275" height="87.299998" fill-opacity="0.62"/></g></mask><clipPath id="9252155390"><path d="M 0.214844 0.550781 L 27.734375 0.550781 L 27.734375 66 L 0.214844 66 Z M 0.214844 0.550781 " clip-rule="nonzero"/></clipPath><clipPath id="e3cd80a000"><rect x="0" width="55" y="0" height="68"/></clipPath><clipPath id="2aec8dc3c7"><path d="M 58 3 L 88.507812 3 L 88.507812 70 L 58 70 Z M 58 3 " clip-rule="nonzero"/></clipPath><mask id="a3dc97b2ff"><g filter="url(#31413f2e49)"><rect x="-8.925" width="107.1" fill="#000000" y="-7.275" height="87.299998" fill-opacity="0.62"/></g></mask><clipPath id="535171920c"><path d="M 0.457031 0.550781 L 27.976562 0.550781 L 27.976562 65.257812 L 0.457031 65.257812 Z M 0.457031 0.550781 " clip-rule="nonzero"/></clipPath><clipPath id="d2538a6bf1"><rect x="0" width="31" y="0" height="67"/></clipPath></defs><g mask="url(#6af1a66975)"><g transform="matrix(1, 0, 0, 1, 7, 3)"><g clip-path="url(#e3cd80a000)"><g clip-path="url(#9252155390)"><path fill="#cb6ce6" d="M 22.46875 5.316406 L 22.46875 62.503906 C 22.46875 62.816406 22.4375 63.125 22.375 63.433594 C 22.316406 63.738281 22.226562 64.035156 22.105469 64.324219 C 21.984375 64.613281 21.839844 64.890625 21.664062 65.148438 C 21.492188 65.410156 21.292969 65.652344 21.070312 65.871094 C 20.851562 66.09375 20.609375 66.289062 20.351562 66.464844 C 20.089844 66.636719 19.816406 66.785156 19.527344 66.90625 C 19.238281 67.023438 18.9375 67.113281 18.632812 67.175781 C 18.324219 67.238281 18.015625 67.269531 17.703125 67.269531 L 4.996094 67.269531 C 4.679688 67.269531 4.371094 67.238281 4.066406 67.175781 C 3.757812 67.113281 3.460938 67.023438 3.171875 66.90625 C 2.882812 66.785156 2.605469 66.636719 2.347656 66.464844 C 2.085938 66.289062 1.847656 66.09375 1.625 65.871094 C 1.402344 65.652344 1.207031 65.410156 1.03125 65.148438 C 0.859375 64.890625 0.710938 64.613281 0.589844 64.324219 C 0.472656 64.035156 0.382812 63.738281 0.320312 63.433594 C 0.257812 63.125 0.230469 62.816406 0.230469 62.503906 L 0.230469 5.316406 C 0.230469 5.003906 0.257812 4.695312 0.320312 4.386719 C 0.382812 4.078125 0.472656 3.78125 0.589844 3.492188 C 0.710938 3.203125 0.859375 2.929688 1.03125 2.667969 C 1.207031 2.410156 1.402344 2.167969 1.625 1.945312 C 1.847656 1.726562 2.085938 1.527344 2.347656 1.355469 C 2.605469 1.179688 2.882812 1.035156 3.171875 0.914062 C 3.460938 0.792969 3.757812 0.703125 4.066406 0.644531 C 4.371094 0.582031 4.679688 0.550781 4.996094 0.550781 L 17.703125 0.550781 C 18.015625 0.550781 18.324219 0.582031 18.632812 0.644531 C 18.9375 0.703125 19.238281 0.792969 19.527344 0.914062 C 19.816406 1.035156 20.089844 1.179688 20.351562 1.355469 C 20.609375 1.527344 20.851562 1.726562 21.070312 1.945312 C 21.292969 2.167969 21.492188 2.410156 21.664062 2.667969 C 21.839844 2.929688 21.984375 3.203125 22.105469 3.492188 C 22.226562 3.78125 22.316406 4.078125 22.375 4.386719 C 22.4375 4.695312 22.46875 5.003906 22.46875 5.316406 Z M 49.472656 0.550781 L 36.765625 0.550781 C 36.453125 0.550781 36.140625 0.582031 35.835938 0.644531 C 35.527344 0.703125 35.230469 0.792969 34.941406 0.914062 C 34.652344 1.035156 34.378906 1.179688 34.117188 1.355469 C 33.855469 1.527344 33.617188 1.726562 33.394531 1.945312 C 33.171875 2.167969 32.976562 2.410156 32.800781 2.667969 C 32.628906 2.929688 32.480469 3.203125 32.363281 3.492188 C 32.242188 3.78125 32.152344 4.078125 32.089844 4.386719 C 32.03125 4.695312 32 5.003906 32 5.316406 L 32 62.503906 C 32 62.816406 32.03125 63.125 32.089844 63.433594 C 32.152344 63.738281 32.242188 64.035156 32.363281 64.324219 C 32.480469 64.613281 32.628906 64.890625 32.800781 65.148438 C 32.976562 65.410156 33.171875 65.652344 33.394531 65.871094 C 33.617188 66.09375 33.855469 66.289062 34.117188 66.464844 C 34.378906 66.636719 34.652344 66.785156 34.941406 66.90625 C 35.230469 67.023438 35.527344 67.113281 35.835938 67.175781 C 36.140625 67.238281 36.453125 67.269531 36.765625 67.269531 L 49.472656 67.269531 C 49.785156 67.269531 50.09375 67.238281 50.402344 67.175781 C 50.707031 67.113281 51.007812 67.023438 51.296875 66.90625 C 51.585938 66.785156 51.859375 66.636719 52.121094 66.464844 C 52.378906 66.289062 52.621094 66.09375 52.84375 65.871094 C 53.0625 65.652344 53.261719 65.410156 53.433594 65.148438 C 53.609375 64.890625 53.753906 64.613281 53.875 64.324219 C 53.996094 64.035156 54.085938 63.738281 54.144531 63.433594 C 54.207031 63.125 54.238281 62.816406 54.238281 62.503906 L 54.238281 5.316406 C 54.238281 5.003906 54.207031 4.695312 54.144531 4.386719 C 54.085938 4.078125 53.996094 3.78125 53.875 3.492188 C 53.753906 3.203125 53.609375 2.929688 53.433594 2.667969 C 53.261719 2.410156 53.0625 2.167969 52.84375 1.945312 C 52.621094 1.726562 52.378906 1.527344 52.121094 1.355469 C 51.859375 1.179688 51.585938 1.035156 51.296875 0.914062 C 51.007812 0.792969 50.707031 0.703125 50.402344 0.644531 C 50.09375 0.582031 49.785156 0.550781 49.472656 0.550781 Z M 49.472656 0.550781 " fill-opacity="1" fill-rule="nonzero"/></g></g></g></g><g clip-path="url(#2aec8dc3c7)"><g mask="url(#a3dc97b2ff)"><g transform="matrix(1, 0, 0, 1, 58, 3)"><g clip-path="url(#d2538a6bf1)"><g clip-path="url(#535171920c)"><path fill="#cb6ce6" d="M 22.554688 5.28125 L 22.554688 62.058594 C 22.554688 62.371094 22.523438 62.679688 22.464844 62.984375 C 22.402344 63.289062 22.3125 63.582031 22.195312 63.871094 C 22.074219 64.15625 21.929688 64.429688 21.757812 64.6875 C 21.585938 64.945312 21.386719 65.1875 21.167969 65.40625 C 20.949219 65.625 20.710938 65.820312 20.453125 65.992188 C 20.195312 66.167969 19.921875 66.3125 19.632812 66.429688 C 19.347656 66.550781 19.050781 66.640625 18.746094 66.699219 C 18.441406 66.761719 18.132812 66.792969 17.824219 66.792969 L 5.207031 66.792969 C 4.894531 66.792969 4.585938 66.761719 4.28125 66.699219 C 3.976562 66.640625 3.683594 66.550781 3.394531 66.429688 C 3.109375 66.3125 2.835938 66.167969 2.578125 65.992188 C 2.320312 65.820312 2.078125 65.625 1.859375 65.40625 C 1.640625 65.1875 1.445312 64.945312 1.273438 64.6875 C 1.097656 64.429688 0.953125 64.15625 0.835938 63.871094 C 0.714844 63.582031 0.625 63.289062 0.566406 62.984375 C 0.503906 62.679688 0.472656 62.371094 0.472656 62.058594 L 0.472656 5.28125 C 0.472656 4.972656 0.503906 4.664062 0.566406 4.359375 C 0.625 4.054688 0.714844 3.757812 0.835938 3.472656 C 0.953125 3.183594 1.097656 2.914062 1.273438 2.652344 C 1.445312 2.394531 1.640625 2.15625 1.859375 1.9375 C 2.078125 1.71875 2.320312 1.519531 2.578125 1.347656 C 2.835938 1.175781 3.109375 1.03125 3.394531 0.910156 C 3.683594 0.792969 3.976562 0.703125 4.28125 0.640625 C 4.585938 0.582031 4.894531 0.550781 5.207031 0.550781 L 17.824219 0.550781 C 18.132812 0.550781 18.441406 0.582031 18.746094 0.640625 C 19.050781 0.703125 19.347656 0.792969 19.632812 0.910156 C 19.921875 1.03125 20.195312 1.175781 20.453125 1.347656 C 20.710938 1.519531 20.949219 1.71875 21.167969 1.9375 C 21.386719 2.15625 21.585938 2.394531 21.757812 2.652344 C 21.929688 2.914062 22.074219 3.183594 22.195312 3.472656 C 22.3125 3.757812 22.402344 4.054688 22.464844 4.359375 C 22.523438 4.664062 22.554688 4.972656 22.554688 5.28125 Z M 49.367188 0.550781 L 36.75 0.550781 C 36.4375 0.550781 36.128906 0.582031 35.824219 0.640625 C 35.519531 0.703125 35.226562 0.792969 34.9375 0.910156 C 34.652344 1.03125 34.378906 1.175781 34.121094 1.347656 C 33.863281 1.519531 33.621094 1.71875 33.402344 1.9375 C 33.183594 2.15625 32.988281 2.394531 32.816406 2.652344 C 32.640625 2.914062 32.496094 3.183594 32.378906 3.472656 C 32.257812 3.757812 32.167969 4.054688 32.109375 4.359375 C 32.046875 4.664062 32.015625 4.972656 32.015625 5.28125 L 32.015625 62.058594 C 32.015625 62.371094 32.046875 62.679688 32.109375 62.984375 C 32.167969 63.289062 32.257812 63.582031 32.378906 63.871094 C 32.496094 64.15625 32.640625 64.429688 32.816406 64.6875 C 32.988281 64.945312 33.183594 65.1875 33.402344 65.40625 C 33.621094 65.625 33.863281 65.820312 34.121094 65.992188 C 34.378906 66.167969 34.652344 66.3125 34.9375 66.429688 C 35.226562 66.550781 35.519531 66.640625 35.824219 66.699219 C 36.128906 66.761719 36.4375 66.792969 36.75 66.792969 L 49.367188 66.792969 C 49.675781 66.792969 49.984375 66.761719 50.289062 66.699219 C 50.59375 66.640625 50.890625 66.550781 51.175781 66.429688 C 51.464844 66.3125 51.738281 66.167969 51.996094 65.992188 C 52.253906 65.820312 52.492188 65.625 52.710938 65.40625 C 52.929688 65.1875 53.128906 64.945312 53.300781 64.6875 C 53.472656 64.429688 53.617188 64.15625 53.738281 63.871094 C 53.855469 63.582031 53.945312 63.289062 54.007812 62.984375 C 54.066406 62.679688 54.097656 62.371094 54.097656 62.058594 L 54.097656 5.28125 C 54.097656 4.972656 54.066406 4.664062 54.007812 4.359375 C 53.945312 4.054688 53.855469 3.757812 53.738281 3.472656 C 53.617188 3.183594 53.472656 2.914062 53.300781 2.652344 C 53.128906 2.394531 52.929688 2.15625 52.710938 1.9375 C 52.492188 1.71875 52.253906 1.519531 51.996094 1.347656 C 51.738281 1.175781 51.464844 1.03125 51.175781 0.910156 C 50.890625 0.792969 50.59375 0.703125 50.289062 0.640625 C 49.984375 0.582031 49.675781 0.550781 49.367188 0.550781 Z M 49.367188 0.550781 " fill-opacity="1" fill-rule="nonzero"/></g></g></g></g></g></svg>