<svg xmlns="http://www.w3.org/2000/svg" xmlns:xlink="http://www.w3.org/1999/xlink" width="220" zoomAndPan="magnify" viewBox="0 0 165 179.999997" height="240" preserveAspectRatio="xMidYMid meet" version="1.0"><defs><clipPath id="c64c452fe9"><path d="M 14 89 L 90 89 L 90 142.929688 L 14 142.929688 Z M 14 89 " clip-rule="nonzero"/></clipPath><clipPath id="2101dcdd2f"><path d="M 88 37.507812 L 163.34375 37.507812 L 163.34375 91 L 88 91 Z M 88 37.507812 " clip-rule="nonzero"/></clipPath><clipPath id="d3a7d1122e"><path d="M 2.84375 127 L 27 127 L 27 142.929688 L 2.84375 142.929688 Z M 2.84375 127 " clip-rule="nonzero"/></clipPath><clipPath id="08f7da58a6"><path d="M 75.007812 84.582031 L 86.289062 84.582031 L 86.289062 95.863281 L 75.007812 95.863281 Z M 75.007812 84.582031 " clip-rule="nonzero"/></clipPath><clipPath id="cd3fdb987e"><path d="M 80.648438 84.582031 C 77.53125 84.582031 75.007812 87.109375 75.007812 90.222656 C 75.007812 93.339844 77.53125 95.863281 80.648438 95.863281 C 83.761719 95.863281 86.289062 93.339844 86.289062 90.222656 C 86.289062 87.109375 83.761719 84.582031 80.648438 84.582031 Z M 80.648438 84.582031 " clip-rule="nonzero"/></clipPath></defs><g clip-path="url(#c64c452fe9)"><path fill="#00bf63" d="M 14.003906 142.355469 L 14.003906 103.792969 C 14.003906 96.003906 20.328125 89.683594 28.117188 89.683594 L 88.753906 89.683594 C 89.058594 89.683594 89.304688 89.929688 89.304688 90.234375 C 89.304688 90.539062 89.058594 90.789062 88.753906 90.789062 L 28.117188 90.789062 C 20.9375 90.789062 15.109375 96.613281 15.109375 103.792969 C 15.109375 103.792969 15.109375 142.355469 15.109375 142.355469 C 15.109375 142.660156 14.863281 142.90625 14.558594 142.90625 C 14.253906 142.90625 14.003906 142.660156 14.003906 142.355469 Z M 14.003906 142.355469 " fill-opacity="1" fill-rule="evenodd"/></g><g clip-path="url(#2101dcdd2f)"><path fill="#00bf63" d="M 163.503906 38.113281 L 163.503906 76.671875 C 163.503906 84.464844 157.179688 90.785156 149.390625 90.785156 L 88.753906 90.785156 C 88.449219 90.785156 88.203125 90.539062 88.203125 90.234375 C 88.203125 89.925781 88.449219 89.679688 88.753906 89.679688 L 149.390625 89.679688 C 156.570312 89.679688 162.398438 83.851562 162.398438 76.671875 L 162.398438 38.113281 C 162.398438 37.808594 162.644531 37.558594 162.949219 37.558594 C 163.253906 37.558594 163.503906 37.808594 163.503906 38.113281 Z M 163.503906 38.113281 " fill-opacity="1" fill-rule="evenodd"/></g><g clip-path="url(#d3a7d1122e)"><path fill="#00bf63" d="M 25.890625 128.511719 L 15 142.691406 C 14.894531 142.828125 14.734375 142.90625 14.558594 142.90625 C 14.386719 142.90625 14.226562 142.828125 14.125 142.695312 L 3.011719 128.386719 C 2.824219 128.148438 2.867188 127.796875 3.105469 127.613281 C 3.347656 127.421875 3.699219 127.464844 3.882812 127.707031 L 14.558594 141.449219 C 14.558594 141.449219 25.011719 127.839844 25.011719 127.839844 C 25.199219 127.59375 25.546875 127.550781 25.789062 127.734375 C 26.03125 127.925781 26.078125 128.269531 25.890625 128.511719 Z M 25.890625 128.511719 " fill-opacity="1" fill-rule="evenodd"/></g><g clip-path="url(#08f7da58a6)"><g clip-path="url(#cd3fdb987e)"><path fill="#00bf63" d="M 75.007812 84.582031 L 86.289062 84.582031 L 86.289062 95.863281 L 75.007812 95.863281 Z M 75.007812 84.582031 " fill-opacity="1" fill-rule="nonzero"/></g></g></svg>