<svg xmlns="http://www.w3.org/2000/svg" xmlns:xlink="http://www.w3.org/1999/xlink" width="220" zoomAndPan="magnify" viewBox="0 0 165 179.999997" height="240" preserveAspectRatio="xMidYMid meet" version="1.0"><defs><clipPath id="d8beadefbb"><path d="M 77 89 L 153 89 L 153 142.929688 L 77 142.929688 Z M 77 89 " clip-rule="nonzero"/></clipPath><clipPath id="9d0c24460b"><path d="M 2.996094 37.507812 L 79 37.507812 L 79 91 L 2.996094 91 Z M 2.996094 37.507812 " clip-rule="nonzero"/></clipPath><clipPath id="50ef21fc1f"><path d="M 140 127 L 163.34375 127 L 163.34375 142.929688 L 140 142.929688 Z M 140 127 " clip-rule="nonzero"/></clipPath><clipPath id="85122bb687"><path d="M 75.007812 84.582031 L 86.289062 84.582031 L 86.289062 95.863281 L 75.007812 95.863281 Z M 75.007812 84.582031 " clip-rule="nonzero"/></clipPath><clipPath id="6428a9b4ad"><path d="M 80.648438 84.582031 C 77.53125 84.582031 75.007812 87.109375 75.007812 90.222656 C 75.007812 93.339844 77.53125 95.863281 80.648438 95.863281 C 83.761719 95.863281 86.289062 93.339844 86.289062 90.222656 C 86.289062 87.109375 83.761719 84.582031 80.648438 84.582031 Z M 80.648438 84.582031 " clip-rule="nonzero"/></clipPath></defs><g clip-path="url(#d8beadefbb)"><path fill="#00bf63" d="M 152.335938 142.355469 L 152.335938 103.792969 C 152.335938 96.003906 146.011719 89.683594 138.226562 89.683594 L 77.589844 89.683594 C 77.285156 89.683594 77.035156 89.929688 77.035156 90.234375 C 77.035156 90.539062 77.285156 90.789062 77.589844 90.789062 L 138.226562 90.789062 C 145.402344 90.789062 151.234375 96.613281 151.234375 103.792969 C 151.234375 103.792969 151.234375 142.355469 151.234375 142.355469 C 151.234375 142.660156 151.480469 142.90625 151.785156 142.90625 C 152.089844 142.90625 152.335938 142.660156 152.335938 142.355469 Z M 152.335938 142.355469 " fill-opacity="1" fill-rule="evenodd"/></g><g clip-path="url(#9d0c24460b)"><path fill="#00bf63" d="M 2.839844 38.113281 L 2.839844 76.671875 C 2.839844 84.464844 9.164062 90.785156 16.953125 90.785156 L 77.589844 90.785156 C 77.894531 90.785156 78.140625 90.539062 78.140625 90.234375 C 78.140625 89.925781 77.894531 89.679688 77.589844 89.679688 L 16.953125 89.679688 C 9.773438 89.679688 3.945312 83.851562 3.945312 76.671875 L 3.945312 38.113281 C 3.945312 37.808594 3.695312 37.558594 3.394531 37.558594 C 3.089844 37.558594 2.839844 37.808594 2.839844 38.113281 Z M 2.839844 38.113281 " fill-opacity="1" fill-rule="evenodd"/></g><g clip-path="url(#50ef21fc1f)"><path fill="#00bf63" d="M 140.449219 128.511719 L 151.34375 142.691406 C 151.449219 142.828125 151.609375 142.90625 151.785156 142.90625 C 151.953125 142.90625 152.113281 142.828125 152.21875 142.695312 L 163.328125 128.386719 C 163.519531 128.148438 163.476562 127.796875 163.234375 127.613281 C 162.992188 127.421875 162.644531 127.464844 162.457031 127.707031 L 151.785156 141.449219 C 151.785156 141.449219 141.332031 127.839844 141.332031 127.839844 C 141.140625 127.59375 140.796875 127.550781 140.554688 127.734375 C 140.3125 127.925781 140.265625 128.269531 140.449219 128.511719 Z M 140.449219 128.511719 " fill-opacity="1" fill-rule="evenodd"/></g><g clip-path="url(#85122bb687)"><g clip-path="url(#6428a9b4ad)"><path fill="#00bf63" d="M 75.007812 84.582031 L 86.289062 84.582031 L 86.289062 95.863281 L 75.007812 95.863281 Z M 75.007812 84.582031 " fill-opacity="1" fill-rule="nonzero"/></g></g></svg>