<svg xmlns="http://www.w3.org/2000/svg" xmlns:xlink="http://www.w3.org/1999/xlink" width="220" zoomAndPan="magnify" viewBox="0 0 165 179.999997" height="240" preserveAspectRatio="xMidYMid meet" version="1.0"><defs><clipPath id="164916830a"><path d="M 78 96 L 151 96 L 151 147.707031 L 78 147.707031 Z M 78 96 " clip-rule="nonzero"/></clipPath><clipPath id="7506f7e8bb"><path d="M 7.003906 46.632812 L 80 46.632812 L 80 98 L 7.003906 98 Z M 7.003906 46.632812 " clip-rule="nonzero"/></clipPath><clipPath id="37c0a44c41"><path d="M 139 133 L 161.457031 133 L 161.457031 147.707031 L 139 147.707031 Z M 139 133 " clip-rule="nonzero"/></clipPath><clipPath id="eec6a34696"><path d="M 2.84375 36.023438 L 11.058594 36.023438 L 11.058594 44.273438 L 2.84375 44.273438 Z M 2.84375 36.023438 " clip-rule="nonzero"/></clipPath></defs><g clip-path="url(#164916830a)"><path fill="#00bf63" d="M 150.769531 147.324219 L 150.769531 110.226562 C 150.769531 102.734375 144.683594 96.652344 137.195312 96.652344 L 78.859375 96.652344 C 78.566406 96.652344 78.328125 96.890625 78.328125 97.183594 C 78.328125 97.476562 78.566406 97.714844 78.859375 97.714844 L 137.195312 97.714844 C 144.097656 97.714844 149.707031 103.320312 149.707031 110.226562 C 149.707031 110.226562 149.707031 147.324219 149.707031 147.324219 C 149.707031 147.617188 149.945312 147.855469 150.238281 147.855469 C 150.53125 147.855469 150.769531 147.617188 150.769531 147.324219 Z M 150.769531 147.324219 " fill-opacity="1" fill-rule="evenodd"/></g><g clip-path="url(#7506f7e8bb)"><path fill="#00bf63" d="M 6.953125 47.042969 L 6.953125 84.136719 C 6.953125 91.632812 13.035156 97.714844 20.527344 97.714844 L 78.859375 97.714844 C 79.152344 97.714844 79.390625 97.476562 79.390625 97.183594 C 79.390625 96.886719 79.152344 96.648438 78.859375 96.648438 L 20.527344 96.648438 C 13.621094 96.648438 8.015625 91.042969 8.015625 84.136719 L 8.015625 47.042969 C 8.015625 46.75 7.777344 46.511719 7.484375 46.511719 C 7.191406 46.511719 6.953125 46.75 6.953125 47.042969 Z M 6.953125 47.042969 " fill-opacity="1" fill-rule="evenodd"/></g><g clip-path="url(#37c0a44c41)"><path fill="#00bf63" d="M 139.332031 134.003906 L 149.8125 147.644531 C 149.914062 147.777344 150.066406 147.855469 150.234375 147.855469 C 150.398438 147.855469 150.554688 147.777344 150.65625 147.648438 L 161.34375 133.886719 C 161.527344 133.65625 161.484375 133.316406 161.253906 133.140625 C 161.019531 132.957031 160.683594 133 160.503906 133.230469 L 150.234375 146.453125 C 150.234375 146.453125 140.179688 133.359375 140.179688 133.359375 C 140 133.121094 139.664062 133.082031 139.433594 133.257812 C 139.203125 133.441406 139.15625 133.773438 139.332031 134.003906 Z M 139.332031 134.003906 " fill-opacity="1" fill-rule="evenodd"/></g><g clip-path="url(#eec6a34696)"><path fill="#00bf63" d="M 6.953125 36.023438 C 9.222656 36.023438 11.058594 37.859375 11.058594 40.128906 C 11.058594 42.398438 9.222656 44.238281 6.953125 44.238281 C 4.683594 44.238281 2.84375 42.398438 2.84375 40.128906 C 2.84375 37.859375 4.683594 36.023438 6.953125 36.023438 Z M 6.953125 43.417969 C 8.769531 43.417969 10.238281 41.945312 10.238281 40.128906 C 10.238281 38.316406 8.769531 36.84375 6.953125 36.84375 C 5.136719 36.84375 3.667969 38.316406 3.667969 40.128906 C 3.667969 41.945312 5.136719 43.417969 6.953125 43.417969 Z M 6.953125 43.417969 " fill-opacity="1" fill-rule="nonzero"/></g></svg>