<svg xmlns="http://www.w3.org/2000/svg" xmlns:xlink="http://www.w3.org/1999/xlink" width="154" zoomAndPan="magnify" viewBox="0 0 115.5 92.249997" height="123" preserveAspectRatio="xMidYMid meet" version="1.0"><defs><clipPath id="79e65943f8"><path d="M 74 60 L 105.636719 60 L 105.636719 91.507812 L 74 91.507812 Z M 74 60 " clip-rule="nonzero"/></clipPath><clipPath id="972e3a03dc"><path d="M 14.128906 0 L 83 0 L 83 68 L 14.128906 68 Z M 14.128906 0 " clip-rule="nonzero"/></clipPath></defs><path fill="#5d6d7e" d="M 68.847656 59.972656 L 71.097656 62.222656 L 73.726562 64.835938 L 74.738281 65.855469 L 79.984375 60.605469 L 74.101562 54.714844 Z M 68.847656 59.972656 " fill-opacity="1" fill-rule="nonzero"/><g clip-path="url(#79e65943f8)"><path fill="#ff8e31" d="M 85.332031 60.574219 L 103.433594 78.671875 C 104.796875 80.03125 105.640625 81.917969 105.636719 83.988281 C 105.636719 86.066406 104.796875 87.949219 103.433594 89.3125 C 102.078125 90.667969 100.195312 91.503906 98.121094 91.503906 C 96.042969 91.503906 94.164062 90.667969 92.804688 89.308594 L 74.703125 71.207031 Z M 85.332031 60.574219 " fill-opacity="1" fill-rule="nonzero"/></g><path fill="#fece59" d="M 82.835938 63.074219 L 84.304688 61.601562 L 102.410156 79.703125 C 103.550781 80.847656 104.179688 82.371094 104.179688 83.988281 C 104.179688 85.613281 103.550781 87.136719 102.410156 88.28125 C 102.199219 88.480469 101.933594 88.582031 101.671875 88.582031 C 101.402344 88.582031 101.136719 88.480469 100.929688 88.277344 C 100.527344 87.871094 100.527344 87.214844 100.929688 86.8125 C 101.6875 86.058594 102.097656 85.050781 102.097656 83.984375 C 102.101562 82.925781 101.6875 81.925781 100.9375 81.175781 Z M 82.835938 63.074219 " fill-opacity="1" fill-rule="nonzero"/><path fill="#34495e" d="M 74.703125 71.207031 L 85.332031 60.570312 L 84.539062 59.777344 C 84.0625 59.296875 83.40625 59.003906 82.679688 59.003906 C 81.949219 59.003906 81.292969 59.296875 80.816406 59.773438 L 73.902344 66.691406 C 73.429688 67.160156 73.132812 67.816406 73.132812 68.550781 C 73.132812 69.273438 73.429688 69.9375 73.902344 70.40625 Z M 74.703125 71.207031 " fill-opacity="1" fill-rule="nonzero"/><g clip-path="url(#972e3a03dc)"><path fill="#34495e" d="M 14.128906 33.984375 C 14.128906 15.21875 29.347656 0 48.117188 0 C 66.890625 0 82.105469 15.21875 82.105469 33.984375 C 82.105469 52.757812 66.886719 67.976562 48.117188 67.980469 C 29.347656 67.976562 14.128906 52.757812 14.128906 33.984375 Z M 14.128906 33.984375 " fill-opacity="1" fill-rule="nonzero"/></g><path fill="#5d6d7e" d="M 48.117188 64.296875 C 64.851562 64.296875 78.425781 50.726562 78.425781 33.984375 C 78.425781 17.253906 64.851562 3.679688 48.117188 3.679688 C 31.378906 3.679688 17.808594 17.253906 17.808594 33.984375 C 17.808594 50.726562 31.378906 64.296875 48.117188 64.296875 Z M 48.117188 64.296875 " fill-opacity="1" fill-rule="nonzero"/><path fill="#cee2f2" d="M 48.117188 61.871094 C 63.511719 61.871094 76 49.390625 76 33.984375 C 76 18.59375 63.511719 6.105469 48.117188 6.105469 C 32.722656 6.105469 20.234375 18.59375 20.234375 33.984375 C 20.234375 49.390625 32.71875 61.871094 48.117188 61.871094 Z M 48.117188 61.871094 " fill-opacity="1" fill-rule="nonzero"/><path fill="#ffffff" d="M 48.851562 10.683594 C 48.375 9.976562 47.558594 9.539062 46.660156 9.589844 C 42.8125 9.820312 39.175781 10.90625 35.851562 12.835938 C 34.679688 13.519531 34.28125 15.027344 34.960938 16.203125 C 35.644531 17.367188 37.152344 17.777344 38.320312 17.089844 C 40.972656 15.558594 43.875 14.691406 46.949219 14.503906 C 48.300781 14.433594 49.339844 13.265625 49.257812 11.914062 C 49.242188 11.449219 49.085938 11.027344 48.851562 10.683594 Z M 48.851562 10.683594 " fill-opacity="1" fill-rule="nonzero"/><path fill="#ffffff" d="M 33.0625 18.765625 C 32.933594 18.570312 32.761719 18.386719 32.574219 18.234375 C 31.519531 17.371094 29.972656 17.539062 29.117188 18.59375 C 26.605469 21.675781 24.878906 25.375 24.113281 29.3125 C 23.210938 33.988281 23.683594 38.777344 25.476562 43.164062 C 26 44.429688 27.4375 45.023438 28.691406 44.507812 C 29.949219 43.996094 30.550781 42.5625 30.035156 41.300781 C 28.605469 37.800781 28.234375 33.980469 28.960938 30.246094 C 29.554688 27.105469 30.933594 24.152344 32.9375 21.691406 C 33.636719 20.835938 33.652344 19.632812 33.0625 18.765625 Z M 33.0625 18.765625 " fill-opacity="1" fill-rule="nonzero"/></svg>