<svg xmlns="http://www.w3.org/2000/svg" xmlns:xlink="http://www.w3.org/1999/xlink" width="300" zoomAndPan="magnify" viewBox="0 0 224.87999 40.499999" height="54" preserveAspectRatio="xMidYMid meet" version="1.0"><defs><g/><clipPath id="0047bf5a86"><path d="M 23.457031 5.222656 L 50 5.222656 L 50 31.765625 L 23.457031 31.765625 Z M 23.457031 5.222656 " clip-rule="nonzero"/></clipPath><clipPath id="874ba1f80f"><path d="M 36.726562 5.222656 C 29.398438 5.222656 23.457031 11.167969 23.457031 18.496094 C 23.457031 25.824219 29.398438 31.765625 36.726562 31.765625 C 44.058594 31.765625 50 25.824219 50 18.496094 C 50 11.167969 44.058594 5.222656 36.726562 5.222656 Z M 36.726562 5.222656 " clip-rule="nonzero"/></clipPath><clipPath id="2dd55bb20f"><path d="M 27.636719 10.859375 L 46.15625 10.859375 L 46.15625 21 L 27.636719 21 Z M 27.636719 10.859375 " clip-rule="nonzero"/></clipPath><clipPath id="900728a74e"><path d="M 27.636719 18 L 46.15625 18 L 46.15625 24 L 27.636719 24 Z M 27.636719 18 " clip-rule="nonzero"/></clipPath><clipPath id="2ea98220f2"><path d="M 27.636719 21 L 46.15625 21 L 46.15625 26.417969 L 27.636719 26.417969 Z M 27.636719 21 " clip-rule="nonzero"/></clipPath></defs><g fill="#000000" fill-opacity="1"><g transform="translate(3.241529, 30.22677)"><g><path d="M 14.5 -4.9375 C 15.332031 -4.9375 16.140625 -5.0625 16.921875 -5.3125 C 17.710938 -5.570312 18.289062 -5.816406 18.65625 -6.046875 L 19.203125 -6.421875 L 21.53125 -1.765625 C 21.457031 -1.710938 21.351562 -1.632812 21.21875 -1.53125 C 21.082031 -1.4375 20.765625 -1.257812 20.265625 -1 C 19.773438 -0.738281 19.25 -0.507812 18.6875 -0.3125 C 18.125 -0.125 17.382812 0.046875 16.46875 0.203125 C 15.5625 0.359375 14.625 0.4375 13.65625 0.4375 C 11.425781 0.4375 9.3125 -0.109375 7.3125 -1.203125 C 5.320312 -2.296875 3.71875 -3.800781 2.5 -5.71875 C 1.28125 -7.644531 0.671875 -9.71875 0.671875 -11.9375 C 0.671875 -13.625 1.023438 -15.242188 1.734375 -16.796875 C 2.453125 -18.347656 3.40625 -19.675781 4.59375 -20.78125 C 5.789062 -21.882812 7.179688 -22.765625 8.765625 -23.421875 C 10.359375 -24.078125 11.988281 -24.40625 13.65625 -24.40625 C 15.207031 -24.40625 16.632812 -24.222656 17.9375 -23.859375 C 19.25 -23.492188 20.175781 -23.125 20.71875 -22.75 L 21.53125 -22.203125 L 19.203125 -17.546875 C 19.066406 -17.671875 18.863281 -17.8125 18.59375 -17.96875 C 18.320312 -18.132812 17.78125 -18.351562 16.96875 -18.625 C 16.15625 -18.894531 15.332031 -19.03125 14.5 -19.03125 C 13.1875 -19.03125 12.003906 -18.816406 10.953125 -18.390625 C 9.910156 -17.960938 9.082031 -17.398438 8.46875 -16.703125 C 7.863281 -16.015625 7.398438 -15.265625 7.078125 -14.453125 C 6.753906 -13.648438 6.59375 -12.832031 6.59375 -12 C 6.59375 -10.175781 7.273438 -8.539062 8.640625 -7.09375 C 10.003906 -5.65625 11.957031 -4.9375 14.5 -4.9375 Z M 14.5 -4.9375 "/></g></g></g><g fill="#000000" fill-opacity="1"><g transform="translate(23.673654, 30.22677)"><g/></g></g><g fill="#000000" fill-opacity="1"><g transform="translate(30.15335, 30.22677)"><g/></g></g><g fill="#000000" fill-opacity="1"><g transform="translate(36.633046, 30.22677)"><g/></g></g><g fill="#000000" fill-opacity="1"><g transform="translate(43.112744, 30.22677)"><g/></g></g><g fill="#000000" fill-opacity="1"><g transform="translate(49.600333, 30.22677)"><g><path d="M 1.75 -23.984375 L 8.6875 -23.984375 C 12.019531 -23.984375 14.867188 -22.84375 17.234375 -20.5625 C 19.597656 -18.28125 20.78125 -15.425781 20.78125 -12 C 20.78125 -8.550781 19.601562 -5.6875 17.25 -3.40625 C 14.894531 -1.132812 12.039062 0 8.6875 0 L 1.75 0 Z M 7.203125 -4.875 L 8.046875 -4.875 C 10.046875 -4.875 11.675781 -5.546875 12.9375 -6.890625 C 14.207031 -8.242188 14.851562 -9.9375 14.875 -11.96875 C 14.875 -14.007812 14.238281 -15.707031 12.96875 -17.0625 C 11.707031 -18.414062 10.066406 -19.09375 8.046875 -19.09375 L 7.203125 -19.09375 Z M 7.203125 -4.875 "/></g></g></g><g fill="#000000" fill-opacity="1"><g transform="translate(69.592203, 30.22677)"><g><path d="M 15.46875 -23.984375 L 15.46875 -19.1875 L 7.203125 -19.1875 L 7.203125 -14.421875 L 15.109375 -14.421875 L 15.109375 -9.625 L 7.203125 -9.625 L 7.203125 -4.796875 L 15.46875 -4.796875 L 15.46875 0 L 1.75 0 L 1.75 -23.984375 Z M 15.46875 -23.984375 "/></g></g></g><g fill="#000000" fill-opacity="1"><g transform="translate(84.992845, 30.22677)"><g><path d="M 10.578125 -24.40625 C 11.878906 -24.40625 13.148438 -24.21875 14.390625 -23.84375 C 15.628906 -23.46875 16.546875 -23.097656 17.140625 -22.734375 L 18.015625 -22.140625 L 15.8125 -17.78125 C 15.632812 -17.894531 15.390625 -18.046875 15.078125 -18.234375 C 14.773438 -18.421875 14.195312 -18.664062 13.34375 -18.96875 C 12.488281 -19.28125 11.691406 -19.4375 10.953125 -19.4375 C 10.046875 -19.4375 9.34375 -19.242188 8.84375 -18.859375 C 8.351562 -18.472656 8.109375 -17.953125 8.109375 -17.296875 C 8.109375 -16.960938 8.222656 -16.65625 8.453125 -16.375 C 8.691406 -16.09375 9.085938 -15.789062 9.640625 -15.46875 C 10.203125 -15.15625 10.695312 -14.898438 11.125 -14.703125 C 11.550781 -14.515625 12.210938 -14.222656 13.109375 -13.828125 C 14.660156 -13.171875 15.984375 -12.273438 17.078125 -11.140625 C 18.171875 -10.015625 18.71875 -8.734375 18.71875 -7.296875 C 18.71875 -5.921875 18.46875 -4.71875 17.96875 -3.6875 C 17.476562 -2.664062 16.800781 -1.863281 15.9375 -1.28125 C 15.070312 -0.695312 14.117188 -0.265625 13.078125 0.015625 C 12.035156 0.296875 10.898438 0.4375 9.671875 0.4375 C 8.628906 0.4375 7.601562 0.328125 6.59375 0.109375 C 5.59375 -0.0976562 4.75 -0.359375 4.0625 -0.671875 C 3.382812 -0.992188 2.773438 -1.3125 2.234375 -1.625 C 1.691406 -1.9375 1.296875 -2.195312 1.046875 -2.40625 L 0.671875 -2.734375 L 3.40625 -7.328125 C 3.632812 -7.128906 3.953125 -6.878906 4.359375 -6.578125 C 4.765625 -6.273438 5.484375 -5.875 6.515625 -5.375 C 7.554688 -4.875 8.472656 -4.625 9.265625 -4.625 C 11.578125 -4.625 12.734375 -5.40625 12.734375 -6.96875 C 12.734375 -7.300781 12.648438 -7.609375 12.484375 -7.890625 C 12.316406 -8.171875 12.023438 -8.453125 11.609375 -8.734375 C 11.191406 -9.015625 10.820312 -9.238281 10.5 -9.40625 C 10.1875 -9.570312 9.664062 -9.820312 8.9375 -10.15625 C 8.207031 -10.5 7.671875 -10.753906 7.328125 -10.921875 C 5.867188 -11.640625 4.742188 -12.535156 3.953125 -13.609375 C 3.160156 -14.691406 2.765625 -15.851562 2.765625 -17.09375 C 2.765625 -19.238281 3.554688 -20.992188 5.140625 -22.359375 C 6.734375 -23.722656 8.546875 -24.40625 10.578125 -24.40625 Z M 10.578125 -24.40625 "/></g></g></g><g fill="#000000" fill-opacity="1"><g transform="translate(103.066867, 30.22677)"><g><path d="M 0.234375 -19.1875 L 0.234375 -23.984375 L 17.09375 -23.984375 L 17.09375 -19.1875 L 11.390625 -19.1875 L 11.390625 0 L 5.921875 0 L 5.921875 -19.1875 Z M 0.234375 -19.1875 "/></g></g></g><g fill="#000000" fill-opacity="1"><g transform="translate(118.93244, 30.22677)"><g><path d="M 13.921875 -23.984375 L 23.59375 0 L 17.734375 0 L 15.953125 -4.796875 L 6.828125 -4.796875 L 5.0625 0 L -0.8125 0 L 8.859375 -23.984375 Z M 14.09375 -9.59375 L 11.421875 -16.5625 L 11.359375 -16.5625 L 8.6875 -9.59375 Z M 14.09375 -9.59375 "/></g></g></g><g fill="#000000" fill-opacity="1"><g transform="translate(140.260999, 30.22677)"><g><path d="M 14.5 -4.9375 C 15.332031 -4.9375 16.140625 -5.0625 16.921875 -5.3125 C 17.710938 -5.570312 18.289062 -5.816406 18.65625 -6.046875 L 19.203125 -6.421875 L 21.53125 -1.765625 C 21.457031 -1.710938 21.351562 -1.632812 21.21875 -1.53125 C 21.082031 -1.4375 20.765625 -1.257812 20.265625 -1 C 19.773438 -0.738281 19.25 -0.507812 18.6875 -0.3125 C 18.125 -0.125 17.382812 0.046875 16.46875 0.203125 C 15.5625 0.359375 14.625 0.4375 13.65625 0.4375 C 11.425781 0.4375 9.3125 -0.109375 7.3125 -1.203125 C 5.320312 -2.296875 3.71875 -3.800781 2.5 -5.71875 C 1.28125 -7.644531 0.671875 -9.71875 0.671875 -11.9375 C 0.671875 -13.625 1.023438 -15.242188 1.734375 -16.796875 C 2.453125 -18.347656 3.40625 -19.675781 4.59375 -20.78125 C 5.789062 -21.882812 7.179688 -22.765625 8.765625 -23.421875 C 10.359375 -24.078125 11.988281 -24.40625 13.65625 -24.40625 C 15.207031 -24.40625 16.632812 -24.222656 17.9375 -23.859375 C 19.25 -23.492188 20.175781 -23.125 20.71875 -22.75 L 21.53125 -22.203125 L 19.203125 -17.546875 C 19.066406 -17.671875 18.863281 -17.8125 18.59375 -17.96875 C 18.320312 -18.132812 17.78125 -18.351562 16.96875 -18.625 C 16.15625 -18.894531 15.332031 -19.03125 14.5 -19.03125 C 13.1875 -19.03125 12.003906 -18.816406 10.953125 -18.390625 C 9.910156 -17.960938 9.082031 -17.398438 8.46875 -16.703125 C 7.863281 -16.015625 7.398438 -15.265625 7.078125 -14.453125 C 6.753906 -13.648438 6.59375 -12.832031 6.59375 -12 C 6.59375 -10.175781 7.273438 -8.539062 8.640625 -7.09375 C 10.003906 -5.65625 11.957031 -4.9375 14.5 -4.9375 Z M 14.5 -4.9375 "/></g></g></g><g fill="#000000" fill-opacity="1"><g transform="translate(160.68875, 30.22677)"><g><path d="M 23.5625 0 L 16.046875 0 L 7.203125 -10.171875 L 7.203125 0 L 1.75 0 L 1.75 -23.984375 L 7.203125 -23.984375 L 7.203125 -14.1875 L 15.4375 -23.984375 L 22.0625 -23.984375 L 12.40625 -12.609375 Z M 23.5625 0 "/></g></g></g><g fill="#000000" fill-opacity="1"><g transform="translate(182.104484, 30.22677)"><g><path d="M 20.171875 -23.984375 L 20.171875 -8.515625 C 20.171875 -5.566406 19.375 -3.335938 17.78125 -1.828125 C 16.195312 -0.316406 13.875 0.4375 10.8125 0.4375 C 7.75 0.4375 5.421875 -0.316406 3.828125 -1.828125 C 2.242188 -3.335938 1.453125 -5.566406 1.453125 -8.515625 L 1.453125 -23.984375 L 6.921875 -23.984375 L 6.921875 -10.109375 C 6.921875 -8.171875 7.222656 -6.820312 7.828125 -6.0625 C 8.441406 -5.3125 9.4375 -4.9375 10.8125 -4.9375 C 12.1875 -4.9375 13.175781 -5.3125 13.78125 -6.0625 C 14.394531 -6.820312 14.703125 -8.171875 14.703125 -10.109375 L 14.703125 -23.984375 Z M 20.171875 -23.984375 "/></g></g></g><g fill="#000000" fill-opacity="1"><g transform="translate(202.270706, 30.22677)"><g><path d="M 1.75 -23.984375 L 10.484375 -23.984375 C 12.929688 -23.984375 14.910156 -23.351562 16.421875 -22.09375 C 17.929688 -20.832031 18.6875 -19 18.6875 -16.59375 C 18.6875 -14.1875 17.921875 -12.300781 16.390625 -10.9375 C 14.859375 -9.570312 12.890625 -8.890625 10.484375 -8.890625 L 7.203125 -8.890625 L 7.203125 0 L 1.75 0 Z M 7.203125 -13.25 L 8.75 -13.25 C 9.96875 -13.25 10.96875 -13.492188 11.75 -13.984375 C 12.539062 -14.484375 12.9375 -15.296875 12.9375 -16.421875 C 12.9375 -17.566406 12.539062 -18.382812 11.75 -18.875 C 10.96875 -19.375 9.96875 -19.625 8.75 -19.625 L 7.203125 -19.625 Z M 7.203125 -13.25 "/></g></g></g><g clip-path="url(#0047bf5a86)"><g clip-path="url(#874ba1f80f)"><path fill="#00ce7c" d="M 23.457031 5.222656 L 50 5.222656 L 50 31.765625 L 23.457031 31.765625 Z M 23.457031 5.222656 " fill-opacity="1" fill-rule="nonzero"/></g></g><g clip-path="url(#2dd55bb20f)"><path fill="#000000" d="M 27.875 16.023438 L 36.714844 20.441406 C 36.765625 20.464844 36.820312 20.480469 36.878906 20.480469 C 36.933594 20.480469 36.992188 20.464844 37.042969 20.441406 L 45.878906 16.023438 C 46.003906 15.960938 46.082031 15.832031 46.082031 15.691406 C 46.082031 15.554688 46.003906 15.425781 45.878906 15.363281 L 37.042969 10.945312 C 36.9375 10.894531 36.816406 10.894531 36.710938 10.945312 L 27.875 15.363281 C 27.75 15.425781 27.671875 15.554688 27.671875 15.691406 C 27.671875 15.832031 27.75 15.960938 27.875 16.023438 Z M 36.878906 11.6875 L 44.890625 15.691406 L 36.878906 19.699219 L 28.863281 15.691406 Z M 36.878906 11.6875 " fill-opacity="1" fill-rule="nonzero"/></g><g clip-path="url(#900728a74e)"><path fill="#000000" d="M 45.550781 18.308594 L 36.878906 22.644531 L 28.203125 18.308594 C 28.023438 18.21875 27.800781 18.292969 27.710938 18.472656 C 27.621094 18.65625 27.695312 18.875 27.875 18.96875 L 36.710938 23.386719 C 36.765625 23.410156 36.820312 23.425781 36.878906 23.425781 C 36.933594 23.425781 36.992188 23.410156 37.042969 23.386719 L 45.878906 18.96875 C 46.0625 18.875 46.136719 18.65625 46.042969 18.472656 C 45.953125 18.292969 45.730469 18.21875 45.550781 18.308594 Z M 45.550781 18.308594 " fill-opacity="1" fill-rule="nonzero"/></g><g clip-path="url(#2ea98220f2)"><path fill="#000000" d="M 45.550781 21.253906 L 36.878906 25.589844 L 28.203125 21.253906 C 28.023438 21.164062 27.800781 21.238281 27.710938 21.417969 C 27.621094 21.601562 27.695312 21.820312 27.875 21.914062 L 36.710938 26.332031 C 36.765625 26.355469 36.820312 26.367188 36.878906 26.367188 C 36.933594 26.367188 36.992188 26.355469 37.042969 26.332031 L 45.878906 21.914062 C 46.0625 21.820312 46.136719 21.601562 46.042969 21.417969 C 45.953125 21.238281 45.730469 21.164062 45.550781 21.253906 Z M 45.550781 21.253906 " fill-opacity="1" fill-rule="nonzero"/></g></svg>